<svg width="20" height="20" viewBox="0 0 20 20" fill="none" xmlns="http://www.w3.org/2000/svg">
<path fill-rule="evenodd" clip-rule="evenodd" d="M3.30749 8.56764C3.36555 8.62584 3.43451 8.67202 3.51045 8.70353C3.58638 8.73504 3.66778 8.75126 3.74999 8.75126C3.8322 8.75126 3.9136 8.73504 3.98953 8.70353C4.06546 8.67202 4.13443 8.62584 4.19249 8.56764L7.49999 5.25889L10.8075 8.56764C10.8656 8.62575 10.9346 8.67185 11.0105 8.70329C11.0864 8.73474 11.1678 8.75093 11.25 8.75093C11.3322 8.75093 11.4135 8.73474 11.4895 8.70329C11.5654 8.67185 11.6344 8.62575 11.6925 8.56764C11.7506 8.50953 11.7967 8.44054 11.8281 8.36462C11.8596 8.2887 11.8758 8.20732 11.8758 8.12514C11.8758 8.04296 11.8596 7.96159 11.8281 7.88566C11.7967 7.80974 11.7506 7.74075 11.6925 7.68264L7.94249 3.93264C7.88443 3.87444 7.81546 3.82826 7.73953 3.79675C7.6636 3.76524 7.5822 3.74902 7.49999 3.74902C7.41778 3.74902 7.33638 3.76524 7.26045 3.79675C7.18451 3.82826 7.11555 3.87444 7.05749 3.93264L3.30749 7.68264C3.24928 7.7407 3.20311 7.80967 3.1716 7.8856C3.14009 7.96153 3.12387 8.04293 3.12387 8.12514C3.12387 8.20735 3.14009 8.28875 3.1716 8.36468C3.20311 8.44061 3.24928 8.50958 3.30749 8.56764Z" fill="white"/>
<path fill-rule="evenodd" clip-rule="evenodd" d="M7.5 4.375C7.33424 4.375 7.17527 4.44085 7.05806 4.55806C6.94085 4.67527 6.875 4.83424 6.875 5V13.125C6.875 13.9538 7.20424 14.7487 7.79029 15.3347C8.37634 15.9208 9.1712 16.25 10 16.25H16.875C17.0408 16.25 17.1997 16.1842 17.3169 16.0669C17.4342 15.9497 17.5 15.7908 17.5 15.625C17.5 15.4592 17.4342 15.3003 17.3169 15.1831C17.1997 15.0658 17.0408 15 16.875 15H10C9.50272 15 9.02581 14.8025 8.67417 14.4508C8.32254 14.0992 8.125 13.6223 8.125 13.125V5C8.125 4.83424 8.05915 4.67527 7.94194 4.55806C7.82473 4.44085 7.66576 4.375 7.5 4.375Z" fill="white"/>
</svg>
