<svg width="50" height="50" viewBox="0 0 50 50" fill="none" xmlns="http://www.w3.org/2000/svg">
<path fill-rule="evenodd" clip-rule="evenodd" d="M41.6138 39.543C44.6973 36.0218 46.6671 31.4205 46.9961 26.4648L44.1406 25L46.9961 23.5352C46.6671 18.5795 44.6973 13.9782 41.6138 10.457L39.4199 10.5786L39.5422 8.38564C36.0212 5.30215 31.4201 3.33291 26.4648 3.00391L25 5.85938L23.5352 3.00391C18.5799 3.33291 13.9788 5.30225 10.4577 8.38564L10.58 10.5786L8.38613 10.457C5.30273 13.9782 3.33291 18.5795 3.00391 23.5352L5.85938 25L3.00391 26.4648C3.33291 31.4205 5.30273 36.0218 8.38623 39.543L10.5801 39.4214L10.4578 41.6144C13.9788 44.6979 18.5799 46.6671 23.5353 46.9961L25 44.1406L26.4648 46.9961C31.4201 46.6671 36.0212 44.6978 39.5423 41.6144L39.42 39.4214L41.6138 39.543Z" fill="url(#paint0_linear)"/>
<path d="M7.32422 23.5352H3.00391C2.97158 24.0215 2.92969 24.5056 2.92969 25C2.92969 25.4944 2.97148 25.9785 3.00391 26.4648H7.32422C8.13389 26.4648 8.78906 25.8097 8.78906 25C8.78906 24.1903 8.13389 23.5352 7.32422 23.5352ZM13.5098 13.5083C14.0819 12.9361 14.0819 12.0091 13.5098 11.4369L10.4578 8.38564C9.72197 9.02988 9.03066 9.72119 8.38623 10.457L11.4384 13.5083C12.0105 14.0806 12.9375 14.0806 13.5098 13.5083ZM25 8.78906C25.8097 8.78906 26.4648 8.13389 26.4648 7.32422V3.00391C25.9785 2.97158 25.4944 2.92969 25 2.92969C24.5056 2.92969 24.0215 2.97148 23.5352 3.00391V7.32422C23.5352 8.13389 24.1903 8.78906 25 8.78906ZM38.5616 13.5083L41.6138 10.457C40.9693 9.72119 40.278 9.02988 39.5422 8.38564L36.4902 11.4369C35.9181 12.0091 35.9181 12.9361 36.4902 13.5083C37.0624 14.0805 37.9895 14.0806 38.5616 13.5083ZM25 11.7188C17.7302 11.7188 11.7188 17.7302 11.7188 25C11.7188 32.2698 17.7302 38.2812 25 38.2812C32.2698 38.2812 38.2812 32.2698 38.2812 25C38.2812 17.7302 32.2698 11.7188 25 11.7188ZM31.5946 24.2375L29.3602 26.4162L29.8895 29.4933C29.9839 30.0426 29.7578 30.5977 29.3058 30.9252C28.8703 31.2432 28.2731 31.305 27.7637 31.0368L25 29.5848L22.2362 31.0367C21.7441 31.2971 21.1462 31.2542 20.6941 30.9251C20.2421 30.5976 20.0161 30.0425 20.1104 29.4932L20.6397 26.4161L18.4053 24.2374C18.0047 23.8483 17.8617 23.2661 18.0333 22.7368C18.205 22.2061 18.6656 21.8198 19.2149 21.7397L22.3049 21.2905L23.6867 18.4925C24.1788 17.4911 25.821 17.4911 26.3132 18.4925L27.695 21.2905L30.785 21.7397C31.3343 21.8198 31.7949 22.2061 31.9666 22.7368C32.1383 23.2662 31.9952 23.8484 31.5946 24.2375ZM36.4902 36.4917C35.9181 37.0639 35.9181 37.9909 36.4902 38.5631L39.5422 41.6144C40.278 40.9701 40.9693 40.2788 41.6138 39.543L38.5616 36.4917C37.9895 35.9194 37.0625 35.9194 36.4902 36.4917ZM11.4384 36.4917L8.38623 39.543C9.03066 40.2788 9.72197 40.9701 10.4578 41.6144L13.5098 38.5631C14.0819 37.9909 14.0819 37.0639 13.5098 36.4917C12.9376 35.9195 12.0105 35.9194 11.4384 36.4917ZM46.9961 23.5352H42.6758C41.8661 23.5352 41.2109 24.1903 41.2109 25C41.2109 25.8097 41.8661 26.4648 42.6758 26.4648H46.9961C47.0284 25.9785 47.0703 25.4944 47.0703 25C47.0703 24.5056 47.0285 24.0215 46.9961 23.5352ZM25 41.2109C24.1903 41.2109 23.5352 41.8661 23.5352 42.6758V46.9961C24.0215 47.0284 24.5056 47.0703 25 47.0703C25.4944 47.0703 25.9785 47.0285 26.4648 46.9961V42.6758C26.4648 41.8661 25.8097 41.2109 25 41.2109Z" fill="url(#paint1_linear)"/>
<defs>
<linearGradient id="paint0_linear" x1="25" y1="50" x2="25" y2="0" gradientUnits="userSpaceOnUse">
<stop stop-color="#FD5900"/>
<stop offset="1" stop-color="#FFDE00"/>
</linearGradient>
<linearGradient id="paint1_linear" x1="25" y1="47.0703" x2="25" y2="2.92969" gradientUnits="userSpaceOnUse">
<stop stop-color="#FFE59A"/>
<stop offset="1" stop-color="#FFFFD5"/>
</linearGradient>
</defs>
</svg>
