<svg width="41" height="38" viewBox="0 0 41 38" fill="none" xmlns="http://www.w3.org/2000/svg">
<path d="M4.80827 29.4465C5.24976 29.4465 5.6312 29.5256 5.95173 29.6809C6.27379 29.8377 6.53953 30.0489 6.75271 30.3145C6.96299 30.5815 7.11951 30.8936 7.22057 31.2513C7.32095 31.61 7.37131 31.9955 7.37131 32.4083C7.37131 33.0423 7.25511 33.6413 7.0205 34.2059C6.78588 34.7714 6.46757 35.2618 6.06265 35.6802C5.65808 36.0981 5.18035 36.4275 4.62946 36.6709C4.07943 36.9144 3.48141 37.0362 2.83933 37.0362C2.75631 37.0362 2.61033 37.0338 2.40413 37.0295C2.19793 37.0253 1.96094 37.004 1.69554 36.9681C1.42843 36.9309 1.14601 36.8758 0.847768 36.802C0.549697 36.7295 0.266597 36.628 0 36.4991L2.38389 26.4861L4.51904 26.1553L3.66549 29.7086C3.84821 29.6263 4.03229 29.5625 4.21604 29.5161C4.39995 29.4703 4.59731 29.4465 4.80827 29.4465ZM3.01729 35.343C3.33884 35.343 3.64184 35.2639 3.92647 35.1086C4.21196 34.9532 4.45831 34.7433 4.66468 34.4819C4.87105 34.2193 5.03437 33.9236 5.15347 33.5931C5.27256 33.2627 5.33279 32.918 5.33279 32.5593C5.33279 32.1186 5.25912 31.7749 5.11229 31.5265C4.96547 31.279 4.69377 31.1545 4.29923 31.1545C4.16993 31.1545 4.00337 31.1792 3.79683 31.2232C3.58961 31.27 3.40417 31.3671 3.23795 31.5132L2.32911 35.2867C2.38389 35.2964 2.43237 35.3056 2.47372 35.3142C2.51421 35.3236 2.55895 35.3302 2.60353 35.3348C2.65065 35.3401 2.70459 35.3428 2.76975 35.3428C2.83491 35.3428 2.9164 35.343 3.01729 35.343Z" fill="white"/>
<path d="M9.58564 36.8443H7.54626L9.26851 29.5998H11.3218L9.58564 36.8443ZM10.578 28.7172C10.2934 28.7172 10.0353 28.6325 9.8063 28.4628C9.57543 28.2941 9.4611 28.0344 9.4611 27.6844C9.4611 27.4918 9.50023 27.3112 9.57781 27.1408C9.65658 26.9707 9.75951 26.8243 9.88847 26.6998C10.0173 26.5764 10.1665 26.4777 10.3359 26.4034C10.5064 26.3303 10.6878 26.2937 10.881 26.2937C11.1655 26.2937 11.4222 26.3784 11.6521 26.5481C11.8811 26.7187 11.9962 26.9784 11.9962 27.3265C11.9962 27.5197 11.9573 27.701 11.879 27.8711C11.8013 28.0412 11.6983 28.1876 11.5694 28.3121C11.4416 28.4357 11.291 28.534 11.1219 28.6077C10.9513 28.682 10.7706 28.7172 10.578 28.7172Z" fill="white"/>
<path d="M13.1088 27.7962L15.2448 27.4655L14.7203 29.6008H17.0079L16.5948 31.2808H14.321L13.7153 33.8148C13.6595 34.026 13.6278 34.2233 13.619 34.4066C13.609 34.5908 13.6323 34.749 13.6874 34.8822C13.7422 35.0157 13.8407 35.1186 13.9836 35.1913C14.1258 35.2653 14.3295 35.3026 14.5966 35.3026C14.8166 35.3026 15.0309 35.2817 15.2381 35.2402C15.4442 35.1993 15.6529 35.1425 15.8642 35.0682L16.0163 36.639C15.7407 36.74 15.4423 36.8269 15.1208 36.9C14.7987 36.9742 14.4174 37.0099 13.9768 37.0099C13.3432 37.0099 12.852 36.9158 12.5021 36.7286C12.1526 36.54 11.9056 36.2823 11.7578 35.9562C11.612 35.6312 11.5468 35.2565 11.565 34.8344C11.5839 34.4112 11.6477 33.9665 11.7578 33.4981L13.1088 27.7962Z" fill="white"/>
<path d="M16.9178 33.953C16.9178 33.329 17.0189 32.7406 17.2209 32.1898C17.4225 31.6384 17.7129 31.1563 18.0897 30.7425C18.4652 30.3307 18.9227 30.0045 19.4612 29.7651C19.9971 29.527 20.5971 29.4069 21.2584 29.4069C21.6724 29.4069 22.0421 29.446 22.3673 29.5244C22.694 29.6035 22.9895 29.7057 23.2568 29.834L22.5535 31.4326C22.3697 31.3581 22.179 31.2925 21.9818 31.233C21.7845 31.1722 21.5436 31.143 21.2586 31.143C20.5779 31.143 20.0398 31.3775 19.6393 31.845C19.2403 32.3129 19.0394 32.9427 19.0394 33.7326C19.0394 34.2008 19.1405 34.5794 19.3433 34.869C19.545 35.1587 19.9178 35.3027 20.459 35.3027C20.7261 35.3027 20.9838 35.2748 21.2307 35.2204C21.4794 35.1653 21.6991 35.0959 21.8925 35.0139L22.0448 36.6527C21.7869 36.7527 21.5024 36.843 21.1904 36.9221C20.8777 36.9985 20.5054 37.0381 20.0738 37.0381C19.504 37.0381 19.0217 36.9548 18.6272 36.7906C18.2325 36.624 17.9063 36.4027 17.6494 36.1224C17.3912 35.8415 17.2057 35.5134 17.091 35.1369C16.9764 34.7607 16.9178 34.3654 16.9178 33.953Z" fill="white"/>
<path d="M25.9775 37.0381C25.4908 37.0381 25.068 36.9639 24.7094 36.8172C24.3517 36.6704 24.0555 36.4644 23.8213 36.1974C23.5867 35.9318 23.4111 35.617 23.2908 35.2542C23.1705 34.8916 23.1127 34.4901 23.1127 34.0501C23.1127 33.4983 23.2013 32.9466 23.3805 32.3964C23.5588 31.845 23.8233 31.3496 24.1734 30.9093C24.5209 30.4683 24.9494 30.1078 25.454 29.8266C25.9581 29.5474 26.5379 29.4069 27.1892 29.4069C27.6671 29.4069 28.0877 29.4812 28.4512 29.628C28.8131 29.7744 29.1112 29.9821 29.3468 30.2477C29.5799 30.5148 29.757 30.8282 29.8761 31.1915C29.996 31.5534 30.0552 31.9559 30.0552 32.3962C30.0552 32.9464 29.9678 33.4981 29.7943 34.05C29.6206 34.5991 29.3628 35.0957 29.0225 35.5371C28.683 35.9774 28.2583 36.3377 27.7483 36.6177C27.2389 36.8976 26.6482 37.0381 25.9775 37.0381ZM26.9968 31.1432C26.6945 31.1432 26.4272 31.2309 26.1984 31.4042C25.9687 31.5796 25.7757 31.8 25.6202 32.0658C25.463 32.3328 25.3465 32.6239 25.2677 32.9404C25.1896 33.2576 25.1514 33.5575 25.1514 33.8423C25.1514 34.302 25.2255 34.66 25.3713 34.9177C25.5192 35.174 25.7848 35.3029 26.1708 35.3029C26.4741 35.3029 26.7401 35.2158 26.9702 35.0406C27.1986 34.8666 27.3917 34.6461 27.5484 34.3797C27.7045 34.1141 27.8221 33.8221 27.9009 33.5051C27.9779 33.1889 28.0172 32.8874 28.0172 32.603C28.0172 32.1445 27.9434 31.7857 27.7962 31.5284C27.6492 31.2721 27.3825 31.1432 26.9968 31.1432Z" fill="white"/>
<path d="M32.2713 36.8443H30.2302L31.9525 29.5998H34.0068L32.2713 36.8443ZM33.2621 28.7172C32.9777 28.7172 32.7198 28.6325 32.4911 28.4628C32.2614 28.2941 32.1461 28.0344 32.1461 27.6844C32.1461 27.4918 32.1857 27.3112 32.2635 27.1408C32.3412 26.9707 32.4448 26.8243 32.5738 26.6998C32.7019 26.5764 32.8525 26.4777 33.0216 26.4034C33.191 26.3303 33.3724 26.2937 33.565 26.2937C33.8501 26.2937 34.1077 26.3784 34.337 26.5481C34.5665 26.7187 34.6824 26.9784 34.6824 27.3265C34.6824 27.5197 34.6412 27.701 34.5642 27.8711C34.4871 28.0412 34.3835 28.1876 34.255 28.3121C34.1257 28.4357 33.977 28.534 33.8076 28.6077C33.6368 28.682 33.4558 28.7172 33.2621 28.7172Z" fill="white"/>
<path d="M35.4825 29.9308C35.6373 29.8855 35.8101 29.8311 35.9981 29.7719C36.1868 29.7127 36.3976 29.6576 36.6331 29.608C36.866 29.5568 37.1288 29.5153 37.4179 29.4831C37.707 29.4503 38.0363 29.4343 38.4023 29.4343C39.4779 29.4343 40.2193 29.7474 40.6286 30.3718C41.0376 30.9961 41.1084 31.8505 40.843 32.9335L39.9049 36.8451H37.8521L38.7613 33.0158C38.8167 32.7767 38.8603 32.5456 38.8924 32.3197C38.9249 32.0959 38.9231 31.8986 38.8851 31.7279C38.8489 31.5592 38.7635 31.4211 38.6309 31.3141C38.4964 31.2088 38.2931 31.1559 38.0173 31.1559C37.7514 31.1559 37.4808 31.1845 37.2047 31.2396L35.868 36.8449H33.8143L35.4825 29.9308Z" fill="white"/>
<path d="M29.7696 11.8623C28.4932 16.9793 23.3081 20.0934 18.188 18.8174C13.0701 17.5416 9.95447 12.3587 11.2314 7.24205C12.5072 2.1245 17.6923 -0.989901 22.8109 0.285829C27.9306 1.56156 31.0459 6.74507 29.7696 11.8623Z" fill="white"/>
<path d="M24.7136 8.19052C24.9039 6.91957 23.9357 6.23633 22.6119 5.78054L23.0413 4.05887L21.9928 3.7977L21.5747 5.474C21.2991 5.40535 21.016 5.34057 20.7347 5.2764L21.1557 3.58906L20.1078 3.32788L19.6781 5.04895C19.45 4.99702 19.226 4.94568 19.0086 4.89165L19.0098 4.88628L17.5638 4.52541L17.2849 5.64473C17.2849 5.64473 18.0628 5.82293 18.0464 5.83397C18.471 5.93993 18.5478 6.22081 18.5349 6.44348L18.0458 8.40483C18.0751 8.4123 18.113 8.42304 18.1548 8.43976C18.1198 8.4311 18.0825 8.42155 18.044 8.4123L17.3583 11.1599C17.3064 11.2888 17.1747 11.4822 16.8778 11.4088C16.8883 11.424 16.1157 11.2187 16.1157 11.2187L15.5952 12.4183L16.9597 12.7583C17.2135 12.8218 17.4623 12.8884 17.7071 12.9511L17.2732 14.6924L18.3205 14.9536L18.7503 13.2308C19.0363 13.3084 19.3141 13.38 19.5858 13.4475L19.1576 15.1623L20.2061 15.4234L20.64 13.6854C22.4279 14.0235 23.7723 13.8871 24.3383 12.2708C24.7943 10.9694 24.3156 10.2187 23.3749 9.72922C24.0599 9.57132 24.576 9.1209 24.7136 8.19052ZM22.318 11.5482C21.994 12.8496 19.8017 12.1461 19.091 11.9697L19.6668 9.66266C20.3775 9.83996 22.6567 10.191 22.318 11.5482ZM22.6423 8.17172C22.3467 9.35551 20.522 8.75406 19.9302 8.60661L20.4522 6.51422C21.044 6.66167 22.9502 6.93688 22.6423 8.17172Z" fill="#F7931A"/>
</svg>
