<svg width="16" height="16" viewBox="0 0 16 16" fill="none" xmlns="http://www.w3.org/2000/svg">
<path d="M8.09869 14.3996C11.5449 14.3996 14.3384 11.5343 14.3384 7.9996C14.3384 4.46492 11.5449 1.59961 8.09869 1.59961C4.65251 1.59961 1.85895 4.46492 1.85895 7.9996C1.86291 11.5326 4.65419 14.3955 8.09869 14.3996ZM2.48293 7.9996C2.4846 7.54132 2.5399 7.08492 2.64745 6.64007L5.23795 8.87788L4.15468 12.094C3.08466 11.0143 2.48247 9.53913 2.48293 7.9996ZM9.35455 5.73648C9.39873 5.84226 9.49486 5.91554 9.60637 5.92836L12.9582 6.31445L10.3936 8.53007C10.2949 8.61538 10.2576 8.75413 10.2997 8.87929L11.3596 12.0258L8.1744 11.2091C8.12473 11.1965 8.07264 11.1965 8.02297 11.2091L4.83776 12.0258L5.89772 8.87929C5.93976 8.75413 5.90244 8.61538 5.80373 8.53007L3.23913 6.31445L6.591 5.92836C6.70251 5.91554 6.79864 5.84226 6.84282 5.73648L8.09869 2.7318L9.35455 5.73648ZM4.84339 12.6841L8.09869 11.8494L11.354 12.6841C9.40894 14.118 6.78843 14.118 4.84339 12.6841ZM12.0427 12.094L10.9594 8.87788L13.5499 6.64007C14.0263 8.60351 13.4527 10.679 12.0427 12.094ZM13.2462 5.70367L9.8565 5.3132L8.58236 2.26477C10.6334 2.44898 12.4225 3.7682 13.2462 5.70367ZM7.61501 2.26477L6.34087 5.3132L2.95121 5.70367C3.7749 3.7682 5.56395 2.44898 7.61501 2.26477Z" fill="#2343ED"/>
<path d="M0.298828 8C0.298828 12.4183 3.79085 16 8.09849 16C12.4061 16 15.8982 12.4183 15.8982 8C15.8982 3.58172 12.4061 0 8.09849 0C3.79283 0.005 0.303703 3.58375 0.298828 8ZM8.09849 0.64C12.0615 0.64 15.2742 3.93516 15.2742 8C15.2742 12.0648 12.0615 15.36 8.09849 15.36C4.13544 15.36 0.922801 12.0648 0.922801 8C0.927372 3.93703 4.13727 0.644688 8.09849 0.64Z" fill="#2343ED"/>
<path d="M7.06393 9.90354L7.80307 10.1562C7.79393 10.1832 7.78829 10.2113 7.78662 10.2399V10.5599C7.78662 10.7367 7.92631 10.8799 8.09861 10.8799C8.2709 10.8799 8.41059 10.7367 8.41059 10.5599V10.364L8.93585 10.5435C9.03106 10.576 9.13557 10.5596 9.21692 10.4995C9.29826 10.4393 9.34655 10.3428 9.34655 10.2399V8.63994C9.34655 8.50229 9.26064 8.37994 9.13328 8.33635L7.47463 7.76932V6.52385L8.72258 6.95057V7.35994C8.72258 7.53666 8.86227 7.67994 9.03457 7.67994C9.20686 7.67994 9.34655 7.53666 9.34655 7.35994V6.71994C9.34655 6.58229 9.26064 6.45994 9.13328 6.41635L8.41059 6.16932V5.75994C8.41059 5.58322 8.2709 5.43994 8.09861 5.43994C7.92631 5.43994 7.78662 5.58322 7.78662 5.75994V5.95588L7.26136 5.77635C7.16615 5.74385 7.06165 5.76025 6.9803 5.82041C6.89895 5.88057 6.85066 5.97713 6.85066 6.07994V7.99994C6.85066 8.1376 6.93658 8.25994 7.06393 8.30354L8.72258 8.87057V9.79604L7.47463 9.36932V9.27994C7.47463 9.10322 7.33494 8.95994 7.16265 8.95994C6.99035 8.95994 6.85066 9.10322 6.85066 9.27994V9.59994C6.85066 9.7376 6.93658 9.85994 7.06393 9.90354Z" fill="#2343ED"/>
</svg>
