<svg width="14" height="14" viewBox="0 0 14 14" fill="none" xmlns="http://www.w3.org/2000/svg">
<path d="M12.9842 2.5049H11.4637V0.798533C11.4637 0.35819 11.1548 0 10.7751 0H3.47198C3.09225 0 2.78336 0.35819 2.78336 0.798533V2.5049H1.26289C0.731336 2.5049 0.298828 3.00644 0.298828 3.62285V12.8821C0.298828 13.4985 0.731336 14 1.26289 14H12.9842C13.5157 14 13.9482 13.4985 13.9482 12.8821V3.62285C13.9482 3.00638 13.5157 2.5049 12.9842 2.5049ZM3.60971 0.958239H10.6374V2.5049H3.60971V0.958239ZM1.26289 3.46314H12.9842C13.0588 3.46314 13.1219 3.53628 13.1219 3.62285V6.49622H8.94496V6.06693C8.94496 5.62659 8.63607 5.2684 8.25634 5.2684H5.99073C5.611 5.2684 5.30211 5.62659 5.30211 6.06693V6.49622H1.12517V3.62285C1.12517 3.53622 1.18825 3.46314 1.26289 3.46314ZM8.11862 6.2267V7.77336H6.12845V6.2267H8.11862ZM12.9842 13.0418H1.26289C1.18825 13.0418 1.12517 12.9687 1.12517 12.8821V7.45446H5.30211V7.933C5.30211 8.37335 5.611 8.73154 5.99073 8.73154H8.25634C8.63607 8.73154 8.94496 8.37335 8.94496 7.933V7.45446H13.1219V12.8821C13.1219 12.9687 13.0588 13.0418 12.9842 13.0418Z" fill="#2343ED"/>
</svg>
