<svg width="24" height="24" viewBox="0 0 24 24" fill="none" xmlns="http://www.w3.org/2000/svg">
<path d="M23.9988 4.07812H24V2.10938C24 0.946266 23.0537 0 21.8906 0H2.10938C0.946266 0 0 0.946266 0 2.10938V4.07812H0.00117188C0.00117188 4.14844 0.0105469 4.21908 0.0320156 4.28784L2.09048 10.875H0.703125C0.314812 10.875 0 11.1898 0 11.5781V23.2969C0 23.6852 0.314812 24 0.703125 24H23.2969C23.6852 24 24 23.6852 24 23.2969V11.5781C24 11.1898 23.6852 10.875 23.2969 10.875H21.9095L23.968 4.28784C23.9895 4.21908 23.9989 4.14844 23.9988 4.07812ZM1.40625 2.10938C1.40625 1.72167 1.72167 1.40625 2.10938 1.40625H21.8906C22.2783 1.40625 22.5938 1.72167 22.5938 2.10938V3.375H1.40625V2.10938ZM1.40625 22.5938V19.8519C2.78166 20.1322 3.86775 21.2183 4.14811 22.5938H1.40625ZM19.8519 22.5938C20.1322 21.2183 21.2183 20.1322 22.5938 19.8519V22.5938H19.8519ZM22.5938 18.4254C20.4414 18.7347 18.7347 20.4414 18.4254 22.5938H5.57456C5.26533 20.4414 3.55856 18.7347 1.40625 18.4254V12.2812H8.48438V17.2031C8.48438 17.5914 8.79919 17.9062 9.1875 17.9062H14.8125C15.2008 17.9062 15.5156 17.5914 15.5156 17.2031V12.2812H22.5938V18.4254ZM9.89062 12.2812H14.1094V16.5H9.89062V12.2812ZM20.4362 10.875H3.56381L1.65952 4.78125H22.3405L20.4362 10.875Z" fill="#2343ED"/>
<path d="M12 15.0938C12.3883 15.0938 12.7031 14.7789 12.7031 14.3906C12.7031 14.0023 12.3883 13.6875 12 13.6875C11.6117 13.6875 11.2969 14.0023 11.2969 14.3906C11.2969 14.7789 11.6117 15.0938 12 15.0938Z" fill="#2343ED"/>
</svg>
