<svg width="11" height="13" viewBox="0 0 11 13" fill="none" xmlns="http://www.w3.org/2000/svg">
<path d="M7.30914 0H3.65457V1.2378H7.30914V0ZM4.87276 8.04573H6.09095V4.33232H4.87276V8.04573ZM9.76379 3.95479L10.6287 3.07594C10.3668 2.7603 10.0805 2.46323 9.76988 2.20329L8.90496 3.08213C7.93488 2.2889 6.72704 1.85651 5.48185 1.85671C2.45465 1.85671 0 4.35088 0 7.42683C0 10.5028 2.44856 12.9969 5.48185 12.9969C6.51385 12.9975 7.52501 12.7019 8.39888 12.1441C9.27276 11.5863 9.9738 10.789 10.4213 9.8441C10.8687 8.89918 11.0444 7.84506 10.9281 6.80313C10.8118 5.7612 10.4082 4.77385 9.76379 3.95479ZM5.48185 11.7591C3.12466 11.7591 1.21819 9.82198 1.21819 7.42683C1.21819 5.03168 3.12466 3.09451 5.48185 3.09451C7.83905 3.09451 9.74551 5.03168 9.74551 7.42683C9.74551 9.82198 7.83905 11.7591 5.48185 11.7591Z" fill="white"/>
</svg>
