<svg width="20" height="20" viewBox="0 0 20 20" fill="none" xmlns="http://www.w3.org/2000/svg">
<path fill-rule="evenodd" clip-rule="evenodd" d="M16.6455 15.8172C17.8789 14.4087 18.6668 12.5682 18.7984 10.5859L17.6562 10L18.7984 9.41406C18.6668 7.4318 17.8789 5.59129 16.6455 4.18281L15.768 4.23145L15.8169 3.35426C14.4085 2.12086 12.568 1.33316 10.5859 1.20156L10 2.34375L9.41406 1.20156C7.43195 1.33316 5.59152 2.1209 4.18309 3.35426L4.23199 4.23145L3.35445 4.18281C2.12109 5.59129 1.33316 7.4318 1.20156 9.41406L2.34375 10L1.20156 10.5859C1.33316 12.5682 2.12109 14.4087 3.35449 15.8172L4.23203 15.7686L4.18313 16.6457C5.59152 17.8791 7.43195 18.6668 9.4141 18.7984L10 17.6562L10.5859 18.7984C12.568 18.6668 14.4085 17.8791 15.8169 16.6457L15.768 15.7686L16.6455 15.8172Z" fill="url(#paint0_linear)"/>
<path d="M2.92969 9.41406H1.20156C1.18863 9.60859 1.17188 9.80223 1.17188 10C1.17188 10.1978 1.18859 10.3914 1.20156 10.5859H2.92969C3.25355 10.5859 3.51562 10.3239 3.51562 10C3.51562 9.67613 3.25355 9.41406 2.92969 9.41406ZM5.40391 5.40332C5.63277 5.17445 5.63277 4.80363 5.40391 4.57477L4.18313 3.35426C3.88879 3.61195 3.61227 3.88848 3.35449 4.18281L4.57535 5.40332C4.80422 5.63223 5.175 5.63223 5.40391 5.40332ZM10 3.51562C10.3239 3.51562 10.5859 3.25355 10.5859 2.92969V1.20156C10.3914 1.18863 10.1978 1.17188 10 1.17188C9.80223 1.17188 9.60859 1.18859 9.41406 1.20156V2.92969C9.41406 3.25355 9.67613 3.51562 10 3.51562ZM15.4246 5.40332L16.6455 4.18281C16.3877 3.88848 16.1112 3.61195 15.8169 3.35426L14.5961 4.57477C14.3672 4.80363 14.3672 5.17445 14.5961 5.40332C14.825 5.63219 15.1958 5.63223 15.4246 5.40332ZM10 4.6875C7.09207 4.6875 4.6875 7.09207 4.6875 10C4.6875 12.9079 7.09207 15.3125 10 15.3125C12.9079 15.3125 15.3125 12.9079 15.3125 10C15.3125 7.09207 12.9079 4.6875 10 4.6875ZM12.6379 9.695L11.7441 10.5665L11.9558 11.7973C11.9936 12.017 11.9031 12.2391 11.7223 12.3701C11.5481 12.4973 11.3093 12.522 11.1055 12.4147L10 11.8339L8.89449 12.4147C8.69766 12.5188 8.45848 12.5017 8.27766 12.37C8.09684 12.239 8.00645 12.017 8.04418 11.7973L8.2559 10.5664L7.36211 9.69496C7.20188 9.53934 7.14469 9.30645 7.21332 9.09473C7.28199 8.88242 7.46625 8.72793 7.68598 8.6959L8.92195 8.51621L9.47469 7.39699C9.67152 6.99645 10.3284 6.99645 10.5253 7.39699L11.078 8.51621L12.314 8.6959C12.5337 8.72793 12.718 8.88242 12.7866 9.09473C12.8553 9.30648 12.7981 9.53938 12.6379 9.695ZM14.5961 14.5967C14.3672 14.8255 14.3672 15.1964 14.5961 15.4252L15.8169 16.6457C16.1112 16.388 16.3877 16.1115 16.6455 15.8172L15.4246 14.5967C15.1958 14.3678 14.825 14.3678 14.5961 14.5967ZM4.57535 14.5967L3.35449 15.8172C3.61227 16.1115 3.88879 16.388 4.18313 16.6457L5.40391 15.4252C5.63277 15.1964 5.63277 14.8255 5.40391 14.5967C5.17504 14.3678 4.80422 14.3678 4.57535 14.5967ZM18.7984 9.41406H17.0703C16.7464 9.41406 16.4844 9.67613 16.4844 10C16.4844 10.3239 16.7464 10.5859 17.0703 10.5859H18.7984C18.8114 10.3914 18.8281 10.1978 18.8281 10C18.8281 9.80223 18.8114 9.60859 18.7984 9.41406ZM10 16.4844C9.67613 16.4844 9.41406 16.7464 9.41406 17.0703V18.7984C9.60859 18.8114 9.80223 18.8281 10 18.8281C10.1978 18.8281 10.3914 18.8114 10.5859 18.7984V17.0703C10.5859 16.7464 10.3239 16.4844 10 16.4844Z" fill="url(#paint1_linear)"/>
<defs>
<linearGradient id="paint0_linear" x1="10" y1="20" x2="10" y2="0" gradientUnits="userSpaceOnUse">
<stop stop-color="#FD5900"/>
<stop offset="1" stop-color="#FFDE00"/>
</linearGradient>
<linearGradient id="paint1_linear" x1="10" y1="18.8281" x2="10" y2="1.17188" gradientUnits="userSpaceOnUse">
<stop stop-color="#FFE59A"/>
<stop offset="1" stop-color="#FFFFD5"/>
</linearGradient>
</defs>
</svg>
