<svg width="16" height="13" viewBox="0 0 16 13" fill="none" xmlns="http://www.w3.org/2000/svg">
<path d="M15.8591 0.871312L11.0066 6.09543L15.8591 11.3195C15.9468 11.1209 16 10.9012 16 10.6667V1.52413C16 1.28957 15.9468 1.06998 15.8591 0.871312Z" fill="white"/>
<path d="M14.5937 0H1.40625C1.18978 0 0.987127 0.0576663 0.803784 0.152716L7.00575 6.83912C7.55412 7.43332 8.44587 7.43332 8.99425 6.83912L15.1962 0.152716C15.0129 0.0576663 14.8102 0 14.5937 0Z" fill="white"/>
<path d="M0.140938 0.871312C0.0532188 1.06998 0 1.28957 0 1.52413V10.6667C0 10.9013 0.0532188 11.1209 0.140938 11.3195L4.99341 6.09543L0.140938 0.871312Z" fill="white"/>
<path d="M10.3437 6.81365L9.65709 7.55769C8.74337 8.54776 7.25659 8.54776 6.34287 7.55769L5.65625 6.81365L0.803784 12.0378C0.987127 12.1328 1.18978 12.1905 1.40625 12.1905H14.5937C14.8102 12.1905 15.0129 12.1328 15.1962 12.0378L10.3437 6.81365Z" fill="white"/>
</svg>
