<svg width="16" height="12" viewBox="0 0 16 12" fill="none" xmlns="http://www.w3.org/2000/svg">
<path d="M15.8591 0.857697L11.0066 6.00018L15.8591 11.1427C15.9468 10.9471 16 10.7309 16 10.5001V1.50031C16 1.26942 15.9468 1.05326 15.8591 0.857697Z" fill="#5D8FF0"/>
<path d="M14.5937 0H1.40625C1.18978 0 0.987127 0.0567653 0.803784 0.15033L7.00575 6.73226C7.55412 7.31718 8.44587 7.31718 8.99425 6.73226L15.1962 0.15033C15.0129 0.0567653 14.8102 0 14.5937 0Z" fill="#5D8FF0"/>
<path d="M0.140938 0.857697C0.0532188 1.05326 0 1.26942 0 1.50031V10.5001C0 10.7309 0.0532188 10.9471 0.140938 11.1427L4.99341 6.00018L0.140938 0.857697Z" fill="#5D8FF0"/>
<path d="M10.3437 6.70719L9.65709 7.4396C8.74337 8.4142 7.25659 8.4142 6.34287 7.4396L5.65625 6.70719L0.803784 11.8497C0.987127 11.9432 1.18978 12 1.40625 12H14.5937C14.8102 12 15.0129 11.9432 15.1962 11.8497L10.3437 6.70719Z" fill="#5D8FF0"/>
</svg>
