<svg width="16" height="16" viewBox="0 0 16 16" fill="none" xmlns="http://www.w3.org/2000/svg">
<path d="M8.09849 16C6.01513 16 4.05647 15.1679 2.58328 13.6569C1.11008 12.1459 0.298828 10.1369 0.298828 8C0.298828 5.86312 1.11012 3.85416 2.58328 2.34313C4.05644 0.832094 6.01513 0 8.09849 0C10.1819 0 12.1405 0.832125 13.6137 2.34313C15.0869 3.85413 15.8982 5.86312 15.8982 8C15.8982 10.1369 15.0869 12.1458 13.6137 13.6569C12.1405 15.1679 10.1819 16 8.09849 16ZM8.09849 1C4.33534 1 1.27379 4.14019 1.27379 8C1.27379 11.8598 4.33534 15 8.09849 15C11.8616 15 14.9232 11.8598 14.9232 8C14.9232 4.14019 11.8616 1 8.09849 1Z" fill="#2343ED"/>
<path d="M8.09849 11.5C7.82928 11.5 7.61101 11.2761 7.61101 11C7.61101 9.73794 8.09018 8.55144 8.96027 7.659C9.50478 7.10047 9.80467 6.35791 9.80467 5.56803C9.80467 4.70341 9.11888 4 8.27591 4H8.16482C7.32185 4 6.63606 4.70341 6.63606 5.56803V5.75C6.63606 6.02612 6.41779 6.25 6.14858 6.25C5.87937 6.25 5.6611 6.02612 5.6611 5.75V5.56803C5.6611 4.152 6.78425 3 8.16482 3H8.27591C9.65648 3 10.7796 4.152 10.7796 5.56803C10.7796 6.625 10.3783 7.61872 9.64965 8.36613C8.96371 9.06966 8.58597 10.0051 8.58597 11C8.58597 11.2761 8.3677 11.5 8.09849 11.5Z" fill="#2343ED"/>
<path d="M8.0991 13.5C7.82989 13.5 7.61147 13.2761 7.61147 13C7.61147 12.7239 7.82956 12.5 8.0988 12.5C8.36801 12.5 8.58658 12.7239 8.58658 13C8.58658 13.2761 8.36831 13.5 8.0991 13.5Z" fill="#2343ED"/>
</svg>
