<svg width="16" height="16" viewBox="0 0 16 16" fill="none" xmlns="http://www.w3.org/2000/svg">
<path d="M9.40625 14.125C9.21219 14.125 9.05469 14.265 9.05469 14.4375C9.05469 14.61 9.21219 14.75 9.40625 14.75C9.60031 14.75 9.75781 14.61 9.75781 14.4375C9.75781 14.265 9.60031 14.125 9.40625 14.125Z" fill="#2343ED"/>
<path d="M14.3281 1.4375H13.2734V0.9375C13.2734 0.420563 12.8003 0 12.2188 0H3.78125C3.1997 0 2.72656 0.420563 2.72656 0.9375V1.4375H1.67188C1.09032 1.4375 0.617188 1.85806 0.617188 2.375C0.617188 4.40803 1.68741 5.90209 3.42364 6.31806C4.01884 7.48259 4.9599 8.47256 6.15437 9.18791C6.4295 9.35269 6.59375 9.63478 6.59375 9.9425V11.6643C6.35275 11.7193 6.13166 11.8307 5.95106 11.9912C5.68538 12.2274 5.53906 12.5413 5.53906 12.875H5.1875C4.60595 12.875 4.13281 13.2956 4.13281 13.8125V15.6875C4.13281 15.8601 4.29024 16 4.48438 16H11.5156C11.7098 16 11.8672 15.8601 11.8672 15.6875V13.8125C11.8672 13.2956 11.3941 12.875 10.8125 12.875H10.4609C10.4609 12.2936 10.0121 11.8037 9.40625 11.6646V9.94406C9.40625 9.63534 9.57061 9.35272 9.84598 9.18794C11.0406 8.47253 11.9816 7.48253 12.5768 6.31797C14.3128 5.90184 15.3828 4.40788 15.3828 2.375C15.3828 1.85806 14.9097 1.4375 14.3281 1.4375ZM1.32031 2.375C1.32031 2.20269 1.47802 2.0625 1.67188 2.0625H2.72656V3.45937C2.72656 4.17172 2.84796 4.86928 3.08762 5.54106C1.96884 5.04847 1.32031 3.91081 1.32031 2.375ZM10.8125 13.5C11.0064 13.5 11.1641 13.6402 11.1641 13.8125V15.375H4.83594V13.8125C4.83594 13.6402 4.99365 13.5 5.1875 13.5H10.8125ZM12.5703 3.45937C12.5703 4.313 12.3791 5.14362 12.002 5.92812C11.4655 7.04428 10.5841 7.99225 9.45322 8.66953C8.98353 8.95056 8.70312 9.42703 8.70312 9.94406V11.9375C8.70312 12.1101 8.86055 12.25 9.05469 12.25C9.44239 12.25 9.75781 12.5304 9.75781 12.875H6.24219C6.24219 12.7082 6.31538 12.5513 6.44824 12.4332C6.57459 12.3208 6.74042 12.2565 6.91775 12.2505C6.92686 12.2511 6.93603 12.2514 6.94528 12.2514C7.13941 12.2514 7.29684 12.1101 7.29684 11.9375V9.9425C7.29684 9.42656 7.01661 8.95072 6.54724 8.66959C5.41623 7.99228 4.53486 7.04431 3.9983 5.92806C3.62101 5.14384 3.42969 4.31325 3.42969 3.45937V0.9375C3.42969 0.765188 3.5874 0.625 3.78125 0.625H12.2188C12.4126 0.625 12.5703 0.765188 12.5703 0.9375V3.45937ZM12.9125 5.541C13.1521 4.86906 13.2734 4.17153 13.2734 3.45937V2.0625H14.3281C14.522 2.0625 14.6797 2.20269 14.6797 2.375C14.6797 3.91072 14.0312 5.04834 12.9125 5.541Z" fill="#2343ED"/>
<path d="M10.7823 3.69263C10.7409 3.57948 10.6309 3.49701 10.4984 3.47995L8.98123 3.2842L8.30261 2.06185C8.24337 1.95517 8.12117 1.88763 7.98733 1.88763C7.85349 1.88763 7.73129 1.95517 7.67205 2.06185L6.99343 3.2842L5.47626 3.47995C5.34379 3.49704 5.23379 3.57951 5.19241 3.69263C5.15106 3.80579 5.18555 3.92998 5.28139 4.01301L6.37946 4.96426L6.12029 6.3076C6.09768 6.42485 6.15189 6.54332 6.26017 6.61326C6.36845 6.68317 6.512 6.69238 6.6304 6.63704L7.98736 6.00288L9.34464 6.63704C9.46382 6.69273 9.60729 6.68273 9.71487 6.61323C9.82312 6.54329 9.87733 6.42479 9.85469 6.30754L9.59523 4.96423L10.6933 4.01301C10.7891 3.92998 10.8236 3.80579 10.7823 3.69263ZM8.97209 4.63132C8.88923 4.70313 8.85136 4.8066 8.87098 4.90801L9.04117 5.78917L8.15091 5.3732C8.04843 5.32535 7.92609 5.32535 7.82375 5.37323L6.93377 5.78917L7.10378 4.90795C7.12333 4.80654 7.0855 4.7031 7.00264 4.63132L6.2825 4.00745L7.27745 3.87907C7.39199 3.86429 7.49099 3.80035 7.54221 3.7081L7.98736 2.90626L8.43251 3.7081C8.48373 3.80035 8.58274 3.86429 8.69727 3.87907L9.69227 4.00745L8.97209 4.63132Z" fill="#2343ED"/>
<path d="M8 14.125H6.59375C6.39962 14.125 6.24219 14.2649 6.24219 14.4375C6.24219 14.6101 6.39962 14.75 6.59375 14.75H8C8.19413 14.75 8.35156 14.6101 8.35156 14.4375C8.35156 14.2649 8.19413 14.125 8 14.125Z" fill="#2343ED"/>
<path d="M13.4144 15.0623H13.6104C13.5105 15.0447 13.4434 15.043 13.4144 15.0623Z" fill="#2343ED"/>
</svg>
