<svg width="28" height="28" viewBox="0 0 28 28" fill="none" xmlns="http://www.w3.org/2000/svg">
<path d="M26.2121 7.72912L26.3907 7.26558L22.9354 5.404L22.4519 5.49105L21.9054 5.36178L22.044 4.92369L18.2417 2.87527L17.9048 2.96088L17.2889 2.78034L17.3561 2.39811L13.7199 0.439215C13.6566 0.405546 13.5797 0.405546 13.5171 0.439767L10.0243 2.35726L10.1649 2.79866L9.74819 3.01028L9.15306 2.83553L5.42937 4.87981L5.53024 5.18239L5.05733 5.43762L4.55639 5.35907L0.926183 7.35202L1.03533 7.74711L0.874268 7.84701L13.6181 14.6471L26.4171 7.75186C26.2974 7.73894 26.2121 7.72912 26.2121 7.72912Z" fill="white"/>
<path d="M15.226 25.1704L14.7749 15.8694L13.6181 14.6468L13.3313 13.6325L2.19192 8.04311L1.19074 7.80505L0.442993 8.03478V11.4237L0.758625 11.6865L0.729533 12.2258L0.442993 12.3785V15.7787L0.632207 16.1703L0.596434 16.7119L0.443052 16.7297V20.476C0.443052 20.5434 0.482078 20.6057 0.544755 20.6389L4.12367 22.5486L4.23773 22.399L4.94953 22.8682L5.01061 23.0219L8.74456 25.0144L8.97197 24.883L9.53062 25.244L9.6315 25.4877L13.5176 27.5614C13.5519 27.5797 13.5904 27.5879 13.6282 27.5857L13.6281 27.4069L15.226 25.1704Z" fill="#A6E7F0"/>
<path d="M26.8553 7.96365L26.5217 7.85199L13.6182 14.8407L13.6282 27.5857C13.6596 27.5846 13.6897 27.5763 13.7181 27.5608L17.6048 25.4671L17.7216 25.1532L18.3629 24.8407L18.4917 24.9892L22.2256 22.9777L22.3567 22.7422L22.993 22.4422L23.1125 22.4999L26.7548 20.5378C26.8169 20.5041 26.8553 20.4423 26.8553 20.3755V16.5382L26.7149 16.5259L26.6731 15.8305L26.8553 15.5779V12.3439L26.7504 12.3223L26.6608 11.6775L26.8553 11.3925V7.96365Z" fill="#2343ED"/>
<path d="M7.04444 6.21102C10.3392 4.39298 15.644 1.47595 15.644 1.47595L13.7197 0.439215C13.6565 0.405546 13.5796 0.405546 13.5169 0.439767L10.0241 2.35726V2.69517L9.51747 2.87003L9.15287 2.83553L5.42914 4.87981L5.44528 5.12035L5.02907 5.41846L4.55615 5.35902L0.925903 7.35196L1.14764 7.74849L13.8805 14.4032L15.5438 13.5325L7.06655 9.0096C5.91164 8.39345 5.89922 6.84295 7.04444 6.21102Z" fill="white"/>
<path d="M26.9766 7.10284L25.4402 6.27518C25.2281 6.16081 24.9569 6.22876 24.8344 6.4268C24.7121 6.62484 24.7847 6.87797 24.9969 6.99228L25.9683 7.51559L22.6694 9.29278L19.1206 7.37859L22.4074 5.59727L23.3021 6.07929C23.5141 6.19349 23.7854 6.12576 23.9079 5.92767C24.0303 5.72963 23.9576 5.4765 23.7455 5.36219L13.9416 0.0804664C13.7408 -0.027717 13.4921 -0.0267234 13.2926 0.082895L3.48483 5.46689C3.27374 5.5828 3.2032 5.83648 3.32737 6.03359C3.40997 6.16473 3.55803 6.23781 3.71005 6.23776C3.78645 6.23776 3.86385 6.21932 3.93445 6.18057L4.90446 5.64805L8.14781 7.39758L4.57328 9.3435L1.32757 7.61163L2.1073 7.18359C2.31839 7.06768 2.38893 6.814 2.26476 6.61689C2.14053 6.41979 1.8686 6.354 1.65768 6.46991L0.31776 7.2055C0.121747 7.31313 0 7.51189 0 7.72412V20.476C0 20.6914 0.124408 20.8916 0.324678 20.9984L13.2978 27.9208C13.3966 27.9736 13.5073 28 13.6178 28C13.7293 28 13.8408 27.9732 13.94 27.9197L26.9765 20.8965C27.1754 20.7894 27.299 20.5897 27.299 20.3754V7.62394C27.299 7.40961 27.1754 7.20992 26.9766 7.10284ZM8.74478 12.5231V15.8694L5.01083 13.8769V10.5306L8.74478 12.5231ZM26.412 11.5764L23.1128 13.3538V10.0098L26.412 8.23241V11.5764ZM22.2259 13.8316L18.492 15.8432V12.4992L22.2259 10.4876V13.8316ZM13.1749 14.887V18.2333L9.63171 16.3426V12.9963L13.1749 14.887ZM14.0618 19.1858L17.605 17.277V20.621L14.0618 22.5298V19.1858ZM14.0618 18.2299V14.8859L17.605 12.977V16.3211L14.0618 18.2299ZM13.6173 14.1695L10.0766 12.2802L13.6295 10.3546L17.1617 12.26L13.6173 14.1695ZM4.1239 13.4037L0.886995 11.6765V8.33017L4.1239 10.0574V13.4037ZM0.886936 12.6301L4.12384 14.3573V17.7035L0.886936 15.9764V12.6301ZM5.01083 14.8306L8.74478 16.823V20.1692L5.01083 18.1768V14.8306ZM9.63171 17.2963L13.1749 19.187V22.5332L9.63171 20.6425V17.2963ZM13.1749 23.4868V26.9016L9.63171 25.0109V21.5962L13.1749 23.4868ZM14.0618 23.4857L17.605 21.5768V24.9893L14.0618 26.8981V23.4857ZM18.492 21.0991L22.2259 19.0875V22.4999L18.492 24.5115V21.0991ZM18.492 20.1431V16.7992L22.2259 14.7876V18.1315L18.492 20.1431ZM23.1128 14.3097L26.412 12.5323V15.8763L23.1128 17.6537V14.3097ZM21.7826 9.77055L18.0486 11.7822L14.5138 9.87537L18.2364 7.85786L21.7826 9.77055ZM13.6285 9.39781L9.91441 7.39438L13.6286 5.37245L17.3511 7.38031L13.6285 9.39781ZM18.2354 6.90104L14.5109 4.89214L17.7876 3.10839L21.5217 5.12005L18.2354 6.90104ZM13.6204 0.863416L16.9027 2.63166L13.6265 4.41509L10.36 2.65319L13.6204 0.863416ZM5.78306 5.16575L9.48153 3.13549L12.7443 4.8954L9.03014 6.91732L5.78306 5.16575ZM9.03214 7.87464L12.7442 9.87702L9.18653 11.8052L5.46234 9.81796L9.03214 7.87464ZM0.886936 16.93L4.12384 18.6572V19.3546C4.12384 19.5832 4.32234 19.7686 4.56731 19.7686C4.81228 19.7686 5.01078 19.5832 5.01078 19.3546V19.1305L8.74472 21.123V24.5377L5.01078 22.5452V21.3404C5.01078 21.1118 4.81228 20.9265 4.56731 20.9265C4.32234 20.9265 4.12384 21.1118 4.12384 21.3404V22.072L0.886936 20.3448V16.93ZM23.1128 22.0221V18.6097L26.412 16.8323V20.2447L23.1128 22.0221Z" fill="#0C0F23"/>
</svg>
