<svg width="14" height="14" viewBox="0 0 14 14" fill="none" xmlns="http://www.w3.org/2000/svg">
<path d="M2.8 7C2.79899 7.99152 3.1488 8.95142 3.78752 9.70981C4.42623 10.4682 5.31265 10.9762 6.2899 11.1438C7.26714 11.3114 8.27218 11.1279 9.12713 10.6258C9.98208 10.1236 10.6318 9.33517 10.9613 8.4H7V5.6H13.8635V8.4H13.86C13.2111 11.5948 10.3866 14 7 14C3.1339 14 0 10.8661 0 7C0 3.1339 3.1339 1.77405e-06 7 1.77405e-06C8.14416 -0.000813129 9.27105 0.279126 10.2818 0.815268C11.2926 1.35141 12.1564 2.12737 12.7974 3.0751L10.5028 4.6816C10.0047 3.92869 9.27722 3.35631 8.42825 3.04932C7.57928 2.74232 6.65398 2.71704 5.78952 2.97723C4.92505 3.23742 4.16743 3.76922 3.62895 4.49382C3.09046 5.21841 2.79979 6.09723 2.8 7Z" fill="white"/>
</svg>
