<svg width="16" height="16" viewBox="0 0 16 16" fill="none" xmlns="http://www.w3.org/2000/svg">
<path d="M5.50064 8C5.50064 6.61934 6.61958 5.4998 8.00024 5.4998C9.3809 5.4998 10.5004 6.61934 10.5004 8C10.5004 9.38066 9.3809 10.5002 8.00024 10.5002C6.61958 10.5002 5.50064 9.38066 5.50064 8ZM4.14908 8C4.14908 10.127 5.87324 11.8512 8.00024 11.8512C10.1272 11.8512 11.8514 10.127 11.8514 8C11.8514 5.873 10.1272 4.14884 8.00024 4.14884C5.87324 4.14884 4.14908 5.873 4.14908 8ZM11.1039 3.99614C11.1038 4.17414 11.1565 4.34817 11.2553 4.49621C11.3542 4.64426 11.4947 4.75967 11.6591 4.82785C11.8235 4.89604 12.0045 4.91393 12.1791 4.87928C12.3537 4.84462 12.5141 4.75897 12.64 4.63315C12.7659 4.50733 12.8517 4.347 12.8865 4.17243C12.9213 3.99787 12.9035 3.8169 12.8355 3.65242C12.7674 3.48794 12.6521 3.34733 12.5042 3.24838C12.3562 3.14943 12.1822 3.09657 12.0042 3.0965H12.0039C11.7653 3.09661 11.5365 3.19142 11.3677 3.3601C11.199 3.52878 11.1041 3.75754 11.1039 3.99614ZM4.97024 14.1048C4.23902 14.0715 3.84158 13.9497 3.57746 13.8468C3.2273 13.7105 2.97746 13.5481 2.71478 13.2858C2.4521 13.0235 2.2895 12.7739 2.15378 12.4237C2.05082 12.1597 1.92902 11.7622 1.89578 11.031C1.85942 10.2404 1.85216 10.0029 1.85216 8.00006C1.85216 5.9972 1.86002 5.76038 1.89578 4.96916C1.92908 4.23794 2.05178 3.84116 2.15378 3.57638C2.2901 3.22622 2.45246 2.97638 2.71478 2.7137C2.9771 2.45102 3.2267 2.28842 3.57746 2.1527C3.84146 2.04974 4.23902 1.92794 4.97024 1.8947C5.7608 1.85834 5.99828 1.85108 8.00024 1.85108C10.0022 1.85108 10.2399 1.85894 11.0311 1.8947C11.7624 1.928 12.1591 2.0507 12.4239 2.1527C12.7741 2.28842 13.0239 2.45138 13.2866 2.7137C13.5493 2.97602 13.7113 3.22622 13.8476 3.57638C13.9506 3.84038 14.0724 4.23794 14.1056 4.96916C14.142 5.76038 14.1492 5.9972 14.1492 8.00006C14.1492 10.0029 14.142 10.2397 14.1056 11.031C14.0723 11.7622 13.9499 12.1596 13.8476 12.4237C13.7113 12.7739 13.5489 13.0237 13.2866 13.2858C13.0243 13.5479 12.7741 13.7105 12.4239 13.8468C12.1599 13.9498 11.7624 14.0716 11.0311 14.1048C10.2406 14.1412 10.0031 14.1484 8.00024 14.1484C5.99738 14.1484 5.76056 14.1412 4.97024 14.1048ZM4.90814 0.54542C4.10972 0.58178 3.56414 0.70838 3.08768 0.89378C2.59424 1.08524 2.17652 1.3421 1.7591 1.75886C1.34168 2.17562 1.08548 2.594 0.894024 3.08744C0.708624 3.5642 0.582024 4.10948 0.545664 4.9079C0.508704 5.70758 0.500244 5.96324 0.500244 8C0.500244 10.0368 0.508704 10.2924 0.545664 11.0921C0.582024 11.8906 0.708624 12.4358 0.894024 12.9126C1.08548 13.4057 1.34174 13.8246 1.7591 14.2411C2.17646 14.6577 2.59424 14.9142 3.08768 15.1062C3.56504 15.2916 4.10972 15.4182 4.90814 15.4546C5.70824 15.4909 5.96348 15.5 8.00024 15.5C10.037 15.5 10.2927 15.4915 11.0923 15.4546C11.8908 15.4182 12.436 15.2916 12.9128 15.1062C13.4059 14.9142 13.824 14.6579 14.2414 14.2411C14.6588 13.8244 14.9145 13.4057 15.1065 12.9126C15.2919 12.4358 15.4191 11.8905 15.4548 11.0921C15.4912 10.2918 15.4996 10.0368 15.4996 8C15.4996 5.96324 15.4912 5.70758 15.4548 4.9079C15.4185 4.10942 15.2919 3.5639 15.1065 3.08744C14.9145 2.5943 14.6581 2.17628 14.2414 1.75886C13.8246 1.34144 13.4059 1.08524 12.9134 0.89378C12.436 0.70838 11.8908 0.58118 11.0929 0.54542C10.2933 0.50906 10.0376 0.5 8.00084 0.5C5.96408 0.5 5.70824 0.50846 4.90814 0.54542Z" fill="white"/>
</svg>
