<svg width="14" height="16" viewBox="0 0 14 16" fill="none" xmlns="http://www.w3.org/2000/svg">
<path d="M12.5714 6.99976H11.4286V3.99976C11.4286 1.79976 9.37143 -0.000244141 6.85714 -0.000244141C4.34286 -0.000244141 2.28571 1.79976 2.28571 3.99976V6.99976H1.14286C0.571429 6.99976 0 7.49976 0 7.99976V14.9998C0 15.4998 0.571429 15.9998 1.14286 15.9998H12.5714C13.1429 15.9998 13.7143 15.4998 13.7143 14.9998V7.99976C13.7143 7.49976 13.1429 6.99976 12.5714 6.99976ZM8 13.9998H5.71429L6.17143 11.7998C5.6 11.5998 5.14286 10.9998 5.14286 10.4998C5.14286 9.69976 5.94286 8.99976 6.85714 8.99976C7.77143 8.99976 8.57143 9.69976 8.57143 10.4998C8.57143 11.0998 8.22857 11.5998 7.54286 11.7998L8 13.9998ZM9.14286 6.99976H4.57143V3.99976C4.57143 2.89976 5.6 1.99976 6.85714 1.99976C8.11429 1.99976 9.14286 2.89976 9.14286 3.99976V6.99976Z" fill="#5D8FF0"/>
</svg>
