<svg width="130" height="38" viewBox="0 0 130 38" fill="none" xmlns="http://www.w3.org/2000/svg">
<path d="M47.1983 31.8165C42.3994 31.8165 40 30.1643 40 26.8598V22.8607C40 19.3684 42.3994 17.6223 47.1983 17.6223C48.8103 17.6223 50.5149 17.7631 52.3121 18.0448V20.1288C50.4963 19.6782 48.8102 19.4529 47.2539 19.4529C46.661 19.4529 46.1607 19.4811 45.7531 19.5374C45.3454 19.575 44.9378 19.6594 44.5302 19.7909C44.0855 19.9223 43.7242 20.1101 43.4463 20.3541C43.1869 20.5982 42.9738 20.9174 42.8071 21.3117C42.6218 21.706 42.5291 22.1941 42.5291 22.7762V26.888C42.5291 28.9908 44.1411 30.0423 47.365 30.0423C48.0876 30.0423 49.0882 29.9484 50.3666 29.7606V25.9304H46.5591V24.0998H52.729V31.197C51.0244 31.61 49.1808 31.8165 47.1983 31.8165Z" fill="white"/>
<path d="M60.9817 17.9039H64.0944L69.9865 31.5349H67.2628L65.9287 28.2398H58.8416L57.5076 31.5349H54.9229L60.9817 17.9039ZM65.1783 26.4374L62.5103 19.9035H62.2601L59.592 26.4374H65.1783Z" fill="white"/>
<path d="M73.0167 17.9039H77.0466L81.1322 29.0002H81.2433L85.0509 17.9039H88.9419V31.5349H86.6351V20.2133H86.4961L82.355 31.5349H79.8259L75.5181 20.2133H75.3791V31.5349H73.0167V17.9039Z" fill="white"/>
<path d="M93.6169 17.9039H96.1182V31.5349H93.6169V17.9039Z" fill="white"/>
<path d="M100.782 17.9039H104.312L110.787 28.9157V17.9039H113.15V31.5349H109.62L103.145 20.2697V31.5349H100.782V17.9039Z" fill="white"/>
<path d="M124.469 31.8165C119.67 31.8165 117.271 30.1643 117.271 26.8598V22.8607C117.271 19.3684 119.67 17.6223 124.469 17.6223C126.081 17.6223 127.786 17.7631 129.583 18.0448V20.1288C127.767 19.6782 126.081 19.4529 124.525 19.4529C123.932 19.4529 123.432 19.4811 123.024 19.5374C122.616 19.575 122.209 19.6594 121.801 19.7909C121.356 19.9223 120.995 20.1101 120.717 20.3541C120.458 20.5982 120.245 20.9174 120.078 21.3117C119.893 21.706 119.8 22.1941 119.8 22.7762V26.888C119.8 28.9908 121.412 30.0423 124.636 30.0423C125.359 30.0423 126.359 29.9484 127.638 29.7606V25.9304H123.83V24.0998H130V31.197C128.295 31.61 126.452 31.8165 124.469 31.8165Z" fill="white"/>
<path d="M40.5306 5.06663H45.1694C45.8163 5.06663 46.3216 5.12295 46.6854 5.2356C47.0492 5.34826 47.312 5.54284 47.4737 5.81935C47.6354 6.09586 47.7163 6.48502 47.7163 6.98684V7.78565C47.7163 8.34891 47.5546 8.75856 47.2312 9.01459C46.9179 9.27062 46.4327 9.42936 45.7758 9.4908L48.3226 12.5017H45.6849L43.6535 9.82876H42.7439V12.5017H40.5306V5.06663ZM44.2144 8.41548C45.0734 8.41548 45.503 8.15433 45.503 7.63203V7.20191C45.503 6.92539 45.3918 6.73081 45.1694 6.61816C44.9471 6.50551 44.5732 6.44918 44.0476 6.44918H42.7439V8.41548H44.2144Z" fill="white"/>
<path d="M53.3338 5.06663H55.5775L58.9732 12.5017H56.6235L56.0626 11.1191H52.8032L52.2575 12.5017H50.029L53.3338 5.06663ZM55.4713 9.6905L54.4102 7.04829L53.3642 9.6905H55.4713Z" fill="white"/>
<path d="M62.2481 9.70587L59.095 5.06663H61.4599L63.3245 8.13897L65.1891 5.06663H67.6298L64.4615 9.65978V12.5017H62.2481V9.70587Z" fill="white"/>
<path d="M34.8453 0L23.515 15.6105L22.6895 16.715L21.7192 18.0172L21.6238 18.0263L16.9265 12.366L17.7657 11.2361L24.2021 2.60949L34.8453 0Z" fill="white"/>
<g style="mix-blend-mode:multiply" opacity="0.16">
<g style="mix-blend-mode:multiply" opacity="0.16">
<path d="M23.5151 15.6105L21.7193 18.0169L21.6239 18.026L16.9266 12.366L17.7653 11.2361C19.2257 12.339 21.6844 14.2091 23.5151 15.6105Z" fill="white"/>
</g>
</g>
<path d="M13.4681 8.20165L21.6237 18.0246L13.0368 18.9136L9.039 14.0984L13.4681 8.20165Z" fill="white"/>
<g style="mix-blend-mode:screen" opacity="0.3">
<g style="mix-blend-mode:screen" opacity="0.3">
<path d="M13.468 8.20165L20.965 17.2317C21.0281 17.3211 21.0881 17.4074 21.1473 17.4988C20.7833 17.1362 20.4354 16.7652 20.0808 16.3932C19.7329 16.0222 19.374 15.6512 19.0381 15.2752C18.6915 14.8991 18.3518 14.5241 18.0129 14.1436C17.6808 13.7645 17.3411 13.3895 17.0103 13.005C16.3478 12.2406 15.695 11.472 15.0518 10.6995C14.5137 10.0654 13.9934 9.41787 13.4714 8.77706C12.8201 9.60896 12.1572 10.4371 11.4828 11.2614C11.086 11.74 10.6956 12.2195 10.28 12.6893C9.87132 13.1615 9.46771 13.6377 9.04026 14.1001L13.468 8.20165Z" fill="white"/>
</g>
</g>
<g style="mix-blend-mode:screen" opacity="0.15">
<g style="mix-blend-mode:screen">
<path d="M25.0043 3.04427L33.6008 0.636258L23.5963 13.7357L25.0043 3.04427Z" fill="white"/>
</g>
</g>
<g style="mix-blend-mode:screen" opacity="0.15">
<g style="mix-blend-mode:screen">
<path d="M9.83976 14.1138L13.514 9.93643L19.8951 17.1917L9.83976 14.1138Z" fill="white"/>
</g>
</g>
<path d="M4.95911e-05 38L11.3304 22.3895L12.1559 21.285L13.1262 19.9828L13.2215 19.9737L17.9188 25.634L17.0797 26.7639L10.6432 35.3905L4.95911e-05 38Z" fill="white"/>
<g style="mix-blend-mode:multiply" opacity="0.16">
<g style="mix-blend-mode:multiply" opacity="0.16">
<path d="M11.3303 22.3895L13.1261 19.9831L13.2215 19.974L17.9187 25.634L17.08 26.7639C15.6197 25.661 13.161 23.7909 11.3303 22.3895Z" fill="white"/>
</g>
</g>
<path d="M21.3773 29.7984L13.2217 19.9754L21.8086 19.0864L25.8064 23.9016L21.3773 29.7984Z" fill="white"/>
<g style="mix-blend-mode:screen" opacity="0.3">
<g style="mix-blend-mode:screen" opacity="0.3">
<path d="M21.3773 29.7984L13.8803 20.7683C13.8173 20.6789 13.7573 20.5926 13.6981 20.5012C14.0621 20.8638 14.4099 21.2348 14.7646 21.6068C15.1124 21.9778 15.4713 22.3488 15.8072 22.7248C16.1538 23.1009 16.4936 23.4759 16.8324 23.8564C17.1645 24.2355 17.5043 24.6105 17.8351 24.995C18.4975 25.7594 19.1503 26.528 19.7935 27.3005C20.3317 27.9346 20.8519 28.5821 21.3739 29.2229C22.0253 28.391 22.6882 27.5629 23.3626 26.7386C23.7594 26.26 24.1498 25.7805 24.5653 25.3107C24.974 24.8385 25.3776 24.3623 25.8051 23.8999L21.3773 29.7984Z" fill="white"/>
</g>
</g>
<g style="mix-blend-mode:screen" opacity="0.15">
<g style="mix-blend-mode:screen">
<path d="M9.84107 34.9557L1.24451 37.3637L11.249 24.2643L9.84107 34.9557Z" fill="white"/>
</g>
</g>
<g style="mix-blend-mode:screen" opacity="0.15">
<g style="mix-blend-mode:screen">
<path d="M25.0056 23.8862L21.3314 28.0636L14.9503 20.8083L25.0056 23.8862Z" fill="white"/>
</g>
</g>
</svg>
