<svg width="29" height="28" viewBox="0 0 29 28" fill="none" xmlns="http://www.w3.org/2000/svg">
<g clip-path="url(#clip0)">
<path d="M14.2988 27.4531C21.7288 27.4531 27.752 21.43 27.752 14C27.752 6.57004 21.7288 0.546875 14.2988 0.546875C6.86887 0.546875 0.845703 6.57004 0.845703 14C0.845703 21.43 6.86887 27.4531 14.2988 27.4531Z" fill="#2343ED"/>
<path d="M14.2988 24.7188C20.2186 24.7188 25.0176 19.9198 25.0176 14C25.0176 8.0802 20.2186 3.28125 14.2988 3.28125C8.37903 3.28125 3.58008 8.0802 3.58008 14C3.58008 19.9198 8.37903 24.7188 14.2988 24.7188Z" fill="#FF7B79"/>
<path d="M13.2049 15.8943L8.95557 23.2939C10.5285 24.2001 12.353 24.7186 14.2986 24.7186V16.1873L13.2049 15.8943Z" fill="white"/>
<path d="M13.2049 12.1056L8.95557 4.70591C10.5285 3.79974 12.353 3.28125 14.2986 3.28125V11.8125L13.2049 12.1056Z" fill="#132061"/>
<path d="M15.3926 15.8943L19.6419 23.2939C18.069 24.2001 16.2445 24.7186 14.2988 24.7186V16.1873L15.3926 15.8943Z" fill="#132061"/>
<path d="M15.3926 12.1055L19.6762 4.72572C21.2474 5.63479 22.6087 6.95561 23.5815 8.64064L16.1933 12.9063L15.3926 12.1055Z" fill="#132061"/>
<path d="M13.2051 15.8944L8.92146 23.2742C7.35023 22.3652 5.98895 21.0444 5.01611 19.3594L12.4044 15.0938L13.2051 15.8944Z" fill="#132061"/>
<path d="M12.4044 15.0938L5.00474 19.3431C4.09857 17.7702 3.58008 15.9457 3.58008 14H12.1113L12.4044 15.0938Z" fill="white"/>
<path d="M16.1931 12.9064L23.5928 8.6571C24.4989 10.23 25.0174 12.0545 25.0174 14.0002H16.4862L16.1931 12.9064Z" fill="white"/>
<path d="M15.3926 12.1056L19.6419 4.70591C18.069 3.79974 16.2445 3.28125 14.2988 3.28125V11.8125L15.3926 12.1056Z" fill="white"/>
<path d="M15.3926 15.8944L19.6762 23.2742C21.2474 22.3652 22.6087 21.0444 23.5815 19.3594L16.1933 15.0938L15.3926 15.8944Z" fill="#D5EA79"/>
<path d="M15.3926 15.8397L19.6762 23.2195C21.2474 22.3105 22.6087 20.9897 23.5815 19.3047L16.1933 15.0391L15.3926 15.8397Z" fill="#D5EA79"/>
<path d="M15.3379 15.8397L19.6215 23.2195C21.1927 22.3105 22.554 20.9897 23.5269 19.3047L16.1386 15.0391L15.3379 15.8397Z" fill="white"/>
<path d="M13.2051 12.1054L8.92146 4.72559C7.35023 5.63471 5.98895 6.95552 5.01611 8.6405L12.4044 12.9061L13.2051 12.1054Z" fill="#D5EA79"/>
<path d="M13.2051 12.0508L8.92146 4.6709C7.35023 5.58002 5.98895 6.90084 5.01611 8.58581L12.4044 12.8514L13.2051 12.0508Z" fill="#D5EA79"/>
<path d="M13.1504 12.0508L8.86677 4.6709C7.29554 5.58002 5.93426 6.90084 4.96143 8.58581L12.3497 12.8514L13.1504 12.0508Z" fill="white"/>
<path d="M12.4044 12.9064L5.00474 8.6571C4.09857 10.23 3.58008 12.0545 3.58008 14.0002H12.1113L12.4044 12.9064Z" fill="#132061"/>
<path d="M16.1931 15.0938L23.5928 19.3431C24.4989 17.7702 25.0174 15.9457 25.0174 14H16.4862L16.1931 15.0938Z" fill="#132061"/>
<path d="M14.2988 16.1875C15.507 16.1875 16.4863 15.2081 16.4863 14C16.4863 12.7919 15.507 11.8125 14.2988 11.8125C13.0907 11.8125 12.1113 12.7919 12.1113 14C12.1113 15.2081 13.0907 16.1875 14.2988 16.1875Z" fill="#2343ED"/>
<path d="M25.8341 6.06446C25.6626 5.8158 25.3221 5.75318 25.0735 5.92452C24.8248 6.09591 24.7621 6.43639 24.9335 6.68511C26.4196 8.84133 27.2051 11.3708 27.2051 14C27.2051 21.1165 21.4154 26.9062 14.2988 26.9062C7.18229 26.9062 1.39258 21.1165 1.39258 14C1.39258 6.88346 7.18229 1.09375 14.2988 1.09375C16.9251 1.09375 19.4523 1.8777 21.6071 3.36077C21.8559 3.53199 22.1964 3.4691 22.3676 3.22038C22.5389 2.97155 22.476 2.63107 22.2273 2.45984C19.8892 0.850609 17.1476 0 14.2988 0C10.5593 0 7.0436 1.45627 4.3993 4.10047C1.7551 6.74477 0.298828 10.2605 0.298828 14C0.298828 17.7395 1.7551 21.2552 4.3993 23.8995C7.0436 26.5437 10.5593 28 14.2988 28C18.0384 28 21.5541 26.5437 24.1984 23.8995C26.8426 21.2552 28.2988 17.7395 28.2988 14C28.2988 11.1481 27.4465 8.40405 25.8341 6.06446Z" fill="white"/>
<path d="M14.2988 2.73438C8.08693 2.73438 3.0332 7.7881 3.0332 14C3.0332 20.2119 8.08693 25.2656 14.2988 25.2656C20.5107 25.2656 25.5645 20.2119 25.5645 14C25.5645 7.7881 20.5107 2.73438 14.2988 2.73438ZM22.8186 8.4496L16.344 12.1878C16.2711 12.1056 16.1933 12.0278 16.1111 11.9549L19.8492 5.48018C21.0324 6.25357 22.0453 7.26644 22.8186 8.4496ZM24.4559 13.4531H16.9782C16.956 13.3443 16.9267 13.2381 16.8919 13.1343L23.3674 9.3957C23.9945 10.6257 24.3785 11.9994 24.4559 13.4531ZM23.3674 18.6043L16.8919 14.8657C16.9267 14.762 16.956 14.6558 16.9782 14.5469H24.4559C24.3785 16.0006 23.9945 17.3743 23.3674 18.6043ZM4.14177 14.5469H11.6195C11.6417 14.6557 11.671 14.7619 11.7058 14.8657L5.23022 18.6043C4.60317 17.3743 4.21916 16.0006 4.14177 14.5469ZM5.23022 9.3957L11.7057 13.1343C11.671 13.2381 11.6417 13.3442 11.6195 13.4531H4.14177C4.21916 11.9994 4.60317 10.6257 5.23022 9.3957ZM14.2988 15.6406C13.3942 15.6406 12.6582 14.9046 12.6582 14C12.6582 13.0954 13.3942 12.3594 14.2988 12.3594C15.2035 12.3594 15.9395 13.0954 15.9395 14C15.9395 14.9046 15.2035 15.6406 14.2988 15.6406ZM14.8457 11.3206V3.84295C16.2994 3.92033 17.6731 4.3044 18.9031 4.93139L15.1645 11.4069C15.0607 11.3722 14.9545 11.3428 14.8457 11.3206ZM13.752 11.3206C13.6431 11.3428 13.5369 11.3722 13.4331 11.4069L9.69452 4.93139C10.9246 4.30434 12.2982 3.92033 13.752 3.84295V11.3206ZM13.752 16.6794V24.1571C12.2982 24.0797 10.9246 23.6957 9.69452 23.0687L13.4331 16.5932C13.5369 16.6278 13.6431 16.6572 13.752 16.6794ZM14.8457 16.6794C14.9545 16.6572 15.0607 16.6278 15.1645 16.5931L18.9031 23.0686C17.6731 23.6957 16.2995 24.0797 14.8457 24.1571V16.6794ZM8.74843 5.48018L12.4866 11.9549C12.4044 12.0278 12.3266 12.1055 12.2537 12.1878L5.77901 8.4496C6.5524 7.26644 7.56527 6.25357 8.74843 5.48018ZM5.77901 19.5504L12.2537 15.8123C12.3266 15.8945 12.4043 15.9723 12.4866 16.0452L8.74843 22.5199C7.56527 21.7464 6.5524 20.7336 5.77901 19.5504ZM19.8492 22.5198L16.1111 16.0451C16.1933 15.9722 16.2711 15.8945 16.344 15.8122L22.8187 19.5503C22.0453 20.7336 21.0324 21.7464 19.8492 22.5198Z" fill="black"/>
<path d="M11.7158 6.16551C11.8181 6.26717 11.9587 6.32574 12.103 6.32574C12.2463 6.32574 12.3874 6.26723 12.4897 6.16551C12.5914 6.06379 12.6499 5.9227 12.6499 5.77887C12.6499 5.63504 12.5914 5.49395 12.4897 5.39223C12.3874 5.28996 12.2469 5.23199 12.103 5.23199C11.9587 5.23199 11.8176 5.28996 11.7158 5.39223C11.6142 5.49395 11.5562 5.63455 11.5562 5.77887C11.5562 5.9227 11.6141 6.06379 11.7158 6.16551Z" fill="black"/>
<path d="M16.8955 21.8345C16.7938 21.7328 16.6527 21.6742 16.5089 21.6742C16.3651 21.6742 16.224 21.7327 16.1223 21.8345C16.0206 21.9362 15.962 22.0773 15.962 22.2211C15.962 22.3649 16.0205 22.506 16.1223 22.6077C16.224 22.71 16.3651 22.768 16.5089 22.768C16.6527 22.768 16.7938 22.71 16.8955 22.6077C16.9972 22.506 17.0558 22.3649 17.0558 22.2211C17.0558 22.0773 16.9973 21.9362 16.8955 21.8345Z" fill="black"/>
<path d="M22.1405 12.1836C22.2422 12.2853 22.3833 12.3438 22.5271 12.3438C22.6709 12.3438 22.812 12.2853 22.9137 12.1836C23.0154 12.0819 23.074 11.9408 23.074 11.797C23.074 11.6531 23.0155 11.512 22.9137 11.4103C22.812 11.3087 22.6709 11.2501 22.5271 11.2501C22.3833 11.2501 22.2422 11.3086 22.1405 11.4103C22.0388 11.512 21.9802 11.6531 21.9802 11.797C21.9802 11.9408 22.0387 12.0819 22.1405 12.1836Z" fill="black"/>
<path d="M6.47081 15.8164C6.36915 15.7147 6.22855 15.6562 6.08423 15.6562C5.9404 15.6562 5.79931 15.7146 5.69759 15.8164C5.59587 15.9181 5.53735 16.0592 5.53735 16.203C5.53735 16.3469 5.59581 16.488 5.69759 16.5896C5.79931 16.6913 5.9404 16.7499 6.08423 16.7499C6.2286 16.7499 6.36915 16.6914 6.47081 16.5896C6.57308 16.488 6.6311 16.3469 6.6311 16.203C6.6311 16.0592 6.57308 15.9181 6.47081 15.8164Z" fill="black"/>
<path d="M8.28753 8.52831C8.43136 8.52831 8.57191 8.46979 8.67412 8.36802C8.77584 8.26635 8.83441 8.12526 8.83441 7.98143C8.83441 7.83755 8.77589 7.69651 8.67412 7.59479C8.57246 7.49307 8.43136 7.43456 8.28753 7.43456C8.1431 7.43456 8.00201 7.49302 7.90089 7.59479C7.79863 7.69651 7.74011 7.83706 7.74011 7.98143C7.74011 8.12526 7.79863 8.26635 7.90089 8.36802C8.00261 8.46979 8.1431 8.52831 8.28753 8.52831Z" fill="black"/>
<path d="M20.3243 19.4717C20.1805 19.4717 20.0394 19.5302 19.9377 19.6319C19.836 19.7336 19.7775 19.8747 19.7775 20.0186C19.7775 20.1624 19.836 20.3035 19.9377 20.4052C20.0394 20.5069 20.1805 20.5654 20.3243 20.5654C20.4682 20.5654 20.6093 20.5069 20.711 20.4052C20.8126 20.3035 20.8712 20.1624 20.8712 20.0186C20.8712 19.8747 20.8127 19.7336 20.711 19.6319C20.6093 19.5302 20.4682 19.4717 20.3243 19.4717Z" fill="black"/>
<path d="M19.7775 7.98143C19.7775 8.12526 19.836 8.26635 19.9377 8.36802C20.0394 8.46974 20.1805 8.52831 20.3243 8.52831C20.4682 8.52831 20.6093 8.46979 20.711 8.36802C20.8126 8.26635 20.8712 8.12526 20.8712 7.98143C20.8712 7.83755 20.8127 7.69651 20.711 7.59479C20.6093 7.49307 20.4682 7.43456 20.3243 7.43456C20.1805 7.43456 20.0394 7.49302 19.9377 7.59479C19.836 7.69651 19.7775 7.83755 19.7775 7.98143Z" fill="black"/>
<path d="M8.83441 20.0186C8.83441 19.8747 8.77589 19.7336 8.67412 19.6319C8.57191 19.5303 8.43136 19.4717 8.28753 19.4717C8.1431 19.4717 8.00261 19.5302 7.90089 19.6319C7.79863 19.7336 7.74011 19.8747 7.74011 20.0186C7.74011 20.1624 7.79863 20.3035 7.90089 20.4052C8.00206 20.5069 8.14316 20.5654 8.28753 20.5654C8.43136 20.5654 8.57246 20.5069 8.67412 20.4052C8.77589 20.3035 8.83441 20.1624 8.83441 20.0186Z" fill="black"/>
<path d="M5.69759 12.1836C5.79931 12.2853 5.9404 12.3438 6.08423 12.3438C6.2286 12.3438 6.36915 12.2853 6.47081 12.1836C6.57308 12.0819 6.6311 11.9408 6.6311 11.797C6.6311 11.6531 6.57308 11.512 6.47081 11.4103C6.36915 11.3087 6.22855 11.2501 6.08423 11.2501C5.9404 11.2501 5.79931 11.3086 5.69759 11.4103C5.59587 11.512 5.53735 11.6531 5.53735 11.797C5.53735 11.9408 5.59581 12.0819 5.69759 12.1836Z" fill="black"/>
<path d="M22.9137 15.8164C22.812 15.7147 22.6709 15.6562 22.5271 15.6562C22.3833 15.6562 22.2422 15.7146 22.1405 15.8164C22.0388 15.9181 21.9802 16.0592 21.9802 16.203C21.9802 16.3469 22.0387 16.488 22.1405 16.5896C22.2422 16.6913 22.3833 16.7499 22.5271 16.7499C22.6709 16.7499 22.812 16.6914 22.9137 16.5896C23.0154 16.488 23.074 16.3469 23.074 16.203C23.074 16.0592 23.0155 15.9181 22.9137 15.8164Z" fill="black"/>
<path d="M16.8955 5.39223C16.7938 5.28996 16.6527 5.23199 16.5089 5.23199C16.3651 5.23199 16.224 5.28996 16.1223 5.39223C16.0206 5.49395 15.962 5.63455 15.962 5.77887C15.962 5.9227 16.0205 6.06379 16.1223 6.16551C16.224 6.26717 16.3651 6.32574 16.5089 6.32574C16.6527 6.32574 16.7938 6.26723 16.8955 6.16551C16.9972 6.06324 17.0558 5.9227 17.0558 5.77887C17.0558 5.63504 16.9973 5.49395 16.8955 5.39223Z" fill="black"/>
<path d="M11.7158 22.6077C11.8176 22.71 11.9587 22.768 12.103 22.768C12.2469 22.768 12.3874 22.71 12.4897 22.6077C12.5914 22.506 12.6499 22.3649 12.6499 22.2211C12.6499 22.0773 12.5914 21.9362 12.4897 21.8345C12.3874 21.7328 12.2469 21.6742 12.103 21.6742C11.9587 21.6742 11.8181 21.7327 11.7158 21.8345C11.6142 21.9362 11.5562 22.0773 11.5562 22.2211C11.5562 22.3655 11.6141 22.506 11.7158 22.6077Z" fill="black"/>
<path d="M23.809 5.03125C23.9528 5.03125 24.0933 4.97273 24.1956 4.87096C24.2973 4.7693 24.3553 4.6282 24.3553 4.48438C24.3553 4.34055 24.2974 4.19945 24.1956 4.09773C24.0939 3.99602 23.9528 3.9375 23.809 3.9375C23.6646 3.9375 23.524 3.99596 23.4218 4.09773C23.3201 4.19945 23.2621 4.34055 23.2621 4.48438C23.2621 4.6282 23.3201 4.7693 23.4218 4.87096C23.5241 4.97273 23.6646 5.03125 23.809 5.03125Z" fill="black"/>
</g>
<defs>
<clipPath id="clip0">
<rect width="28" height="28" fill="white" transform="translate(0.298828)"/>
</clipPath>
</defs>
</svg>
