<svg width="48" height="30" viewBox="0 0 48 30" fill="none" xmlns="http://www.w3.org/2000/svg">
<path d="M29.9239 25.9455H17.1825V3.10669H29.9239V25.9455Z" fill="#FF5F00"/>
<path d="M17.9988 14.5244C17.9988 9.89141 20.1737 5.76449 23.5605 3.10495C21.0838 1.16016 17.9581 -0.000624651 14.5611 -0.000624651C6.51902 -0.000624651 0 6.50234 0 14.5244C0 22.5464 6.51902 29.0494 14.5611 29.0494C17.9581 29.0494 21.0838 27.8886 23.5605 25.9438C20.1737 23.2843 17.9988 19.1573 17.9988 14.5244Z" fill="#EB001B"/>
<path d="M47.1083 14.5244C47.1083 22.5464 40.5893 29.0494 32.5472 29.0494C29.1502 29.0494 26.0245 27.8886 23.5469 25.9438C26.9346 23.2843 29.1095 19.1573 29.1095 14.5244C29.1095 9.89141 26.9346 5.76449 23.5469 3.10495C26.0245 1.16016 29.1502 -0.000624651 32.5472 -0.000624651C40.5893 -0.000624651 47.1083 6.50234 47.1083 14.5244Z" fill="#F79E1B"/>
<path d="M10.9572 14.616C10.9572 13.9815 11.374 13.4603 12.0552 13.4603C12.706 13.4603 13.1454 13.959 13.1454 14.616C13.1454 15.2729 12.706 15.7716 12.0552 15.7716C11.374 15.7716 10.9572 15.2504 10.9572 14.616ZM13.8873 14.616V12.8112H13.1004V13.2494C12.8508 12.9244 12.4721 12.7204 11.9573 12.7204C10.9425 12.7204 10.1469 13.5139 10.1469 14.616C10.1469 15.7189 10.9425 16.5115 11.9573 16.5115C12.4721 16.5115 12.8508 16.3075 13.1004 15.9825V16.4208H13.8873V14.616ZM40.4789 14.616C40.4789 13.9815 40.8958 13.4603 41.5769 13.4603C42.2286 13.4603 42.6671 13.959 42.6671 14.616C42.6671 15.2729 42.2286 15.7716 41.5769 15.7716C40.8958 15.7716 40.4789 15.2504 40.4789 14.616ZM43.4098 14.616V11.3616H42.6221V13.2494C42.3725 12.9244 41.9938 12.7204 41.479 12.7204C40.4642 12.7204 39.6686 13.5139 39.6686 14.616C39.6686 15.7189 40.4642 16.5115 41.479 16.5115C41.9938 16.5115 42.3725 16.3075 42.6221 15.9825V16.4208H43.4098V14.616ZM23.655 13.4231C24.162 13.4231 24.4879 13.7404 24.5711 14.2987H22.6931C22.7771 13.7775 23.0943 13.4231 23.655 13.4231ZM23.6706 12.7204C22.6099 12.7204 21.868 13.4906 21.868 14.616C21.868 15.7639 22.6402 16.5115 23.7235 16.5115C24.2686 16.5115 24.7678 16.3758 25.2072 16.0059L24.8215 15.4242C24.5182 15.6653 24.1317 15.8019 23.7686 15.8019C23.2616 15.8019 22.7997 15.5676 22.6861 14.9176H25.3736C25.3814 14.82 25.3892 14.7214 25.3892 14.616C25.3814 13.4906 24.6846 12.7204 23.6706 12.7204ZM33.1724 14.616C33.1724 13.9815 33.5892 13.4603 34.2704 13.4603C34.9212 13.4603 35.3606 13.959 35.3606 14.616C35.3606 15.2729 34.9212 15.7716 34.2704 15.7716C33.5892 15.7716 33.1724 15.2504 33.1724 14.616ZM36.1024 14.616V12.8112H35.3155V13.2494C35.0651 12.9244 34.6872 12.7204 34.1724 12.7204C33.1576 12.7204 32.3621 13.5139 32.3621 14.616C32.3621 15.7189 33.1576 16.5115 34.1724 16.5115C34.6872 16.5115 35.0651 16.3075 35.3155 15.9825V16.4208H36.1024V14.616ZM28.7283 14.616C28.7283 15.7111 29.4927 16.5115 30.6591 16.5115C31.2042 16.5115 31.5674 16.3905 31.9608 16.0811L31.583 15.4466C31.2874 15.6584 30.9772 15.7716 30.6357 15.7716C30.0074 15.7639 29.5455 15.3109 29.5455 14.616C29.5455 13.921 30.0074 13.4681 30.6357 13.4603C30.9772 13.4603 31.2874 13.5735 31.583 13.7853L31.9608 13.1509C31.5674 12.8414 31.2042 12.7204 30.6591 12.7204C29.4927 12.7204 28.7283 13.5208 28.7283 14.616ZM38.8739 12.7204C38.4198 12.7204 38.1243 12.9322 37.9198 13.2494V12.8112H37.1398V16.4208H37.9276V14.3973C37.9276 13.8 38.1849 13.4681 38.6997 13.4681C38.8592 13.4681 39.0256 13.4906 39.192 13.5588L39.4346 12.8189C39.2604 12.7507 39.0334 12.7204 38.8739 12.7204ZM17.7793 13.0981C17.4006 12.8492 16.8789 12.7204 16.3034 12.7204C15.3865 12.7204 14.7964 13.1586 14.7964 13.8761C14.7964 14.4647 15.2357 14.8277 16.0452 14.941L16.417 14.9937C16.8485 15.0542 17.0522 15.1674 17.0522 15.3714C17.0522 15.6506 16.7645 15.8097 16.2272 15.8097C15.6821 15.8097 15.2886 15.6359 15.0234 15.4319L14.6525 16.043C15.0841 16.3603 15.6292 16.5115 16.2194 16.5115C17.2645 16.5115 17.8703 16.0206 17.8703 15.3334C17.8703 14.699 17.3936 14.367 16.6059 14.2538L16.235 14.2002C15.8944 14.1553 15.6214 14.0878 15.6214 13.8458C15.6214 13.5813 15.8788 13.4231 16.3104 13.4231C16.7723 13.4231 17.2195 13.5969 17.4387 13.7326L17.7793 13.0981ZM27.9327 12.7204C27.4786 12.7204 27.1831 12.9322 26.9794 13.2494V12.8112H26.1995V16.4208H26.9864V14.3973C26.9864 13.8 27.2437 13.4681 27.7585 13.4681C27.918 13.4681 28.0844 13.4906 28.2508 13.5588L28.4934 12.8189C28.3192 12.7507 28.0922 12.7204 27.9327 12.7204ZM21.2172 12.8112H19.9303V11.716H19.1347V12.8112H18.4007V13.5286H19.1347V15.1752C19.1347 16.0128 19.4606 16.5115 20.3913 16.5115C20.7328 16.5115 21.1262 16.4061 21.3758 16.2323L21.1487 15.5599C20.9139 15.6956 20.6565 15.7639 20.452 15.7639C20.0585 15.7639 19.9303 15.5218 19.9303 15.1597V13.5286H21.2172V12.8112ZM9.45099 16.4208V14.1553C9.45099 13.3021 8.90588 12.7282 8.02712 12.7204C7.5652 12.7126 7.08856 12.8561 6.75491 13.3626C6.50532 12.9624 6.11187 12.7204 5.55896 12.7204C5.17244 12.7204 4.79459 12.8336 4.49907 13.2563V12.8112H3.7113V16.4208H4.506V14.4198C4.506 13.7931 4.85439 13.4603 5.39256 13.4603C5.91514 13.4603 6.17946 13.8 6.17946 14.412V16.4208H6.97503V14.4198C6.97503 13.7931 7.33814 13.4603 7.86072 13.4603C8.39803 13.4603 8.65542 13.8 8.65542 14.412V16.4208H9.45099Z" fill="white"/>
</svg>
