<svg width="43" height="38" viewBox="0 0 43 38" fill="none" xmlns="http://www.w3.org/2000/svg">
<path d="M5.13004 26.7574H1.80488C1.57734 26.7574 1.38383 26.9206 1.34833 27.1423L0.00349078 35.5576C-0.0232505 35.7237 0.107052 35.8734 0.27771 35.8734H1.86517C2.09271 35.8734 2.28622 35.7102 2.32172 35.4881L2.68443 33.2183C2.71943 32.9961 2.91343 32.833 3.14049 32.833H4.19312C6.38347 32.833 7.64761 31.7869 7.97774 29.7139C8.12652 28.8069 7.98406 28.0943 7.55377 27.5953C7.08118 27.0473 6.24296 26.7574 5.13004 26.7574ZM5.51365 29.831C5.33181 31.0086 4.42018 31.0086 3.53869 31.0086H3.03692L3.38894 28.8093C3.40984 28.6764 3.52653 28.5785 3.66267 28.5785H3.89265C4.49311 28.5785 5.05954 28.5785 5.35223 28.9163C5.52678 29.1179 5.58026 29.4173 5.51365 29.831Z" fill="white"/>
<path d="M15.0695 29.7943H13.4772C13.3415 29.7943 13.2244 29.8922 13.2035 30.0252L13.133 30.4647L13.0216 30.3054C12.6769 29.8116 11.9082 29.6465 11.141 29.6465C9.3814 29.6465 7.87854 30.9618 7.58584 32.8069C7.43366 33.7273 7.65002 34.6074 8.17901 35.2211C8.66424 35.7854 9.35855 36.0206 10.1846 36.0206C11.6024 36.0206 12.3886 35.1208 12.3886 35.1208L12.3176 35.5575C12.2908 35.7245 12.4212 35.8742 12.5908 35.8742H14.0251C14.2532 35.8742 14.4457 35.7111 14.4817 35.4889L15.3423 30.1101C15.3695 29.9445 15.2397 29.7943 15.0695 29.7943ZM12.85 32.853C12.6963 33.7508 11.9743 34.3535 11.0535 34.3535C10.5911 34.3535 10.2216 34.2072 9.98429 33.9298C9.74897 33.6544 9.65951 33.2623 9.73438 32.8256C9.87781 31.9355 10.612 31.3131 11.5188 31.3131C11.9709 31.3131 12.3385 31.4614 12.5806 31.7411C12.8232 32.0238 12.9195 32.4182 12.85 32.853Z" fill="white"/>
<path d="M23.5494 29.7928H21.9493C21.7967 29.7928 21.6532 29.8677 21.5667 29.9929L19.3598 33.2013L18.4243 30.1182C18.3655 29.9253 18.1851 29.7928 17.9809 29.7928H16.4085C16.2175 29.7928 16.0847 29.9771 16.1455 30.1547L17.908 35.2594L16.251 37.5681C16.1207 37.7499 16.252 37.9999 16.4771 37.9999H18.0753C18.2269 37.9999 18.3689 37.927 18.455 37.8042L23.777 30.2223C23.9044 30.0409 23.7736 29.7928 23.5494 29.7928Z" fill="white"/>
<path d="M28.8473 26.7577H25.5217C25.2946 26.7577 25.1011 26.9208 25.0656 27.1425L23.7208 35.5579C23.694 35.7239 23.8243 35.8736 23.994 35.8736H25.7006C25.8591 35.8736 25.9948 35.7594 26.0196 35.604L26.4012 33.2186C26.4362 32.9964 26.6302 32.8332 26.8573 32.8332H27.9094C30.1003 32.8332 31.3639 31.7871 31.6945 29.7141C31.8438 28.8072 31.7004 28.0946 31.2701 27.5955C30.798 27.0475 29.9602 26.7577 28.8473 26.7577ZM29.2309 29.8312C29.0496 31.0088 28.138 31.0088 27.256 31.0088H26.7547L27.1072 28.8096C27.1281 28.6767 27.2438 28.5788 27.3804 28.5788H27.6104C28.2104 28.5788 28.7773 28.5788 29.07 28.9166C29.2446 29.1181 29.2975 29.4176 29.2309 29.8312Z" fill="white"/>
<path d="M38.787 29.7943H37.1957C37.0591 29.7943 36.9429 29.8922 36.9224 30.0252L36.8519 30.4647L36.7401 30.3054C36.3954 29.8116 35.6272 29.6465 34.86 29.6465C33.1004 29.6465 31.598 30.9618 31.3053 32.8069C31.1536 33.7273 31.369 34.6074 31.898 35.2211C32.3842 35.7854 33.0775 36.0206 33.9036 36.0206C35.3214 36.0206 36.1076 35.1208 36.1076 35.1208L36.0366 35.5575C36.0098 35.7245 36.1401 35.8742 36.3108 35.8742H37.7446C37.9717 35.8742 38.1652 35.7111 38.2007 35.4889L39.0617 30.1101C39.088 29.9445 38.9577 29.7943 38.787 29.7943ZM36.5675 32.853C36.4148 33.7508 35.6919 34.3535 34.771 34.3535C34.3096 34.3535 33.9391 34.2072 33.7018 33.9298C33.4665 33.6544 33.378 33.2623 33.4519 32.8256C33.5963 31.9355 34.3295 31.3131 35.2363 31.3131C35.6885 31.3131 36.056 31.4614 36.2982 31.7411C36.5417 32.0238 36.638 32.4182 36.5675 32.853Z" fill="white"/>
<path d="M40.6642 26.989L39.2994 35.5584C39.2726 35.7244 39.403 35.8741 39.5726 35.8741H40.9447C41.1727 35.8741 41.3662 35.711 41.4013 35.4888L42.7471 27.0739C42.7738 26.9079 42.6435 26.7577 42.4738 26.7577H40.9374C40.8018 26.7582 40.6851 26.8561 40.6642 26.989Z" fill="white"/>
<path opacity="0.68" d="M29.5823 5.42108C29.8461 3.76111 29.5805 2.63186 28.6709 1.60868C27.6694 0.482472 25.8602 0 23.5454 0H16.8262C16.3532 0 15.9502 0.339687 15.8767 0.801078L13.0785 18.3118C13.0235 18.6573 13.2941 18.9696 13.6482 18.9696H17.7964L17.5101 20.7615C17.4619 21.0638 17.6984 21.337 18.0084 21.337H21.505C21.9188 21.337 22.2711 21.0399 22.3356 20.6363L22.37 20.4607L23.0286 16.3384L23.0711 16.1107C23.1356 15.7073 23.4879 15.4098 23.9017 15.4098H24.4247C27.8121 15.4098 30.4644 14.0517 31.2393 10.1237C31.5632 8.48238 31.3956 7.11234 30.5393 6.14913C30.2805 5.85834 29.9582 5.61754 29.5823 5.42108Z" fill="white"/>
<path opacity="0.7" d="M29.5823 5.42108C29.8461 3.76111 29.5805 2.63186 28.6708 1.60868C27.6694 0.482472 25.8602 0 23.5454 0H16.8262C16.3532 0 15.9502 0.339687 15.8767 0.801078L13.0785 18.3118C13.0235 18.6573 13.2941 18.9696 13.6482 18.9696H17.7964L18.8384 12.4482L18.806 12.6527C18.8798 12.1916 19.279 11.8516 19.7522 11.8516H21.7239C25.5959 11.8516 28.6279 10.299 29.5136 5.80901C29.54 5.67644 29.5622 5.54756 29.5823 5.42108Z" fill="white"/>
<path d="M19.9579 5.44303C20.0021 5.16571 20.1827 4.93839 20.4256 4.82364C20.5359 4.77148 20.6594 4.74235 20.7887 4.74235H26.0557C26.6798 4.74235 27.2616 4.78278 27.7933 4.86732C27.9453 4.89144 28.0933 4.91926 28.2371 4.95077C28.3806 4.98229 28.5202 5.01728 28.6552 5.0564C28.7228 5.07574 28.7891 5.09639 28.8545 5.11768C29.1157 5.20331 29.359 5.30415 29.5827 5.42129C29.8465 3.76133 29.5809 2.63208 28.6713 1.60889C27.6694 0.482472 25.8602 0 23.5454 0H16.8262C16.3532 0 15.9502 0.339687 15.8767 0.801078L13.0785 18.3118C13.0235 18.6573 13.2941 18.9696 13.6482 18.9696H17.7964L18.8384 12.4482L19.9579 5.44303Z" fill="white"/>
</svg>
