<svg width="15" height="13" viewBox="0 0 15 13" fill="none" xmlns="http://www.w3.org/2000/svg">
<path d="M9.882 0.137824H11.448L5.616 12.1798H4.05L9.882 0.137824ZM3.672 6.97782C2.952 6.97782 2.376 6.92382 1.944 6.81582C1.524 6.69582 1.206 6.49182 0.99 6.20382C0.774 5.90382 0.666 5.47182 0.666 4.90782V2.76582C0.666 2.38182 0.726 2.03982 0.846 1.73982C0.966 1.43982 1.122 1.20582 1.314 1.03782C1.482 0.893824 1.704 0.779824 1.98 0.695824C2.256 0.599824 2.532 0.533824 2.808 0.497823C3.12 0.473824 3.408 0.461824 3.672 0.461824C4.044 0.461824 4.344 0.473824 4.572 0.497823C4.812 0.521824 5.064 0.575824 5.328 0.659824C5.616 0.755824 5.85 0.881824 6.03 1.03782C6.21 1.19382 6.36 1.41582 6.48 1.70382C6.6 1.99182 6.66 2.34582 6.66 2.76582V4.90782C6.66 5.47182 6.552 5.90382 6.336 6.20382C6.132 6.49182 5.814 6.69582 5.382 6.81582C4.962 6.92382 4.392 6.97782 3.672 6.97782ZM3.672 5.60982C4.332 5.60982 4.662 5.43582 4.662 5.08782V2.44182C4.662 2.03382 4.332 1.82982 3.672 1.82982C3 1.82982 2.664 2.03382 2.664 2.44182V5.08782C2.664 5.29182 2.742 5.42982 2.898 5.50182C3.054 5.57382 3.312 5.60982 3.672 5.60982ZM11.736 12.1798C11.016 12.1798 10.44 12.1198 10.008 11.9998C9.588 11.8918 9.27 11.6938 9.054 11.4058C8.838 11.1058 8.73 10.6738 8.73 10.1098V7.96782C8.73 7.58382 8.79 7.24182 8.91 6.94182C9.03 6.64182 9.186 6.40782 9.378 6.23982C9.546 6.09582 9.768 5.98182 10.044 5.89782C10.32 5.80182 10.596 5.73582 10.872 5.69982C11.184 5.67582 11.472 5.66382 11.736 5.66382C12.108 5.66382 12.408 5.67582 12.636 5.69982C12.876 5.72382 13.128 5.77782 13.392 5.86182C13.68 5.95782 13.914 6.08382 14.094 6.23982C14.274 6.39582 14.424 6.61782 14.544 6.90582C14.664 7.19382 14.724 7.54782 14.724 7.96782V10.1098C14.724 10.6738 14.616 11.1058 14.4 11.4058C14.196 11.6938 13.878 11.8918 13.446 11.9998C13.026 12.1198 12.456 12.1798 11.736 12.1798ZM11.736 10.8118C12.396 10.8118 12.726 10.6378 12.726 10.2898V7.64382C12.726 7.23582 12.396 7.03182 11.736 7.03182C11.064 7.03182 10.728 7.23582 10.728 7.64382V10.2898C10.728 10.6378 11.064 10.8118 11.736 10.8118Z" fill="white"/>
</svg>
