<svg width="16" height="16" viewBox="0 0 16 16" fill="none" xmlns="http://www.w3.org/2000/svg">
<path d="M13.6137 2.34314C12.1405 0.832153 10.1818 0 8.09849 0C6.01504 0 4.05644 0.832153 2.58329 2.34314C1.11014 3.85413 0.298828 5.86304 0.298828 8C0.298828 10.1368 1.11014 12.1459 2.58329 13.6569C4.05644 15.1678 6.01504 16 8.09849 16C10.1818 16 12.1405 15.1678 13.6137 13.6569C15.0868 12.1459 15.8982 10.1368 15.8982 8C15.8982 5.86304 15.0868 3.85413 13.6137 2.34314ZM4.20902 13.8246C4.53523 11.8981 6.16286 10.4771 8.09849 10.4771C10.0342 10.4771 11.6618 11.8981 11.988 13.8246C10.8806 14.605 9.5407 15.0625 8.09849 15.0625C6.65629 15.0625 5.31644 14.605 4.20902 13.8246ZM5.61849 6.99585C5.61849 5.59314 6.73103 4.45215 8.09849 4.45215C9.46596 4.45215 10.5785 5.59326 10.5785 6.99585C10.5785 8.39844 9.46596 9.53955 8.09849 9.53955C6.73103 9.53955 5.61849 8.39844 5.61849 6.99585ZM12.7796 13.1743C12.5336 12.2775 12.0451 11.4637 11.3603 10.8281C10.9402 10.4381 10.462 10.1304 9.94784 9.91345C10.8771 9.29175 11.4926 8.21619 11.4926 6.99585C11.4926 5.07629 9.96998 3.51465 8.09849 3.51465C6.22701 3.51465 4.70447 5.07629 4.70447 6.99585C4.70447 8.21619 5.32001 9.29175 6.24914 9.91345C5.73512 10.1304 5.25681 10.438 4.83669 10.828C4.15201 11.4636 3.66334 12.2773 3.41734 13.1742C2.06237 11.8835 1.21285 10.0417 1.21285 8C1.21285 4.10571 4.30173 0.9375 8.09849 0.9375C11.8953 0.9375 14.9841 4.10571 14.9841 8C14.9841 10.0419 14.1346 11.8837 12.7796 13.1743Z" fill="#2343ED"/>
</svg>
