<svg width="18" height="18" viewBox="0 0 18 18" fill="none" xmlns="http://www.w3.org/2000/svg">
<g clip-path="url(#clip0)">
<path d="M18 9C18 13.9706 13.9706 18 9 18C6.37971 18 4.02098 16.8803 2.37637 15.0932C1.94437 14.6241 1.56196 14.1087 1.23649 13.5558C0.450735 12.2194 0 10.6622 0 9C0 4.02943 4.02943 0 9 0C10.6626 0 12.2198 0.450735 13.5558 1.23686C14.1087 1.56196 14.6237 1.94437 15.0928 2.37673C16.88 4.02061 18 6.37971 18 9Z" fill="#F0CD00"/>
<path d="M18.0001 8.99998C18.0001 13.8585 14.1507 17.8178 9.3351 17.9937C4.51955 17.8178 0.67012 13.8585 0.67012 8.99998C0.67012 4.14145 4.51955 0.182185 9.3351 0.00622559C14.1507 0.182185 18.0001 4.14145 18.0001 8.99998Z" fill="#FFDE50"/>
<path d="M15.0927 2.37682L2.37627 15.0933C1.94427 14.6242 1.56186 14.1088 1.23639 13.5559L13.5557 1.23694C14.1086 1.56204 14.6236 1.94445 15.0927 2.37682Z" fill="#FFEA94"/>
<path d="M17.3792 5.70968L5.70933 17.3796C4.88317 17.0548 4.11652 16.6114 3.43068 16.0703L16.0704 3.43066C16.6115 4.1165 17.0548 4.88315 17.3792 5.70968Z" fill="#FFEA94"/>
<path d="M15.9936 9.00002C15.9936 12.8623 12.8623 15.9936 9.00005 15.9936C7.65483 15.9936 6.3985 15.6137 5.33209 14.9554C4.8674 14.6689 4.43907 14.3291 4.05483 13.9449C3.77234 13.6628 3.51372 13.356 3.28266 13.0287C2.96454 12.578 2.69821 12.0879 2.49287 11.5674C2.1887 10.7978 2.01752 9.961 2.00723 9.08598C2.0065 9.05733 2.0065 9.02867 2.0065 9.00002C2.0065 5.13774 5.1374 2.00647 9.00005 2.00647C9.0287 2.00647 9.05772 2.00647 9.08638 2.0072C9.9614 2.01749 10.7978 2.18904 11.5674 2.49284C12.088 2.69855 12.578 2.96451 13.0287 3.28263C13.3561 3.51406 13.6624 3.77231 13.9449 4.0548C14.3292 4.43867 14.6689 4.86737 14.9555 5.33206C15.6138 6.39847 15.9936 7.6548 15.9936 9.00002Z" fill="#FAA300"/>
<path d="M13.9449 4.0548L4.05483 13.9449C3.77234 13.6628 3.51372 13.356 3.28266 13.0287C2.96454 12.578 2.69821 12.0879 2.49287 11.5674C2.1887 10.7978 2.01752 9.961 2.00723 9.08598C2.0065 9.05733 2.0065 9.02867 2.0065 9.00002C2.0065 5.13773 5.1374 2.00647 9.00005 2.00647C9.0287 2.00647 9.05772 2.00647 9.08638 2.0072C9.9614 2.01749 10.7978 2.18904 11.5674 2.49284C12.088 2.69855 12.578 2.96451 13.0287 3.28263C13.3561 3.51406 13.6624 3.77231 13.9449 4.0548Z" fill="#FFBD00"/>
<path d="M15.9932 9.00002C15.9932 12.8623 12.862 15.9936 8.99971 15.9936C8.8671 15.9936 8.73559 15.9899 8.60481 15.9826C12.2834 15.7779 15.2031 12.7297 15.2031 9.00002C15.2031 5.27035 12.2834 2.2221 8.60481 2.01749C8.73559 2.01014 8.8671 2.00647 8.99971 2.00647C12.862 2.00647 15.9932 5.13774 15.9932 9.00002Z" fill="#F68E00"/>
<path d="M9.36027 10.5083C11.1908 10.5083 12.68 9.01901 12.68 7.18852C12.68 5.35804 11.1908 3.86877 9.36027 3.86877H5.69812C5.29235 3.86877 4.96342 4.1977 4.96342 4.60347V9.03889H4.46303C4.05725 9.03889 3.72833 9.36781 3.72833 9.77358C3.72833 10.1794 4.05725 10.5083 4.46303 10.5083H4.96342V11.3533H4.46303C4.05725 11.3533 3.72833 11.6822 3.72833 12.088C3.72833 12.4937 4.05725 12.8227 4.46303 12.8227H4.96342V13.5735C4.96342 13.9792 5.29235 14.3081 5.69812 14.3081C6.10389 14.3081 6.43281 13.9792 6.43281 13.5735V12.8227H9.00258C9.40835 12.8227 9.73728 12.4937 9.73728 12.088C9.73728 11.6822 9.40835 11.3533 9.00258 11.3533H6.43281V10.5083H9.36027ZM6.43281 5.33816H9.36027C10.3806 5.33816 11.2106 6.16822 11.2106 7.18852C11.2106 8.20879 10.3806 9.03889 9.36027 9.03889H6.43281V5.33816Z" fill="#F68E00"/>
<path d="M10.2788 10.5083C12.1093 10.5083 13.5985 9.01901 13.5985 7.18852C13.5985 5.35804 12.1093 3.86877 10.2788 3.86877H6.61661C6.21084 3.86877 5.88191 4.1977 5.88191 4.60347V9.03889H5.38151C4.97574 9.03889 4.64682 9.36781 4.64682 9.77358C4.64682 10.1794 4.97574 10.5083 5.38151 10.5083H5.88191V11.3533H5.38151C4.97574 11.3533 4.64682 11.6822 4.64682 12.088C4.64682 12.4937 4.97574 12.8227 5.38151 12.8227H5.88191V13.5735C5.88191 13.9792 6.21084 14.3081 6.61661 14.3081C7.02238 14.3081 7.3513 13.9792 7.3513 13.5735V12.8227H9.92108C10.3268 12.8227 10.6558 12.4937 10.6558 12.088C10.6558 11.6822 10.3268 11.3533 9.92108 11.3533H7.3513V10.5083H10.2788ZM7.3513 5.33816H10.2788C11.2991 5.33816 12.1291 6.16822 12.1291 7.18852C12.1291 8.20879 11.2991 9.03889 10.2788 9.03889H7.3513V5.33816Z" fill="#FFEA94"/>
</g>
<defs>
<clipPath id="clip0">
<rect width="18" height="18" fill="white"/>
</clipPath>
</defs>
</svg>
