<svg width="16" height="16" viewBox="0 0 16 16" fill="none" xmlns="http://www.w3.org/2000/svg">
<path d="M7.98698 0C3.77832 0 0.326132 3.2395 0 7.357L4.29482 9.1305C4.67161 8.87401 5.11721 8.73704 5.5733 8.7375C5.61488 8.7375 5.65696 8.74 5.69854 8.74L7.60874 5.9795V5.9405C7.60874 4.2765 8.96287 2.925 10.6301 2.925C12.2973 2.925 13.654 4.279 13.654 5.943C13.6529 6.74287 13.3339 7.50964 12.767 8.07499C12.2 8.64035 11.4315 8.9581 10.6301 8.9585H10.5625L7.83819 10.8985C7.83819 10.935 7.84069 10.969 7.84069 11.0055C7.84069 12.2555 6.82823 13.2685 5.5758 13.2685C4.48519 13.2685 3.5614 12.487 3.34999 11.451L0.276536 10.18C1.22888 13.5395 4.31586 16.0005 7.98698 16.0005C12.412 16.0005 16 12.42 16 8.0005C16 3.581 12.4125 0.0005 7.98698 0.0005V0ZM5.02023 12.1405L4.03632 11.734C4.21752 12.1097 4.53027 12.4062 4.91552 12.5675C5.33253 12.7398 5.80097 12.7401 6.21818 12.5683C6.6354 12.3965 6.96736 12.0666 7.14134 11.651C7.22765 11.4453 7.27231 11.2245 7.27274 11.0015C7.27317 10.7785 7.22936 10.5576 7.14384 10.3515C7.05948 10.1444 6.93454 9.95611 6.77634 9.79779C6.61814 9.63947 6.42987 9.51426 6.22256 9.4295C5.82312 9.26298 5.37495 9.25546 4.97013 9.4085L5.9851 9.828C6.62433 10.096 6.92692 10.828 6.66091 11.466C6.39489 12.104 5.65896 12.406 5.01973 12.1405H5.02023ZM12.6445 5.9375C12.644 5.40488 12.4319 4.89418 12.0548 4.51733C11.6777 4.14047 11.1663 3.92819 10.6326 3.927C10.0983 3.927 9.58598 4.13882 9.2082 4.51586C8.83043 4.8929 8.6182 5.40428 8.6182 5.9375C8.6182 6.47072 8.83043 6.9821 9.2082 7.35914C9.58598 7.73618 10.0983 7.948 10.6326 7.948C11.1664 7.94721 11.678 7.73505 12.0552 7.35811C12.4324 6.98117 12.6444 6.47024 12.6445 5.9375ZM9.12468 5.935C9.12468 5.099 9.80049 4.4245 10.6356 4.4245C11.4707 4.4245 12.1515 5.099 12.1515 5.935C12.1515 6.7685 11.4707 7.4455 10.6356 7.4455C9.80049 7.4455 9.12468 6.7685 9.12468 5.935Z" fill="white"/>
</svg>
