<svg width="15" height="16" viewBox="0 0 15 16" fill="none" xmlns="http://www.w3.org/2000/svg">
<path d="M4.96875 4.53125H2.46875C2.20988 4.53125 2 4.74113 2 5C2 5.25887 2.20988 5.46875 2.46875 5.46875H4.96875C5.22762 5.46875 5.4375 5.25887 5.4375 5C5.4375 4.74113 5.22762 4.53125 4.96875 4.53125Z" fill="#2343ED"/>
<path d="M4.96875 7.03125H2.46875C2.20988 7.03125 2 7.24113 2 7.5C2 7.75887 2.20988 7.96875 2.46875 7.96875H4.96875C5.22762 7.96875 5.4375 7.75887 5.4375 7.5C5.4375 7.24113 5.22762 7.03125 4.96875 7.03125Z" fill="#2343ED"/>
<path d="M4.96875 9.53125H2.46875C2.20988 9.53125 2 9.74113 2 10C2 10.2589 2.20988 10.4688 2.46875 10.4688H4.96875C5.22762 10.4688 5.4375 10.2589 5.4375 10C5.4375 9.74113 5.22762 9.53125 4.96875 9.53125Z" fill="#2343ED"/>
<path d="M11.6875 8.5915V4.31187C11.6875 3.69406 11.4493 3.11122 11.0167 2.67041L9.11478 0.703562C9.11388 0.702625 9.11294 0.701656 9.11203 0.700719C8.67412 0.255406 8.06478 0 7.44031 0H1.40625C0.630844 0 0 0.630844 0 1.40625V13.5625C0 14.3379 0.630844 14.9688 1.40625 14.9688H8.65103C9.31903 15.6073 10.2239 16 11.2188 16C13.2865 16 14.9688 14.3318 14.9688 12.2812C14.9688 10.3881 13.5348 8.82097 11.6875 8.5915ZM0.9375 13.5625V1.40625C0.9375 1.14778 1.14778 0.9375 1.40625 0.9375H7.44031C7.8145 0.9375 8.17963 1.09034 8.44238 1.35681L10.344 3.32334C10.3449 3.32428 10.3458 3.32522 10.3467 3.32612C10.6067 3.59072 10.75 3.94078 10.75 4.31191V8.59197C8.91994 8.82316 7.5 10.3895 7.5 12.2813C7.5 12.9136 7.65881 13.5094 7.93834 14.0313H1.40625C1.14778 14.0312 0.9375 13.821 0.9375 13.5625ZM11.2188 15.0625C9.68516 15.0625 8.4375 13.8148 8.4375 12.2812C8.4375 10.7477 9.68516 9.5 11.2188 9.5C12.7696 9.5 14.0312 10.7477 14.0312 12.2812C14.0312 13.8148 12.7696 15.0625 11.2188 15.0625Z" fill="#2343ED"/>
<path d="M12.3001 11.1712C12.1012 11.0055 11.8057 11.0323 11.6399 11.2312L10.8487 12.1806L10.6693 11.8217C10.5535 11.5901 10.2719 11.4962 10.0404 11.612C9.80881 11.7278 9.71497 12.0094 9.83075 12.2409L10.3308 13.2409C10.4015 13.3824 10.5388 13.4787 10.696 13.4969C10.7141 13.499 10.7321 13.5 10.7501 13.5C10.8882 13.5 11.0205 13.4389 11.1101 13.3314L12.3601 11.8314C12.5258 11.6324 12.499 11.3369 12.3001 11.1712Z" fill="#2343ED"/>
<path d="M7.46875 5.46875H7.96875C8.22762 5.46875 8.4375 5.25887 8.4375 5C8.4375 4.74113 8.22762 4.53125 7.96875 4.53125H7.46875C7.20988 4.53125 7 4.74113 7 5C7 5.25887 7.20988 5.46875 7.46875 5.46875Z" fill="#2343ED"/>
<path d="M8.4375 7.5C8.4375 7.24113 8.22762 7.03125 7.96875 7.03125H7.46875C7.20988 7.03125 7 7.24113 7 7.5C7 7.75887 7.20988 7.96875 7.46875 7.96875H7.96875C8.22762 7.96875 8.4375 7.75887 8.4375 7.5Z" fill="#2343ED"/>
</svg>
