<svg width="15" height="14" viewBox="0 0 15 14" fill="none" xmlns="http://www.w3.org/2000/svg">
<path fill-rule="evenodd" clip-rule="evenodd" d="M10.6678 12.942C11.5065 13.309 11.8211 12.5401 11.8211 12.5401L14.0403 1.39168C14.0228 0.640292 13.0093 1.09462 13.0093 1.09462L0.585255 5.96988C0.585255 5.96988 -0.00886324 6.17957 0.0435589 6.54653C0.0959811 6.91348 0.567781 7.08822 0.567781 7.08822L3.69564 8.13666C3.69564 8.13666 4.63924 11.2296 4.83145 11.8237C5.00619 12.4003 5.16346 12.4178 5.16346 12.4178C5.3382 12.4877 5.49547 12.3654 5.49547 12.3654L7.52246 10.5306L10.6678 12.942ZM11.2096 3.36625C11.2096 3.36625 11.6465 3.10414 11.629 3.36625C11.629 3.36625 11.6989 3.4012 11.4717 3.64583C11.262 3.85552 6.31688 8.29394 5.65287 8.88805C5.60045 8.923 5.5655 8.97542 5.5655 9.04532L5.37328 10.6879C5.33834 10.8626 5.11117 10.8801 5.05875 10.7228L4.23747 8.03182C4.20252 7.92698 4.23747 7.80466 4.34232 7.73477L11.2096 3.36625Z" fill="white"/>
</svg>
