<svg width="24" height="24" viewBox="0 0 24 24" fill="none" xmlns="http://www.w3.org/2000/svg">
<path d="M13.5048 8.06741H10.4953C8.40361 8.06741 6.70186 9.76916 6.70186 11.8609V16.6409C6.70186 17.06 7.04152 17.3996 7.46053 17.3996H8.3798L8.85399 23.2018C8.8861 23.5955 9.21511 23.8988 9.61017 23.8988H14.4152C14.8113 23.8988 15.1408 23.594 15.1717 23.1988L15.6228 17.3993H16.5396C16.9586 17.3993 17.2982 17.0596 17.2982 16.6406V11.8609C17.2982 9.76916 15.5965 8.06741 13.5048 8.06741ZM15.7809 15.882H14.921C14.525 15.882 14.1954 16.1867 14.1646 16.582L13.7134 22.3815H10.3094L9.83522 16.579C9.80311 16.185 9.4741 15.882 9.07903 15.882H8.21916V11.861C8.21916 10.6061 9.24038 9.58489 10.4952 9.58489H13.5047C14.7598 9.58489 15.7807 10.6061 15.7807 11.861L15.7809 15.882Z" fill="#2343ED"/>
<path d="M11.9873 1.56781C10.3139 1.56781 8.95255 2.92916 8.95255 4.6026C8.95255 6.27603 10.3139 7.63738 11.9873 7.63738C13.6608 7.63738 15.0221 6.27603 15.0221 4.6026C15.0221 2.92916 13.6608 1.56781 11.9873 1.56781ZM11.9873 6.11999C11.1505 6.11999 10.4699 5.43946 10.4699 4.6026C10.4699 3.76574 11.1505 3.08521 11.9873 3.08521C12.8242 3.08521 13.5047 3.76574 13.5047 4.6026C13.5047 5.43946 12.8242 6.11999 11.9873 6.11999Z" fill="#2343ED"/>
<path d="M20.2065 6.57539H17.197C15.779 6.57539 14.4847 7.36064 13.8193 8.62462L15.1625 9.33122C15.5643 8.5672 16.344 8.09278 17.197 8.09278H20.2063C21.4614 8.09278 22.4823 9.114 22.4823 10.3688V14.3899H21.5972C21.2011 14.3899 20.8716 14.6947 20.8408 15.09L20.3896 20.8897H16.9894L16.6636 16.6336L15.1508 16.7492L15.5302 21.7063C15.5602 22.1016 15.89 22.407 16.2866 22.407H21.0916C21.4879 22.407 21.8174 22.1023 21.8481 21.707L22.2992 15.9073H23.2413C23.6603 15.9073 23.9999 15.5677 23.9999 15.1486V10.3688C24 8.27714 22.2982 6.57539 20.2065 6.57539Z" fill="#2343ED"/>
<path d="M18.6892 0.101013C17.0157 0.101013 15.6544 1.46236 15.6544 3.13579C15.6544 4.80923 17.0157 6.17058 18.6892 6.17058C20.3628 6.17058 21.724 4.80923 21.724 3.13579C21.724 1.46236 20.3626 0.101013 18.6892 0.101013ZM18.6892 4.65319C17.8523 4.65319 17.1718 3.97265 17.1718 3.13579C17.1718 2.29894 17.8523 1.6184 18.6892 1.6184C19.526 1.6184 20.2066 2.29894 20.2066 3.13579C20.2066 3.97261 19.526 4.65319 18.6892 4.65319Z" fill="#2343ED"/>
<path d="M3.79345 8.118H6.80292C7.65595 8.118 8.43539 8.59243 8.83748 9.35644L10.1804 8.64985C9.51525 7.38586 8.22089 6.60061 6.80292 6.60061H3.79345C1.70175 6.60061 0 8.30241 0 10.3941V15.1486C0 15.5677 0.339656 15.9073 0.758672 15.9073H1.67541L2.12658 21.707C2.15719 22.1023 2.48695 22.407 2.883 22.407H7.68806C8.08486 22.407 8.41462 22.1012 8.44448 21.7057L8.82384 16.6983L7.311 16.5838L6.98475 20.8896H3.58509L3.13369 15.0899C3.10308 14.6946 2.77331 14.3899 2.37727 14.3899H1.51739V10.3941C1.51739 9.13922 2.53861 8.118 3.79345 8.118Z" fill="#2343ED"/>
<path d="M5.28552 0.101013C3.61208 0.101013 2.25074 1.46236 2.25074 3.13579C2.25074 4.80923 3.61208 6.17058 5.28552 6.17058C6.95896 6.17058 8.3203 4.80923 8.3203 3.13579C8.3203 1.46236 6.95891 0.101013 5.28552 0.101013ZM5.28552 4.65319C4.44866 4.65319 3.76813 3.97265 3.76813 3.13579C3.76813 2.29894 4.44866 1.6184 5.28552 1.6184C6.1221 1.6184 6.80291 2.29894 6.80291 3.13579C6.80291 3.97261 6.12233 4.65319 5.28552 4.65319Z" fill="#2343ED"/>
</svg>
