<svg width="58" height="35" viewBox="0 0 58 35" fill="none" xmlns="http://www.w3.org/2000/svg">
<path d="M25.1333 25.1492H20.4349L23.3736 8.3056H28.0718L25.1333 25.1492Z" fill="white"/>
<path d="M42.165 8.7171C41.2383 8.37629 39.7684 8 37.951 8C33.3111 8 30.0438 10.2935 30.0238 13.5725C29.9853 15.9917 32.3631 17.3354 34.1415 18.142C35.9593 18.9663 36.5772 19.5043 36.5772 20.239C36.5587 21.3674 35.1083 21.8876 33.7556 21.8876C31.8798 21.8876 30.8747 21.6194 29.3473 20.9916L28.7286 20.7225L28.0712 24.5035C29.1731 24.9689 31.2033 25.3818 33.3111 25.3999C38.241 25.3999 41.4505 23.1419 41.4886 19.6477C41.5073 17.7302 40.2517 16.261 37.5448 15.0605C35.9015 14.2898 34.8951 13.7701 34.8951 12.9816C34.9144 12.2647 35.7463 11.5305 37.6013 11.5305C39.1287 11.4945 40.2509 11.8348 41.1011 12.1754L41.5261 12.3543L42.165 8.7171Z" fill="white"/>
<path d="M48.4102 19.1821C48.7971 18.2145 50.286 14.4694 50.286 14.4694C50.2664 14.5054 50.6721 13.4839 50.9041 12.8568L51.2325 14.3082C51.2325 14.3082 52.1222 18.34 52.3154 19.1821C51.5811 19.1821 49.3382 19.1821 48.4102 19.1821ZM54.2097 8.3056H50.5755C49.4548 8.3056 48.6034 8.60997 48.1198 9.70312L41.141 25.1489H46.0709C46.0709 25.1489 46.8825 23.0701 47.0569 22.6223C47.5978 22.6223 52.3935 22.6223 53.0893 22.6223C53.2242 23.2137 53.6499 25.1489 53.6499 25.1489H58.0001L54.2097 8.3056Z" fill="white"/>
<path d="M16.5103 8.3056L11.909 19.7913L11.4062 17.4619C10.5556 14.774 7.88765 11.8537 4.9104 10.4016L9.125 25.1313H14.0934L21.4785 8.3056H16.5103Z" fill="white"/>
<path d="M7.63645 8.3056H0.077212L-0.00012207 8.64593C5.89656 10.0437 9.80182 13.4129 11.4063 17.4626L9.76302 9.72146C9.49248 8.64569 8.66107 8.34109 7.63645 8.3056Z" fill="#FAA61A"/>
</svg>
