<svg width="101" height="23" viewBox="0 0 101 23" fill="none" xmlns="http://www.w3.org/2000/svg">
<path d="M88.5957 0C90.4178 0 92.1514 0.417456 93.7071 1.16421C93.951 1.27428 94.1966 1.40602 94.4398 1.53787L93.3731 2.48273L91.774 0.835029L89.0185 3.25139L87.3959 1.51563L82.3291 6.01938L85.573 9.55637L84.3066 10.6545L87.5071 14.1915L86.2406 15.2892L90.8187 20.3202L93.5283 17.8596L95.885 20.4965C95.418 20.848 94.9068 21.2002 94.3519 21.5073C92.6627 22.4518 90.7068 23 88.6182 23C82.1952 23 76.9737 17.8385 76.9737 11.4901C76.951 5.18469 82.1735 0 88.5957 0ZM86.462 10.7866L89.2399 8.32601L91.7294 11.072L88.9509 13.5324L86.462 10.7866ZM88.4404 15.532L91.1957 13.0496L93.7071 15.7953L90.929 18.2561L88.4404 15.532ZM84.4853 6.10755L87.2625 3.64694L89.7514 6.39292L86.9733 8.85342L84.4853 6.10755ZM89.5733 4.78902L91.6402 2.94377L93.5074 4.98692L91.4405 6.85397L89.5733 4.78902ZM93.2627 13.2469L95.3289 11.4015L97.1959 13.466L95.1289 15.3125L93.2627 13.2469ZM95.0847 17.3993L97.1517 15.5536L99.0172 17.5967L96.9511 19.4635L95.0847 17.3993ZM95.9293 7.90855L97.3069 6.67819L98.551 8.04074L97.1736 9.27065L95.9293 7.90855ZM94.1514 3.84438L95.5292 2.59245L96.7741 3.97623L95.3954 5.20648L94.1514 3.84438ZM97.6847 11.9731L99.0623 10.7428L100.329 12.1049L98.9294 13.3348L97.6847 11.9731ZM91.4847 8.91935L93.5517 7.07398L95.418 9.11668L93.3519 10.9624L91.4847 8.91935Z" fill="white"/>
<path d="M6.09563 8.91516H5.99082L4.02294 16.3895H2.41448L0 5.77087H1.66887L3.33813 13.6941H3.44237L5.37945 5.77087H6.70626L8.77786 13.6941H8.88217L10.4025 5.77087H12.1463L9.73123 16.3895H8.12156L6.09563 8.91516Z" fill="white"/>
<path d="M14.2633 11.8697H17.6754C17.6014 10.2976 16.8409 9.66917 16.0364 9.66917C15.1274 9.66917 14.4265 10.3729 14.2633 11.8697ZM18.8675 14.6862V15.8246C18.197 16.2139 17.3033 16.5137 16.2297 16.5137C13.7266 16.5137 12.6984 14.9561 12.6984 12.59C12.6984 10.3126 13.8456 8.6651 16.0811 8.6651C17.9435 8.6651 19.0918 9.87904 19.0918 12.3197V12.8739H14.2334C14.2334 14.6706 14.9632 15.4645 16.4988 15.4645C17.3033 15.4645 18.0485 15.1795 18.8675 14.6862Z" fill="white"/>
<path d="M22.5584 15.3126C23.0354 15.5222 23.5574 15.5533 23.9306 15.5533C25.0331 15.5533 25.8668 14.8633 25.8668 12.4377C25.8668 10.5356 25.1813 9.92155 24.1833 9.92155C23.5867 9.92155 23.1547 10.0868 22.5584 10.4157V15.3126H22.5584ZM22.5741 9.30769C23.02 9.06885 23.78 8.75324 24.5851 8.75324C26.4332 8.75324 27.4319 10.0412 27.4319 12.4377C27.4319 15.2386 26.0904 16.6015 23.9306 16.6015C23.1401 16.6015 21.9181 16.3468 21.0234 15.8665V5.41369L22.5741 5.03979V9.30769H22.5741Z" fill="white"/>
<path d="M34.1393 14.137H34.2139L37.4025 5.76495H39.2515V16.3844H37.642V8.68568H37.5076L34.4669 16.3844H33.514L30.4727 8.86566H30.3391V16.3844H28.9977V5.76495H30.8015L34.1393 14.137Z" fill="white"/>
<path d="M45.8276 12.5896C45.8276 10.5678 45.0086 9.71457 43.9952 9.71457C43.0119 9.71457 42.1617 10.5679 42.1617 12.5896C42.1617 14.6416 42.9376 15.4645 43.9952 15.4645C45.0528 15.4645 45.8276 14.6416 45.8276 12.5896ZM40.5975 12.5896C40.5975 9.96767 42.0286 8.6651 43.9952 8.6651C45.963 8.6651 47.3933 9.96766 47.3933 12.5896C47.3933 15.1501 46.0372 16.5137 43.9952 16.5137C41.9536 16.5137 40.5975 15.1501 40.5975 12.5896Z" fill="white"/>
<path d="M48.5718 9.77422C49.2423 9.36919 50.6587 8.6651 52.3721 8.6651C54.1604 8.6651 54.8298 9.36919 54.8298 10.9114V16.3338H53.281V11.2563C53.281 10.0734 52.7007 9.86374 51.9397 9.86374C51.3443 9.86374 50.5833 10.1337 50.1217 10.4032V16.3338H48.5718V9.77422H48.5718Z" fill="white"/>
<path d="M58.1112 11.8697H61.5236C61.4503 10.2976 60.6894 9.66917 59.8846 9.66917C58.9753 9.66917 58.2758 10.3729 58.1112 11.8697ZM62.7156 14.6862V15.8246C62.0453 16.2139 61.1511 16.5137 60.0779 16.5137C57.5757 16.5137 56.5468 14.9561 56.5468 12.59C56.5468 10.3126 57.6936 8.6651 59.9293 8.6651C61.7928 8.6651 62.9408 9.87904 62.9408 12.3197V12.8739H58.0819C58.0819 14.6706 58.8122 15.4645 60.3472 15.4645C61.1511 15.4645 61.8974 15.1795 62.7156 14.6862Z" fill="white"/>
<path d="M69.1307 8.6651H70.7257L68.0281 16.1525C67.2819 18.2195 66.3739 19.298 64.6604 19.298V18.0707C65.6744 18.0707 66.2993 17.2616 66.6578 16.1525L63.7963 8.6651H65.4359L67.3433 14.1765H67.4327L69.1307 8.6651Z" fill="white"/>
</svg>
