<svg width="617" height="633" viewBox="0 0 617 633" fill="none" xmlns="http://www.w3.org/2000/svg">
<path d="M308.412 632.983C478.743 632.983 616.823 494.878 616.823 324.516C616.823 154.155 478.743 16.0503 308.412 16.0503C138.081 16.0503 0 154.155 0 324.516C0 494.878 138.081 632.983 308.412 632.983Z" fill="url(#paint0_linear)"/>
<path d="M308.412 602.445C461.88 602.445 586.291 478.012 586.291 324.516C586.291 171.021 461.88 46.5879 308.412 46.5879C154.943 46.5879 30.5322 171.021 30.5322 324.516C30.5322 478.012 154.943 602.445 308.412 602.445Z" fill="url(#paint1_linear)"/>
<path d="M580.254 324.516C580.254 474.671 458.54 596.406 308.412 596.406C158.275 596.406 36.561 474.679 36.561 324.516C36.561 174.353 158.266 52.6265 308.412 52.6265C458.54 52.6265 580.254 174.353 580.254 324.516Z" fill="url(#paint2_linear)"/>
<path d="M334.937 330.696C334.937 347.409 321.396 360.952 304.687 360.952C287.977 360.952 274.437 347.409 274.437 330.696C274.437 313.984 287.977 300.441 304.687 300.441C321.396 300.441 334.937 313.984 334.937 330.696Z" fill="url(#paint3_linear)"/>
<path d="M326.745 324.516C326.745 334.643 318.536 342.862 308.403 342.862C298.278 342.862 290.061 334.651 290.061 324.516C290.061 314.381 298.27 306.171 308.403 306.171C318.536 306.171 326.745 314.39 326.745 324.516Z" fill="url(#paint4_linear)"/>
<path d="M529.552 485.265C512.675 508.502 492.249 528.931 469.017 545.811L308.182 324.402L529.552 485.265Z" fill="url(#paint5_linear)"/>
<path d="M86.8037 163.53C103.681 140.293 124.106 119.864 147.339 102.984L308.182 324.402L86.8037 163.53Z" fill="url(#paint6_linear)"/>
<path d="M581.816 324.402C581.816 353.121 577.297 381.663 568.426 408.97L308.182 324.402H581.816Z" fill="url(#paint7_linear)"/>
<path d="M34.5485 324.402C34.5485 295.683 39.0678 267.14 47.9389 239.825L308.182 324.402H34.5485Z" fill="url(#paint8_linear)"/>
<path d="M392.735 584.682C365.425 593.555 336.887 598.075 308.182 598.075V324.393L392.735 584.682Z" fill="url(#paint9_linear)"/>
<path d="M223.621 64.1125C250.931 55.2399 279.468 50.7197 308.182 50.7197V324.402L223.621 64.1125Z" fill="url(#paint10_linear)"/>
<path d="M223.621 584.682C196.31 575.81 170.571 562.691 147.339 545.811L308.182 324.402L223.621 584.682Z" fill="url(#paint11_linear)"/>
<path d="M392.735 64.1123C420.045 72.9849 445.785 86.104 469.017 102.984L308.182 324.402L392.735 64.1123Z" fill="url(#paint12_linear)"/>
<path d="M86.8037 485.265C69.9266 462.029 56.8099 436.285 47.9388 408.97L308.182 324.402L86.8037 485.265Z" fill="url(#paint13_linear)"/>
<path d="M529.552 163.53C546.429 186.766 559.546 212.51 568.417 239.825L308.182 324.402L529.552 163.53Z" fill="url(#paint14_linear)"/>
<path d="M568.426 408.97C559.554 436.285 546.438 462.029 529.561 485.265L308.182 324.402L568.426 408.97Z" fill="url(#paint15_linear)"/>
<path d="M47.9388 239.825C56.8099 212.51 69.9266 186.766 86.8037 163.53L308.182 324.402L47.9388 239.825Z" fill="url(#paint16_linear)"/>
<path d="M469.017 545.811C445.785 562.691 420.045 575.81 392.735 584.682L308.182 324.402L469.017 545.811Z" fill="url(#paint17_linear)"/>
<path d="M147.347 102.984C170.58 86.104 196.319 72.9849 223.629 64.1123L308.191 324.402L147.347 102.984Z" fill="url(#paint18_linear)"/>
<path d="M308.182 598.084C279.468 598.084 250.931 593.564 223.621 584.691L308.182 324.402V598.084Z" fill="url(#paint19_linear)"/>
<path d="M308.182 50.7197C336.896 50.7197 365.433 55.2399 392.735 64.1125L308.182 324.402V50.7197Z" fill="url(#paint20_linear)"/>
<path d="M147.347 545.811C124.115 528.931 103.69 508.502 86.8126 485.265L308.182 324.402L147.347 545.811Z" fill="url(#paint21_linear)"/>
<path d="M469.017 102.984C492.249 119.864 512.675 140.293 529.552 163.53L308.182 324.402L469.017 102.984Z" fill="url(#paint22_linear)"/>
<path d="M47.9389 408.97C39.0678 381.654 34.5485 353.112 34.5485 324.402H308.182L47.9389 408.97Z" fill="url(#paint23_linear)"/>
<path d="M568.426 239.825C577.297 267.14 581.816 295.683 581.816 324.402H308.182L568.426 239.825Z" fill="url(#paint24_linear)"/>
<path d="M307.502 346.632C319.729 346.632 329.64 336.718 329.64 324.49C329.64 312.261 319.729 302.348 307.502 302.348C295.276 302.348 285.365 312.261 285.365 324.49C285.365 336.718 295.276 346.632 307.502 346.632Z" fill="url(#paint25_linear)"/>
<path d="M308.412 632.983C478.743 632.983 616.823 494.878 616.823 324.516C616.823 154.155 478.743 16.0503 308.412 16.0503C138.081 16.0503 0 154.155 0 324.516C0 494.878 138.081 632.983 308.412 632.983Z" fill="url(#paint26_linear)"/>
<path d="M308.412 602.445C461.88 602.445 586.291 478.012 586.291 324.516C586.291 171.021 461.88 46.5879 308.412 46.5879C154.943 46.5879 30.5322 171.021 30.5322 324.516C30.5322 478.012 154.943 602.445 308.412 602.445Z" fill="url(#paint27_linear)"/>
<path d="M308.412 602.445C461.88 602.445 586.291 478.012 586.291 324.516C586.291 171.021 461.88 46.5879 308.412 46.5879C154.943 46.5879 30.5322 171.021 30.5322 324.516C30.5322 478.012 154.943 602.445 308.412 602.445Z" fill="url(#paint28_linear)"/>
<path d="M308.412 602.445C461.88 602.445 586.291 478.012 586.291 324.516C586.291 171.021 461.88 46.5879 308.412 46.5879C154.943 46.5879 30.5322 171.021 30.5322 324.516C30.5322 478.012 154.943 602.445 308.412 602.445Z" fill="url(#paint29_linear)"/>
<path d="M580.254 324.516C580.254 474.671 458.54 596.406 308.412 596.406C158.275 596.406 36.561 474.679 36.561 324.516C36.561 174.353 158.266 52.6265 308.412 52.6265C458.54 52.6265 580.254 174.353 580.254 324.516Z" fill="url(#paint30_radial)"/>
<path opacity="0.7" d="M334.937 330.696C334.937 347.409 321.396 360.952 304.687 360.952C287.977 360.952 274.437 347.409 274.437 330.696C274.437 313.984 287.977 300.441 304.687 300.441C321.396 300.441 334.937 313.984 334.937 330.696Z" fill="url(#paint31_radial)"/>
<path d="M326.745 324.516C326.745 334.643 318.536 342.862 308.403 342.862C298.278 342.862 290.061 334.651 290.061 324.516C290.061 314.381 298.27 306.171 308.403 306.171C318.536 306.171 326.745 314.39 326.745 324.516Z" fill="url(#paint32_linear)"/>
<path d="M529.552 485.265C512.675 508.502 492.249 528.931 469.017 545.811L308.182 324.402L529.552 485.265Z" fill="url(#paint33_linear)"/>
<path d="M86.8037 163.529C103.681 140.293 124.106 119.864 147.339 102.984L308.182 324.401L86.8037 163.529Z" fill="url(#paint34_linear)"/>
<path d="M581.816 324.402C581.816 353.121 577.297 381.663 568.426 408.97L308.182 324.402H581.816Z" fill="url(#paint35_linear)"/>
<path d="M34.5485 324.402C34.5485 295.683 39.0678 267.14 47.9389 239.825L308.182 324.402H34.5485Z" fill="url(#paint36_linear)"/>
<path d="M392.735 584.682C365.425 593.555 336.887 598.075 308.182 598.075V324.393L392.735 584.682Z" fill="url(#paint37_linear)"/>
<path d="M223.621 64.1125C250.931 55.2399 279.468 50.7197 308.182 50.7197V324.402L223.621 64.1125Z" fill="url(#paint38_linear)"/>
<path d="M223.621 584.682C196.31 575.81 170.571 562.691 147.339 545.811L308.182 324.402L223.621 584.682Z" fill="url(#paint39_linear)"/>
<path d="M392.735 64.1123C420.045 72.9849 445.785 86.104 469.017 102.984L308.182 324.402L392.735 64.1123Z" fill="url(#paint40_linear)"/>
<path d="M86.8037 485.265C69.9266 462.029 56.8099 436.285 47.9388 408.97L308.182 324.402L86.8037 485.265Z" fill="url(#paint41_linear)"/>
<path d="M529.552 163.53C546.429 186.766 559.546 212.51 568.417 239.825L308.182 324.402L529.552 163.53Z" fill="url(#paint42_linear)"/>
<path d="M568.426 408.97C559.555 436.285 546.438 462.029 529.561 485.265L308.182 324.402L568.426 408.97Z" fill="url(#paint43_linear)"/>
<path d="M47.9388 239.825C56.8099 212.51 69.9266 186.766 86.8037 163.53L308.182 324.402L47.9388 239.825Z" fill="url(#paint44_linear)"/>
<path d="M469.017 545.811C445.785 562.691 420.045 575.81 392.735 584.682L308.182 324.402L469.017 545.811Z" fill="url(#paint45_linear)"/>
<path d="M147.347 102.984C170.58 86.104 196.319 72.9849 223.629 64.1123L308.191 324.402L147.347 102.984Z" fill="url(#paint46_linear)"/>
<path d="M308.182 598.084C279.468 598.084 250.931 593.564 223.621 584.691L308.182 324.402V598.084Z" fill="url(#paint47_linear)"/>
<path d="M308.182 50.7197C336.896 50.7197 365.433 55.2399 392.735 64.1125L308.182 324.402V50.7197Z" fill="url(#paint48_linear)"/>
<path d="M147.347 545.811C124.115 528.931 103.69 508.502 86.8126 485.265L308.182 324.402L147.347 545.811Z" fill="url(#paint49_linear)"/>
<path d="M469.017 102.984C492.249 119.864 512.675 140.293 529.552 163.529L308.182 324.401L469.017 102.984Z" fill="url(#paint50_linear)"/>
<path d="M47.9389 408.97C39.0678 381.654 34.5485 353.112 34.5485 324.402H308.182L47.9389 408.97Z" fill="url(#paint51_linear)"/>
<path d="M568.426 239.825C577.297 267.14 581.816 295.683 581.816 324.402H308.182L568.426 239.825Z" fill="url(#paint52_linear)"/>
<path d="M307.503 346.632C319.729 346.632 329.64 336.718 329.64 324.49C329.64 312.261 319.729 302.348 307.503 302.348C295.276 302.348 285.365 312.261 285.365 324.49C285.365 336.718 295.276 346.632 307.503 346.632Z" fill="url(#paint53_radial)"/>
<g clip-path="url(#clip0)">
<path d="M474.533 168.863L469.684 170.339L466.628 167.422L474.677 165.088L476.714 156.599L479.78 159.526L478.479 164.71L483.587 163.16L486.663 166.096L478.277 168.525L476.31 176.664L473.244 173.738L474.533 168.863Z" fill="#FFDA00"/>
<path d="M465.717 146.102L475.586 155.523L473.717 157.481L464.32 157.999C463.014 158.088 461.96 158.248 461.16 158.479C460.353 158.704 459.726 159.051 459.279 159.519C458.668 160.158 458.352 160.813 458.328 161.484C458.299 162.162 458.584 162.787 459.184 163.36C459.83 163.977 460.555 164.24 461.359 164.151C462.15 164.061 462.892 163.654 463.584 162.929L466.452 165.666C465.615 166.543 464.643 167.146 463.535 167.475C462.421 167.797 461.286 167.798 460.131 167.477C458.97 167.162 457.905 166.542 456.935 165.617C455.452 164.201 454.641 162.747 454.503 161.254C454.359 159.756 454.907 158.357 456.147 157.058C456.826 156.346 457.703 155.797 458.777 155.411C459.851 155.025 461.305 154.769 463.14 154.642L469.708 154.315L463.517 148.406L465.717 146.102Z" fill="#FFDA00"/>
</g>
<g clip-path="url(#clip1)">
<path d="M102.875 423.358L107.928 423.759L109.704 427.592L101.36 426.818L96.3573 433.973L94.5753 430.128L97.6835 425.779L92.3622 425.352L90.5745 421.494L99.2671 422.303L104.077 415.448L105.859 419.294L102.875 423.358Z" fill="#FFDA00"/>
<path d="M102.749 447.767L97.0126 435.388L99.4688 434.249L108.403 437.206C109.652 437.602 110.691 437.839 111.52 437.917C112.354 438.003 113.064 437.91 113.651 437.638C114.453 437.266 114.988 436.772 115.255 436.156C115.53 435.536 115.494 434.85 115.145 434.097C114.769 433.287 114.191 432.776 113.41 432.566C112.642 432.359 111.803 432.467 110.893 432.888L109.226 429.291C110.326 428.781 111.451 428.576 112.602 428.676C113.757 428.783 114.813 429.198 115.771 429.92C116.736 430.638 117.501 431.604 118.064 432.82C118.926 434.681 119.148 436.331 118.73 437.77C118.316 439.218 117.295 440.319 115.666 441.074C114.772 441.488 113.755 441.678 112.615 441.644C111.474 441.61 110.027 441.316 108.273 440.763L102.041 438.663L105.64 446.428L102.749 447.767Z" fill="#FFDA00"/>
</g>
<g clip-path="url(#clip2)">
<path d="M467.213 491.478L466.116 486.32L469.412 483.418L471.111 491.97L479.725 494.848L476.419 497.76L471.164 495.943L472.313 501.376L468.997 504.297L467.229 495.389L458.971 492.614L462.277 489.702L467.213 491.478Z" fill="#FFDA00"/>
<path d="M474.666 485.729L468.603 477.039L477.306 469.374L479.572 471.947L473.397 477.386L475.957 481.066C476.344 480.029 476.95 479.148 477.775 478.422C479.254 477.119 480.817 476.558 482.465 476.737C484.112 476.916 485.664 477.831 487.118 479.483C488.002 480.486 488.582 481.575 488.857 482.748C489.134 483.907 489.072 485.055 488.671 486.191C488.264 487.321 487.524 488.358 486.451 489.304C485.512 490.13 484.475 490.709 483.339 491.039C482.198 491.362 481.088 491.385 480.011 491.108C478.94 490.825 478.002 490.254 477.196 489.397L480.247 486.71C480.881 487.302 481.55 487.61 482.254 487.635C482.958 487.646 483.623 487.376 484.249 486.825C484.946 486.212 485.263 485.49 485.201 484.66C485.133 483.822 484.694 482.945 483.885 482.027C483.108 481.144 482.296 480.659 481.448 480.571C480.601 480.483 479.779 480.79 478.983 481.491C478.25 482.136 477.826 482.851 477.709 483.636L477.655 484.177L474.666 485.729Z" fill="#FFDA00"/>
</g>
<g clip-path="url(#clip3)">
<path d="M265.876 552.698L268.916 548.643L273.105 549.191L267.989 555.829L271.361 563.882L267.159 563.332L265.146 558.38L261.94 562.649L257.724 562.097L263.055 555.183L259.833 547.454L264.036 548.004L265.876 552.698Z" fill="#FFDA00"/>
<path d="M278.411 553.002L280.499 553.275C281.493 553.405 282.262 553.253 282.806 552.819C283.35 552.384 283.676 551.756 283.784 550.933C283.888 550.138 283.729 549.488 283.308 548.982C282.896 548.478 282.274 548.171 281.443 548.062C280.693 547.964 280.038 548.09 279.477 548.439C278.918 548.78 278.595 549.28 278.509 549.94L274.591 549.427C274.726 548.397 275.122 547.511 275.78 546.77C276.448 546.021 277.309 545.481 278.363 545.15C279.427 544.82 280.56 544.734 281.762 544.891C283.849 545.165 285.419 545.88 286.472 547.038C287.526 548.188 287.938 549.639 287.708 551.392C287.59 552.296 287.206 553.091 286.555 553.778C285.904 554.465 285.105 554.953 284.157 555.243C285.217 555.786 285.965 556.491 286.404 557.357C286.851 558.225 287.003 559.201 286.861 560.285C286.632 562.038 285.806 563.36 284.385 564.249C282.972 565.14 281.213 565.447 279.107 565.172C277.137 564.914 275.592 564.183 274.472 562.979C273.36 561.777 272.917 560.321 273.14 558.613L277.058 559.126C276.961 559.867 277.157 560.509 277.647 561.051C278.146 561.594 278.802 561.919 279.615 562.025C280.546 562.147 281.306 561.998 281.894 561.579C282.492 561.152 282.844 560.531 282.951 559.718C283.209 557.748 282.253 556.621 280.084 556.337L278.01 556.065L278.411 553.002Z" fill="#FFDA00"/>
</g>
<g clip-path="url(#clip4)">
<path d="M151.92 155.269L153.336 160.136L150.382 163.155L148.147 155.078L139.684 152.937L142.648 149.908L147.816 151.273L146.329 146.145L149.302 143.106L151.628 151.521L159.742 153.588L156.778 156.618L151.92 155.269Z" fill="#FFDA00"/>
<path d="M129.052 163.805L138.594 154.052L140.529 155.945L140.931 165.347C141.004 166.655 141.151 167.71 141.372 168.514C141.587 169.323 141.926 169.954 142.389 170.407C143.021 171.025 143.672 171.35 144.343 171.381C145.02 171.419 145.648 171.142 146.228 170.549C146.853 169.91 147.126 169.189 147.046 168.384C146.966 167.592 146.568 166.845 145.851 166.144L148.624 163.31C149.491 164.158 150.081 165.137 150.397 166.249C150.705 167.367 150.692 168.502 150.357 169.653C150.028 170.81 149.395 171.868 148.458 172.825C147.023 174.291 145.559 175.084 144.065 175.203C142.565 175.329 141.173 174.764 139.89 173.509C139.186 172.82 138.648 171.937 138.275 170.858C137.902 169.779 137.664 168.322 137.56 166.486L137.314 159.915L131.329 166.032L129.052 163.805Z" fill="#FFDA00"/>
</g>
<g clip-path="url(#clip5)">
<path d="M510.014 436.321L507.434 431.958L509.546 428.299L513.716 435.569L522.446 435.542L520.327 439.212L514.982 439.173L517.695 443.771L515.569 447.453L511.228 439.879L502.854 439.891L504.973 436.22L510.014 436.321Z" fill="#FFDA00"/>
<path d="M522.582 420.323L523.71 418.369L526.469 419.962L525.341 421.915L529.07 424.069L527.095 427.491L523.365 425.337L519.284 432.406L517.04 431.316L509.835 417.573L511.831 414.116L522.582 420.323ZM518.405 427.557L520.606 423.744L514.521 420.231L514.781 420.681L518.405 427.557Z" fill="#FFDA00"/>
</g>
<g clip-path="url(#clip6)">
<path d="M208.286 117.312C208.974 118.698 209.378 119.865 209.499 120.813C209.619 121.761 209.48 122.952 209.083 124.388L207.998 127.914C207.585 129.519 207.704 130.95 208.355 132.209C208.982 133.421 209.794 134.202 210.789 134.551C211.79 134.911 212.903 134.774 214.13 134.139C215.321 133.522 216.118 132.715 216.519 131.717C216.921 130.718 216.85 129.694 216.306 128.643L219.547 126.965C220.492 128.848 220.6 130.702 219.872 132.529C219.138 134.373 217.708 135.845 215.582 136.945C213.375 138.087 211.353 138.387 209.517 137.844C207.675 137.319 206.225 136.034 205.167 133.991C204.121 131.97 204.037 129.488 204.913 126.546L205.855 123.687C206.223 122.311 205.953 120.745 205.045 118.99L208.286 117.312ZM205.585 111.749C205.854 112.269 205.92 112.783 205.784 113.293C205.642 113.82 205.256 114.247 204.625 114.573C203.995 114.9 203.423 114.969 202.911 114.78C202.404 114.603 202.017 114.255 201.748 113.735C201.479 113.215 201.418 112.698 201.566 112.182C201.72 111.678 202.112 111.263 202.743 110.936C203.374 110.61 203.939 110.529 204.439 110.695C204.934 110.878 205.316 111.229 205.585 111.749Z" fill="#FFDA00"/>
</g>
<g clip-path="url(#clip7)">
<path d="M195.056 536.268C195.821 534.923 196.563 533.935 197.281 533.306C198 532.676 199.066 532.125 200.478 531.652L204.008 530.581C205.57 530.027 206.691 529.128 207.37 527.885C208.025 526.687 208.219 525.578 207.952 524.558C207.691 523.526 206.955 522.679 205.743 522.017C204.566 521.374 203.451 521.165 202.399 521.39C201.347 521.615 200.537 522.246 199.969 523.285L196.767 521.535C197.8 519.699 199.277 518.573 201.198 518.156C203.138 517.734 205.158 518.097 207.258 519.245C209.44 520.437 210.818 521.946 211.394 523.772C211.988 525.593 211.733 527.513 210.629 529.532C209.538 531.529 207.528 532.986 204.598 533.904L201.701 534.721C200.354 535.185 199.206 536.284 198.258 538.018L195.056 536.268ZM191.953 541.617C192.233 541.104 192.623 540.761 193.121 540.589C193.638 540.412 194.208 540.494 194.831 540.834C195.454 541.175 195.831 541.61 195.961 542.14C196.097 542.659 196.025 543.175 195.744 543.689C195.463 544.202 195.068 544.542 194.558 544.708C194.054 544.862 193.49 544.769 192.867 544.428C192.244 544.087 191.861 543.663 191.719 543.156C191.594 542.643 191.672 542.13 191.953 541.617Z" fill="#FFDA00"/>
</g>
<g clip-path="url(#clip8)">
<path d="M414.817 538.047C414.224 536.618 413.899 535.427 413.842 534.473C413.786 533.519 414.004 532.339 414.496 530.934L415.815 527.488C416.335 525.915 416.312 524.478 415.747 523.179C415.202 521.927 414.445 521.094 413.475 520.679C412.501 520.253 411.38 520.315 410.114 520.866C408.884 521.402 408.035 522.154 407.568 523.123C407.1 524.093 407.103 525.12 407.575 526.205L404.228 527.661C403.412 525.72 403.428 523.862 404.277 522.089C405.133 520.298 406.658 518.925 408.853 517.97C411.132 516.977 413.169 516.814 414.965 517.478C416.767 518.126 418.128 519.505 419.046 521.615C419.955 523.701 419.873 526.183 418.802 529.06L417.671 531.849C417.211 533.198 417.375 534.778 418.164 536.59L414.817 538.047ZM417.14 543.779C416.907 543.242 416.875 542.724 417.045 542.225C417.221 541.708 417.635 541.308 418.287 541.025C418.938 540.741 419.513 540.711 420.011 540.933C420.505 541.144 420.868 541.518 421.102 542.054C421.335 542.591 421.361 543.111 421.179 543.616C420.992 544.108 420.573 544.496 419.921 544.78C419.27 545.063 418.7 545.106 418.212 544.907C417.731 544.691 417.374 544.315 417.14 543.779Z" fill="#FFDA00"/>
</g>
<g clip-path="url(#clip9)">
<path d="M80.8085 358.232C82.3453 358.051 83.5803 358.064 84.5133 358.27C85.4463 358.476 86.5218 359.007 87.7396 359.865L90.6945 362.074C92.0663 363.003 93.4545 363.373 94.8589 363.184C96.2118 363.001 97.22 362.5 97.8834 361.681C98.5597 360.859 98.8054 359.764 98.6207 358.396C98.4412 357.066 97.949 356.044 97.1441 355.33C96.3393 354.616 95.3506 354.338 94.1781 354.496L93.6898 350.879C95.7806 350.624 97.5632 351.146 99.0377 352.447C100.527 353.759 101.431 355.601 101.752 357.973C102.084 360.437 101.686 362.441 100.556 363.987C99.4415 365.545 97.7438 366.477 95.4632 366.785C93.2084 367.09 90.8432 366.334 88.3678 364.518L85.9927 362.669C84.8206 361.858 83.2553 361.585 81.2969 361.849L80.8085 358.232ZM74.6608 358.903C75.2406 358.825 75.7475 358.936 76.1816 359.235C76.6303 359.546 76.9021 360.054 76.9971 360.758C77.0922 361.462 76.9646 362.023 76.6144 362.442C76.2772 362.859 75.8186 363.107 75.2388 363.185C74.659 363.263 74.1512 363.146 73.7154 362.833C73.2925 362.519 73.0335 362.009 72.9385 361.306C72.8434 360.602 72.9581 360.042 73.2825 359.627C73.6215 359.223 74.081 358.981 74.6608 358.903Z" fill="#FFDA00"/>
</g>
<g clip-path="url(#clip10)">
<path d="M332.343 184.155L331.271 191.234L338.722 192.362L338.385 194.587L321.515 192.032L323.097 181.581L324.928 181.858L323.682 190.085L329.452 190.959L330.524 183.879L332.343 184.155Z" fill="#FFDA00"/>
<path d="M330.579 174.441C330.475 174.757 330.395 175.105 330.338 175.483C330.125 176.889 330.579 177.934 331.7 178.617L340.599 179.964L340.274 182.108L327.738 180.21L328.053 178.124L329.507 178.309C328.493 177.436 328.084 176.355 328.28 175.065C328.343 174.648 328.445 174.339 328.586 174.139L330.579 174.441Z" fill="#FFDA00"/>
<path d="M342.476 169.131C342.219 170.831 341.454 172.129 340.18 173.027C338.898 173.923 337.323 174.23 335.454 173.947L335.06 173.887C333.816 173.699 332.743 173.295 331.841 172.677C330.933 172.049 330.269 171.269 329.849 170.336C329.423 169.395 329.285 168.426 329.436 167.429C329.683 165.799 330.411 164.614 331.622 163.873C332.832 163.131 334.438 162.912 336.439 163.215L337.331 163.35L336.045 171.843C337.285 172 338.34 171.792 339.209 171.22C340.071 170.64 340.583 169.816 340.744 168.75C340.859 167.993 340.802 167.329 340.572 166.757C340.343 166.185 340.003 165.663 339.553 165.192L340.771 164.037C342.226 165.332 342.795 167.03 342.476 169.131ZM331.197 167.696C331.066 168.561 331.273 169.335 331.817 170.018C332.354 170.7 333.18 171.196 334.294 171.507L335.245 165.227L335.083 165.203C333.984 165.1 333.098 165.266 332.424 165.701C331.742 166.135 331.333 166.8 331.197 167.696Z" fill="#FFDA00"/>
<path d="M344.382 156.548C344.125 158.248 343.359 159.546 342.085 160.444C340.804 161.34 339.228 161.647 337.359 161.363L336.965 161.304C335.722 161.116 334.649 160.712 333.747 160.094C332.838 159.466 332.174 158.686 331.754 157.753C331.328 156.812 331.19 155.843 331.341 154.846C331.588 153.216 332.317 152.031 333.527 151.29C334.738 150.548 336.343 150.329 338.344 150.632L339.236 150.767L337.95 159.26C339.191 159.417 340.245 159.209 341.114 158.637C341.977 158.057 342.488 157.233 342.65 156.167C342.764 155.41 342.707 154.746 342.478 154.174C342.248 153.602 341.908 153.08 341.458 152.609L342.676 151.454C344.131 152.749 344.7 154.447 344.382 156.548ZM333.102 155.113C332.971 155.978 333.178 156.752 333.723 157.435C334.26 158.117 335.085 158.613 336.2 158.924L337.151 152.644L336.988 152.62C335.89 152.516 335.003 152.682 334.329 153.118C333.647 153.552 333.238 154.217 333.102 155.113Z" fill="#FFDA00"/>
<path d="M339.709 142.791C337.755 142.495 336.271 141.808 335.257 140.73C334.235 139.651 333.837 138.366 334.063 136.875C334.294 135.346 335.016 134.234 336.227 133.541L334.852 133.226L335.149 131.268L347.384 133.12C349.006 133.366 350.212 134.042 351 135.149C351.79 136.249 352.062 137.61 351.816 139.232C351.679 140.135 351.352 140.991 350.835 141.797C350.318 142.604 349.689 143.184 348.948 143.538L347.83 142.231C349.105 141.484 349.843 140.446 350.044 139.117C350.202 138.075 350.031 137.219 349.532 136.551C349.033 135.875 348.251 135.456 347.185 135.295L346.108 135.132C346.967 136.139 347.284 137.384 347.059 138.867C346.837 140.335 346.066 141.435 344.746 142.167C343.427 142.892 341.749 143.1 339.709 142.791ZM340.279 140.673C341.692 140.887 342.849 140.766 343.747 140.309C344.639 139.852 345.163 139.101 345.321 138.058C345.526 136.707 345.062 135.621 343.93 134.802L338.206 133.935C336.909 134.41 336.161 135.304 335.962 136.618C335.805 137.66 336.087 138.537 336.809 139.247C337.531 139.957 338.688 140.432 340.279 140.673Z" fill="#FFDA00"/>
<path d="M349.349 122.182C349.083 122.268 348.627 122.302 347.982 122.283C348.867 123.436 349.204 124.704 348.995 126.087C348.807 127.323 348.306 128.286 347.49 128.976C346.668 129.658 345.72 129.917 344.646 129.755C343.341 129.557 342.404 128.909 341.835 127.812C341.26 126.705 341.109 125.252 341.381 123.452L341.697 121.367L340.712 121.218C339.963 121.104 339.334 121.238 338.826 121.62C338.31 122 337.986 122.626 337.854 123.499C337.738 124.264 337.834 124.934 338.142 125.51C338.45 126.086 338.878 126.416 339.427 126.499L339.1 128.654C338.475 128.559 337.905 128.248 337.393 127.72C336.874 127.183 336.501 126.51 336.276 125.702C336.052 124.886 336.009 124.022 336.147 123.11C336.366 121.666 336.9 120.589 337.75 119.88C338.593 119.17 339.65 118.896 340.921 119.057L346.691 119.93C347.842 120.105 348.78 120.097 349.504 119.906L349.689 119.934L349.349 122.182ZM347.177 125.492C347.278 124.82 347.201 124.156 346.945 123.501C346.688 122.846 346.302 122.341 345.787 121.986L343.215 121.597L342.961 123.277C342.563 125.903 343.133 127.333 344.67 127.565C345.342 127.667 345.901 127.523 346.347 127.132C346.794 126.741 347.07 126.194 347.177 125.492Z" fill="#FFDA00"/>
<path d="M337.9 113.1L339.299 113.252C338.357 112.169 338.004 110.848 338.24 109.287C338.506 107.534 339.358 106.442 340.798 106.012C340.259 105.504 339.854 104.89 339.584 104.169C339.315 103.441 339.25 102.621 339.388 101.71C339.804 98.9598 341.472 97.7821 344.391 98.1767L352.791 99.4488L352.467 101.592L344.194 100.34C343.298 100.204 342.599 100.307 342.096 100.65C341.586 100.992 341.258 101.645 341.112 102.611C340.992 103.406 341.131 104.103 341.53 104.701C341.922 105.298 342.513 105.699 343.304 105.906L351.623 107.166L351.296 109.321L343.081 108.077C341.259 107.801 340.212 108.555 339.942 110.339C339.729 111.745 340.182 112.797 341.301 113.496L350.454 114.882L350.13 117.026L337.593 115.127L337.9 113.1Z" fill="#FFDA00"/>
<path d="M354.302 91.0372C354.045 92.7366 353.279 94.035 352.006 94.9326C350.724 95.8289 349.149 96.1356 347.279 95.8525L346.885 95.7929C345.642 95.6046 344.569 95.2011 343.667 94.5825C342.759 93.9551 342.094 93.175 341.675 92.2422C341.248 91.3006 341.111 90.3316 341.262 89.3351C341.508 87.7052 342.237 86.5197 343.448 85.7786C344.658 85.0374 346.264 84.8183 348.264 85.1212L349.157 85.2563L347.87 93.7494C349.111 93.9056 350.166 93.6979 351.035 93.1262C351.897 92.5457 352.409 91.7224 352.57 90.6564C352.685 89.8994 352.627 89.2349 352.398 88.6628C352.168 88.0908 351.829 87.5692 351.378 87.098L352.596 85.9432C354.052 87.2381 354.62 88.9362 354.302 91.0372ZM343.023 89.6018C342.892 90.4669 343.098 91.241 343.643 91.924C344.18 92.6058 345.005 93.1022 346.12 93.4131L347.071 87.1332L346.909 87.1086C345.81 87.0055 344.924 87.1715 344.249 87.6067C343.567 88.0407 343.158 88.7058 343.023 89.6018Z" fill="#FFDA00"/>
</g>
<g clip-path="url(#clip11)">
<path d="M441.091 304.651L433.993 305.592L434.984 313.062L432.753 313.358L430.51 296.443L440.989 295.054L441.232 296.889L432.984 297.983L433.751 303.768L440.849 302.827L441.091 304.651Z" fill="#FFDA00"/>
<path d="M449.929 300.251C449.597 300.24 449.241 300.26 448.861 300.31C447.452 300.497 446.575 301.224 446.231 302.491L447.414 311.413L445.265 311.698L443.598 299.129L445.689 298.851L445.916 300.299C446.472 299.082 447.397 298.388 448.69 298.217C449.108 298.161 449.433 298.174 449.664 298.253L449.929 300.251Z" fill="#FFDA00"/>
<path d="M458.342 310.2C456.638 310.426 455.178 310.053 453.961 309.079C452.743 308.098 452.01 306.67 451.761 304.796L451.709 304.401C451.544 303.154 451.633 302.011 451.976 300.973C452.325 299.926 452.89 299.071 453.669 298.408C454.454 297.736 455.347 297.334 456.346 297.202C457.98 296.985 459.321 297.355 460.37 298.311C461.419 299.267 462.077 300.748 462.343 302.754L462.461 303.649L453.946 304.778C454.141 306.013 454.634 306.968 455.425 307.644C456.223 308.31 457.156 308.573 458.225 308.431C458.984 308.33 459.606 308.09 460.092 307.71C460.577 307.331 460.984 306.859 461.311 306.296L462.759 307.144C461.921 308.902 460.448 309.921 458.342 310.2ZM456.58 298.967C455.713 299.082 455.027 299.497 454.522 300.21C454.017 300.915 453.77 301.846 453.782 303.003L460.078 302.168L460.056 302.005C459.85 300.922 459.443 300.117 458.838 299.59C458.231 299.056 457.478 298.848 456.58 298.967Z" fill="#FFDA00"/>
<path d="M470.958 308.527C469.254 308.753 467.794 308.379 466.577 307.406C465.359 306.425 464.626 304.997 464.378 303.123L464.325 302.728C464.16 301.481 464.249 300.338 464.592 299.3C464.941 298.253 465.506 297.397 466.285 296.735C467.07 296.063 467.963 295.661 468.962 295.528C470.596 295.312 471.937 295.682 472.986 296.638C474.035 297.594 474.693 299.075 474.959 301.081L475.077 301.976L466.562 303.105C466.757 304.34 467.251 305.295 468.042 305.971C468.839 306.637 469.772 306.899 470.841 306.758C471.6 306.657 472.222 306.417 472.708 306.037C473.194 305.658 473.6 305.186 473.927 304.623L475.375 305.471C474.537 307.229 473.064 308.248 470.958 308.527ZM469.196 297.294C468.329 297.409 467.643 297.823 467.138 298.536C466.633 299.242 466.386 300.173 466.398 301.33L472.694 300.495L472.672 300.332C472.466 299.248 472.059 298.443 471.454 297.917C470.847 297.383 470.094 297.175 469.196 297.294Z" fill="#FFDA00"/>
<path d="M491.105 302.226C491.028 301.645 490.748 301.225 490.264 300.966C489.787 300.699 488.987 300.521 487.865 300.433C486.749 300.345 485.849 300.181 485.163 299.941C484.485 299.7 483.961 299.375 483.592 298.967C483.23 298.558 483.008 298.043 482.926 297.424C482.789 296.394 483.108 295.465 483.88 294.637C484.661 293.809 485.729 293.305 487.084 293.125C488.509 292.936 489.712 293.151 490.693 293.769C491.681 294.387 492.251 295.269 492.403 296.415L490.242 296.702C490.164 296.113 489.845 295.639 489.285 295.28C488.733 294.92 488.078 294.79 487.319 294.891C486.536 294.994 485.947 295.246 485.551 295.645C485.155 296.045 484.993 296.519 485.066 297.069C485.135 297.588 485.392 297.952 485.837 298.161C486.283 298.37 487.056 298.523 488.156 298.622C489.265 298.719 490.174 298.89 490.884 299.135C491.594 299.379 492.139 299.717 492.52 300.147C492.907 300.569 493.145 301.116 493.234 301.79C493.383 302.913 493.053 303.875 492.245 304.676C491.436 305.469 490.316 305.96 488.883 306.15C487.876 306.284 486.962 306.224 486.14 305.97C485.318 305.716 484.645 305.301 484.119 304.725C483.6 304.14 483.291 303.475 483.193 302.732L485.342 302.447C485.476 303.162 485.839 303.697 486.429 304.052C487.027 304.398 487.767 304.513 488.65 304.396C489.463 304.288 490.092 304.039 490.537 303.649C490.989 303.25 491.178 302.776 491.105 302.226Z" fill="#FFDA00"/>
<path d="M506.299 297.35C506.553 299.263 506.319 300.862 505.599 302.148C504.879 303.433 503.772 304.175 502.277 304.374C500.751 304.576 499.487 304.251 498.483 303.399L499.286 309.452L497.137 309.737L494.829 292.334L496.792 292.074L497.082 293.454C497.813 292.254 498.957 291.55 500.514 291.344C502.024 291.144 503.292 291.555 504.318 292.577C505.352 293.598 506.004 295.124 506.273 297.153L506.299 297.35ZM504.117 297.391C503.929 295.974 503.479 294.895 502.766 294.154C502.053 293.413 501.17 293.113 500.117 293.253C498.816 293.425 497.916 294.131 497.419 295.372L498.215 301.378C499.01 302.439 500.07 302.881 501.394 302.706C502.424 302.569 503.187 302.054 503.683 301.161C504.186 300.259 504.331 299.002 504.117 297.391Z" fill="#FFDA00"/>
<path d="M512.191 302.822L510.041 303.107L508.374 290.538L510.524 290.253L512.191 302.822ZM507.758 287.227C507.712 286.878 507.777 286.57 507.955 286.302C508.14 286.033 508.441 285.871 508.859 285.816C509.278 285.76 509.611 285.838 509.86 286.05C510.108 286.261 510.256 286.541 510.302 286.889C510.348 287.238 510.278 287.543 510.092 287.804C509.906 288.065 509.604 288.223 509.186 288.279C508.768 288.334 508.435 288.26 508.187 288.057C507.947 287.852 507.804 287.575 507.758 287.227Z" fill="#FFDA00"/>
<path d="M516.007 289.526L516.286 291.096C517.086 289.761 518.261 288.99 519.81 288.785C522.466 288.432 524.005 289.753 524.425 292.748L525.527 301.054L523.378 301.339L522.275 293.021C522.147 292.116 521.849 291.474 521.381 291.094C520.921 290.714 520.261 290.581 519.401 290.695C518.704 290.787 518.117 291.054 517.639 291.496C517.162 291.938 516.816 292.48 516.602 293.123L517.79 302.08L515.641 302.365L513.974 289.795L516.007 289.526Z" fill="#FFDA00"/>
<path d="M537.828 291.301L540.008 286.343L542.517 286.01L539.229 292.77L544.312 298.562L541.826 298.892L538.297 294.572L536.017 299.662L533.519 299.994L536.917 293.077L531.98 287.407L534.466 287.077L537.828 291.301Z" fill="#FFDA00"/>
<path d="M557.334 296.835L546.252 298.305L546.047 296.76L551.039 289.478C551.776 288.379 552.266 287.503 552.511 286.848C552.761 286.184 552.843 285.523 552.756 284.865C552.639 283.982 552.276 283.293 551.666 282.798C551.057 282.304 550.307 282.116 549.416 282.234C548.347 282.376 547.555 282.792 547.04 283.483C546.532 284.165 546.349 285.048 546.493 286.133L544.344 286.418C544.138 284.861 544.47 283.536 545.342 282.443C546.221 281.349 547.501 280.691 549.182 280.468C550.754 280.26 552.052 280.509 553.076 281.217C554.099 281.916 554.701 282.952 554.883 284.322C555.104 285.988 554.306 288.111 552.489 290.692L548.61 296.207L557.102 295.081L557.334 296.835Z" fill="#FFDA00"/>
</g>
<g clip-path="url(#clip12)">
<path d="M146.569 485.687L141.522 490.766L146.867 496.077L145.281 497.673L133.178 485.647L140.628 478.148L141.942 479.454L136.077 485.356L140.217 489.469L145.264 484.39L146.569 485.687Z" fill="#FFDA00"/>
<path d="M150.883 476.806C150.613 477.001 150.343 477.234 150.073 477.505C149.071 478.514 148.82 479.625 149.321 480.839L155.705 487.182L154.177 488.72L145.183 479.783L146.67 478.287L147.734 479.294C147.431 477.991 147.74 476.877 148.659 475.952C148.957 475.652 149.221 475.464 149.453 475.386L150.883 476.806Z" fill="#FFDA00"/>
<path d="M163.619 479.55C162.408 480.769 161.023 481.365 159.465 481.337C157.902 481.303 156.45 480.62 155.108 479.287L154.826 479.006C153.934 478.12 153.306 477.161 152.944 476.129C152.581 475.086 152.506 474.064 152.719 473.063C152.931 472.052 153.392 471.189 154.103 470.474C155.264 469.304 156.553 468.778 157.967 468.895C159.382 469.012 160.807 469.784 162.242 471.21L162.882 471.846L156.828 477.939C157.736 478.798 158.71 479.254 159.749 479.305C160.788 479.346 161.687 478.984 162.447 478.22C162.986 477.677 163.333 477.106 163.485 476.509C163.638 475.912 163.672 475.291 163.587 474.645L165.252 474.432C165.661 476.337 165.117 478.043 163.619 479.55ZM155.366 471.729C154.749 472.35 154.459 473.097 154.495 473.969C154.525 474.836 154.898 475.725 155.614 476.634L160.091 472.128L159.974 472.013C159.149 471.281 158.335 470.891 157.534 470.844C156.728 470.791 156.005 471.086 155.366 471.729Z" fill="#FFDA00"/>
<path d="M172.59 470.522C171.378 471.741 169.994 472.337 168.436 472.309C166.872 472.275 165.42 471.592 164.079 470.259L163.796 469.979C162.904 469.092 162.277 468.133 161.914 467.101C161.552 466.058 161.477 465.036 161.689 464.036C161.901 463.024 162.362 462.161 163.073 461.446C164.235 460.277 165.523 459.75 166.937 459.867C168.352 459.984 169.777 460.756 171.212 462.182L171.852 462.818L165.798 468.912C166.707 469.77 167.68 470.226 168.719 470.278C169.758 470.319 170.657 469.957 171.417 469.192C171.957 468.649 172.303 468.079 172.456 467.482C172.608 466.884 172.642 466.263 172.557 465.617L174.222 465.404C174.632 467.309 174.088 469.015 172.59 470.522ZM164.336 462.701C163.72 463.322 163.429 464.069 163.465 464.941C163.495 465.809 163.868 466.697 164.584 467.606L169.061 463.101L168.944 462.985C168.119 462.253 167.306 461.863 166.505 461.816C165.698 461.763 164.975 462.059 164.336 462.701Z" fill="#FFDA00"/>
<path d="M184.699 453.231C184.283 452.818 183.805 452.657 183.264 452.747C182.723 452.826 181.981 453.174 181.038 453.79C180.101 454.4 179.287 454.82 178.598 455.049C177.913 455.272 177.3 455.335 176.759 455.237C176.223 455.134 175.733 454.862 175.289 454.421C174.552 453.689 174.237 452.759 174.344 451.632C174.457 450.499 174.995 449.448 175.958 448.478C176.971 447.458 178.055 446.894 179.209 446.785C180.369 446.671 181.359 447.021 182.179 447.836L180.643 449.383C180.222 448.964 179.68 448.784 179.017 448.841C178.36 448.893 177.761 449.19 177.222 449.733C176.666 450.293 176.352 450.852 176.282 451.41C176.212 451.968 176.374 452.443 176.768 452.834C177.139 453.203 177.565 453.334 178.045 453.228C178.525 453.121 179.231 452.771 180.163 452.177C181.1 451.577 181.925 451.157 182.637 450.918C183.348 450.678 183.986 450.612 184.55 450.721C185.114 450.819 185.637 451.107 186.119 451.586C186.923 452.384 187.249 453.347 187.098 454.475C186.941 455.597 186.353 456.67 185.335 457.696C184.619 458.416 183.858 458.927 183.053 459.228C182.247 459.528 181.46 459.611 180.692 459.475C179.923 459.329 179.273 458.991 178.741 458.462L180.269 456.925C180.812 457.409 181.426 457.611 182.111 457.532C182.796 457.441 183.452 457.08 184.08 456.448C184.658 455.866 185.004 455.285 185.118 454.705C185.232 454.113 185.092 453.622 184.699 453.231Z" fill="#FFDA00"/>
<path d="M193.756 440.093C195.124 441.453 195.916 442.862 196.131 444.32C196.345 445.778 195.921 447.041 194.858 448.111C193.774 449.203 192.574 449.717 191.259 449.655L195.59 453.959L194.062 455.497L181.609 443.123L183.005 441.718L184.077 442.635C183.923 441.238 184.4 439.982 185.507 438.868C186.58 437.788 187.836 437.339 189.273 437.522C190.715 437.7 192.162 438.51 193.614 439.953L193.756 440.093ZM192.053 441.458C191.039 440.45 190.023 439.87 189.006 439.719C187.989 439.567 187.106 439.869 186.357 440.622C185.432 441.553 185.151 442.662 185.515 443.948L189.812 448.218C191.09 448.573 192.199 448.277 193.141 447.329C193.873 446.592 194.163 445.718 194.011 444.708C193.858 443.686 193.206 442.603 192.053 441.458Z" fill="#FFDA00"/>
<path d="M201.763 440.83L200.235 442.368L191.24 433.431L192.768 431.893L201.763 440.83ZM188.73 431.185C188.481 430.937 188.345 430.653 188.322 430.332C188.304 430.007 188.444 429.694 188.741 429.395C189.039 429.095 189.35 428.954 189.676 428.969C190.002 428.985 190.29 429.116 190.539 429.364C190.789 429.612 190.919 429.896 190.931 430.216C190.944 430.537 190.801 430.847 190.504 431.146C190.206 431.445 189.897 431.59 189.577 431.58C189.262 431.564 188.98 431.432 188.73 431.185Z" fill="#FFDA00"/>
<path d="M196.667 427.969L197.847 429.042C197.665 427.496 198.125 426.169 199.226 425.061C201.115 423.16 203.14 423.266 205.301 425.381L211.245 431.287L209.717 432.825L203.765 426.911C203.111 426.272 202.483 425.945 201.881 425.93C201.284 425.91 200.68 426.208 200.069 426.823C199.573 427.322 199.271 427.892 199.163 428.533C199.054 429.174 199.112 429.815 199.335 430.455L205.744 436.823L204.216 438.361L195.221 429.424L196.667 427.969Z" fill="#FFDA00"/>
<path d="M215.033 416.052L213.732 410.795L215.516 408.999L217.039 416.361L224.601 417.845L222.834 419.624L217.402 418.357L218.704 423.78L216.928 425.567L215.396 418.015L208.024 416.539L209.792 414.76L215.033 416.052Z" fill="#FFDA00"/>
<path d="M233.861 408.526L225.981 416.457L224.875 415.358L224.383 406.543C224.296 405.223 224.149 404.229 223.942 403.561C223.736 402.882 223.397 402.309 222.926 401.841C222.294 401.213 221.586 400.889 220.802 400.87C220.017 400.85 219.308 401.159 218.675 401.796C217.915 402.561 217.542 403.374 217.556 404.236C217.569 405.087 217.964 405.898 218.74 406.669L217.212 408.206C216.098 407.1 215.553 405.847 215.576 404.45C215.605 403.046 216.216 401.743 217.411 400.541C218.529 399.416 219.709 398.821 220.952 398.756C222.189 398.686 223.298 399.138 224.279 400.113C225.471 401.297 226.135 403.466 226.272 406.62L226.567 413.356L232.605 407.279L233.861 408.526Z" fill="#FFDA00"/>
</g>
<defs>
<linearGradient id="paint0_linear" x1="1075.64" y1="-502.809" x2="-1182.85" y2="1755.29" gradientUnits="userSpaceOnUse">
<stop stop-color="#50DBFF"/>
<stop offset="0.5244" stop-color="#2069FF"/>
<stop offset="0.7622" stop-color="#915DC0"/>
<stop offset="1" stop-color="#FF5183"/>
</linearGradient>
<linearGradient id="paint1_linear" x1="1075.64" y1="-502.809" x2="-1182.85" y2="1755.29" gradientUnits="userSpaceOnUse">
<stop stop-color="#50DBFF"/>
<stop offset="0.5244" stop-color="#2069FF"/>
<stop offset="0.7622" stop-color="#915DC0"/>
<stop offset="1" stop-color="#FF5183"/>
</linearGradient>
<linearGradient id="paint2_linear" x1="1075.64" y1="-502.809" x2="-1182.85" y2="1755.29" gradientUnits="userSpaceOnUse">
<stop stop-color="#50DBFF"/>
<stop offset="0.5244" stop-color="#2069FF"/>
<stop offset="0.7622" stop-color="#915DC0"/>
<stop offset="1" stop-color="#FF5183"/>
</linearGradient>
<linearGradient id="paint3_linear" x1="1075.64" y1="-502.809" x2="-1182.85" y2="1755.29" gradientUnits="userSpaceOnUse">
<stop stop-color="#50DBFF"/>
<stop offset="0.5244" stop-color="#2069FF"/>
<stop offset="0.7622" stop-color="#915DC0"/>
<stop offset="1" stop-color="#FF5183"/>
</linearGradient>
<linearGradient id="paint4_linear" x1="1075.64" y1="-502.81" x2="-1182.85" y2="1755.28" gradientUnits="userSpaceOnUse">
<stop stop-color="#50DBFF"/>
<stop offset="0.5244" stop-color="#2069FF"/>
<stop offset="0.7622" stop-color="#915DC0"/>
<stop offset="1" stop-color="#FF5183"/>
</linearGradient>
<linearGradient id="paint5_linear" x1="1075.64" y1="-502.809" x2="-1182.85" y2="1755.29" gradientUnits="userSpaceOnUse">
<stop stop-color="#50DBFF"/>
<stop offset="0.5244" stop-color="#2069FF"/>
<stop offset="0.7622" stop-color="#915DC0"/>
<stop offset="1" stop-color="#FF5183"/>
</linearGradient>
<linearGradient id="paint6_linear" x1="1075.65" y1="-502.809" x2="-1182.85" y2="1755.29" gradientUnits="userSpaceOnUse">
<stop stop-color="#50DBFF"/>
<stop offset="0.5244" stop-color="#2069FF"/>
<stop offset="0.7622" stop-color="#915DC0"/>
<stop offset="1" stop-color="#FF5183"/>
</linearGradient>
<linearGradient id="paint7_linear" x1="1075.64" y1="-502.809" x2="-1182.85" y2="1755.29" gradientUnits="userSpaceOnUse">
<stop stop-color="#50DBFF"/>
<stop offset="0.5244" stop-color="#2069FF"/>
<stop offset="0.7622" stop-color="#915DC0"/>
<stop offset="1" stop-color="#FF5183"/>
</linearGradient>
<linearGradient id="paint8_linear" x1="1075.64" y1="-502.809" x2="-1182.85" y2="1755.29" gradientUnits="userSpaceOnUse">
<stop stop-color="#50DBFF"/>
<stop offset="0.5244" stop-color="#2069FF"/>
<stop offset="0.7622" stop-color="#915DC0"/>
<stop offset="1" stop-color="#FF5183"/>
</linearGradient>
<linearGradient id="paint9_linear" x1="1075.64" y1="-502.809" x2="-1182.85" y2="1755.28" gradientUnits="userSpaceOnUse">
<stop stop-color="#50DBFF"/>
<stop offset="0.5244" stop-color="#2069FF"/>
<stop offset="0.7622" stop-color="#915DC0"/>
<stop offset="1" stop-color="#FF5183"/>
</linearGradient>
<linearGradient id="paint10_linear" x1="1075.65" y1="-502.809" x2="-1182.85" y2="1755.29" gradientUnits="userSpaceOnUse">
<stop stop-color="#50DBFF"/>
<stop offset="0.5244" stop-color="#2069FF"/>
<stop offset="0.7622" stop-color="#915DC0"/>
<stop offset="1" stop-color="#FF5183"/>
</linearGradient>
<linearGradient id="paint11_linear" x1="1075.64" y1="-502.809" x2="-1182.85" y2="1755.29" gradientUnits="userSpaceOnUse">
<stop stop-color="#50DBFF"/>
<stop offset="0.5244" stop-color="#2069FF"/>
<stop offset="0.7622" stop-color="#915DC0"/>
<stop offset="1" stop-color="#FF5183"/>
</linearGradient>
<linearGradient id="paint12_linear" x1="1075.64" y1="-502.809" x2="-1182.85" y2="1755.28" gradientUnits="userSpaceOnUse">
<stop stop-color="#50DBFF"/>
<stop offset="0.5244" stop-color="#2069FF"/>
<stop offset="0.7622" stop-color="#915DC0"/>
<stop offset="1" stop-color="#FF5183"/>
</linearGradient>
<linearGradient id="paint13_linear" x1="1075.64" y1="-502.809" x2="-1182.85" y2="1755.29" gradientUnits="userSpaceOnUse">
<stop stop-color="#50DBFF"/>
<stop offset="0.5244" stop-color="#2069FF"/>
<stop offset="0.7622" stop-color="#915DC0"/>
<stop offset="1" stop-color="#FF5183"/>
</linearGradient>
<linearGradient id="paint14_linear" x1="1075.64" y1="-502.809" x2="-1182.85" y2="1755.29" gradientUnits="userSpaceOnUse">
<stop stop-color="#50DBFF"/>
<stop offset="0.5244" stop-color="#2069FF"/>
<stop offset="0.7622" stop-color="#915DC0"/>
<stop offset="1" stop-color="#FF5183"/>
</linearGradient>
<linearGradient id="paint15_linear" x1="1075.64" y1="-502.809" x2="-1182.85" y2="1755.29" gradientUnits="userSpaceOnUse">
<stop stop-color="#50DBFF"/>
<stop offset="0.5244" stop-color="#2069FF"/>
<stop offset="0.7622" stop-color="#915DC0"/>
<stop offset="1" stop-color="#FF5183"/>
</linearGradient>
<linearGradient id="paint16_linear" x1="1075.64" y1="-502.809" x2="-1182.85" y2="1755.29" gradientUnits="userSpaceOnUse">
<stop stop-color="#50DBFF"/>
<stop offset="0.5244" stop-color="#2069FF"/>
<stop offset="0.7622" stop-color="#915DC0"/>
<stop offset="1" stop-color="#FF5183"/>
</linearGradient>
<linearGradient id="paint17_linear" x1="1075.64" y1="-502.809" x2="-1182.85" y2="1755.29" gradientUnits="userSpaceOnUse">
<stop stop-color="#50DBFF"/>
<stop offset="0.5244" stop-color="#2069FF"/>
<stop offset="0.7622" stop-color="#915DC0"/>
<stop offset="1" stop-color="#FF5183"/>
</linearGradient>
<linearGradient id="paint18_linear" x1="1075.64" y1="-502.809" x2="-1182.85" y2="1755.29" gradientUnits="userSpaceOnUse">
<stop stop-color="#50DBFF"/>
<stop offset="0.5244" stop-color="#2069FF"/>
<stop offset="0.7622" stop-color="#915DC0"/>
<stop offset="1" stop-color="#FF5183"/>
</linearGradient>
<linearGradient id="paint19_linear" x1="1075.65" y1="-502.809" x2="-1182.85" y2="1755.29" gradientUnits="userSpaceOnUse">
<stop stop-color="#50DBFF"/>
<stop offset="0.5244" stop-color="#2069FF"/>
<stop offset="0.7622" stop-color="#915DC0"/>
<stop offset="1" stop-color="#FF5183"/>
</linearGradient>
<linearGradient id="paint20_linear" x1="1075.64" y1="-502.809" x2="-1182.85" y2="1755.28" gradientUnits="userSpaceOnUse">
<stop stop-color="#50DBFF"/>
<stop offset="0.5244" stop-color="#2069FF"/>
<stop offset="0.7622" stop-color="#915DC0"/>
<stop offset="1" stop-color="#FF5183"/>
</linearGradient>
<linearGradient id="paint21_linear" x1="1075.64" y1="-502.809" x2="-1182.85" y2="1755.29" gradientUnits="userSpaceOnUse">
<stop stop-color="#50DBFF"/>
<stop offset="0.5244" stop-color="#2069FF"/>
<stop offset="0.7622" stop-color="#915DC0"/>
<stop offset="1" stop-color="#FF5183"/>
</linearGradient>
<linearGradient id="paint22_linear" x1="1075.64" y1="-502.809" x2="-1182.85" y2="1755.29" gradientUnits="userSpaceOnUse">
<stop stop-color="#50DBFF"/>
<stop offset="0.5244" stop-color="#2069FF"/>
<stop offset="0.7622" stop-color="#915DC0"/>
<stop offset="1" stop-color="#FF5183"/>
</linearGradient>
<linearGradient id="paint23_linear" x1="1075.64" y1="-502.809" x2="-1182.85" y2="1755.29" gradientUnits="userSpaceOnUse">
<stop stop-color="#50DBFF"/>
<stop offset="0.5244" stop-color="#2069FF"/>
<stop offset="0.7622" stop-color="#915DC0"/>
<stop offset="1" stop-color="#FF5183"/>
</linearGradient>
<linearGradient id="paint24_linear" x1="1075.64" y1="-502.809" x2="-1182.85" y2="1755.29" gradientUnits="userSpaceOnUse">
<stop stop-color="#50DBFF"/>
<stop offset="0.5244" stop-color="#2069FF"/>
<stop offset="0.7622" stop-color="#915DC0"/>
<stop offset="1" stop-color="#FF5183"/>
</linearGradient>
<linearGradient id="paint25_linear" x1="1075.65" y1="-502.81" x2="-1182.85" y2="1755.29" gradientUnits="userSpaceOnUse">
<stop stop-color="#50DBFF"/>
<stop offset="0.5244" stop-color="#2069FF"/>
<stop offset="0.7622" stop-color="#915DC0"/>
<stop offset="1" stop-color="#FF5183"/>
</linearGradient>
<linearGradient id="paint26_linear" x1="543.475" y1="89.4103" x2="88.6963" y2="544.109" gradientUnits="userSpaceOnUse">
<stop stop-color="#0E5DF8"/>
<stop offset="0.3103" stop-color="#0F4EE0"/>
<stop offset="0.9631" stop-color="#1026A3"/>
<stop offset="1" stop-color="#10249F"/>
</linearGradient>
<linearGradient id="paint27_linear" x1="110.147" y1="126.219" x2="531.243" y2="547.242" gradientUnits="userSpaceOnUse">
<stop stop-color="#FFFB90"/>
<stop offset="0.1415" stop-color="#FBEA78"/>
<stop offset="0.2392" stop-color="#F8DC65"/>
<stop offset="0.2703" stop-color="#E6C758"/>
<stop offset="0.3368" stop-color="#C5A041"/>
<stop offset="0.3979" stop-color="#AD8330"/>
<stop offset="0.451" stop-color="#9E7226"/>
<stop offset="0.4902" stop-color="#996C22"/>
<stop offset="0.52" stop-color="#9D7126"/>
<stop offset="0.5575" stop-color="#AA8131"/>
<stop offset="0.5991" stop-color="#BE9B42"/>
<stop offset="0.6434" stop-color="#DABE5B"/>
<stop offset="0.6865" stop-color="#FBE878"/>
<stop offset="0.7724" stop-color="#FFFFAA"/>
<stop offset="0.8333" stop-color="#FBE878"/>
<stop offset="1" stop-color="#A4631B"/>
</linearGradient>
<linearGradient id="paint28_linear" x1="455.089" y1="-189.652" x2="6.75238" y2="59.3896" gradientUnits="userSpaceOnUse">
<stop offset="0.0395832" stop-color="#915DC0"/>
<stop offset="0.376639" stop-color="#34065E"/>
<stop offset="0.763542" stop-color="#915DC0"/>
<stop offset="1" stop-color="#280349"/>
</linearGradient>
<linearGradient id="paint29_linear" x1="504.916" y1="127.968" x2="111.791" y2="521.024" gradientUnits="userSpaceOnUse">
<stop stop-color="#FFDA00"/>
<stop offset="0.3103" stop-color="#FFDA00"/>
<stop offset="0.9631" stop-color="#FF7A00"/>
<stop offset="1" stop-color="#FF7A00"/>
</linearGradient>
<radialGradient id="paint30_radial" cx="0" cy="0" r="1" gradientUnits="userSpaceOnUse" gradientTransform="translate(308.409 324.517) scale(289.631 289.682)">
<stop offset="0.3738" stop-color="#FDFDFD"/>
<stop offset="0.649" stop-color="#FBFBFB"/>
<stop offset="0.8098" stop-color="#F2F2F2"/>
<stop offset="0.9409" stop-color="#E4E4E4"/>
<stop offset="1" stop-color="#DBDBDB"/>
</radialGradient>
<radialGradient id="paint31_radial" cx="0" cy="0" r="1" gradientUnits="userSpaceOnUse" gradientTransform="translate(304.69 330.695) scale(30.2489 30.2542)">
<stop offset="0.3384" stop-color="#400500"/>
<stop offset="0.3682" stop-color="#4F1814"/>
<stop offset="0.4696" stop-color="#7D5451"/>
<stop offset="0.5702" stop-color="#A48886"/>
<stop offset="0.6676" stop-color="#C5B3B2"/>
<stop offset="0.7611" stop-color="#DED4D3"/>
<stop offset="0.8498" stop-color="#F0ECEB"/>
<stop offset="0.9316" stop-color="#FBFAFA"/>
<stop offset="1" stop-color="white"/>
</radialGradient>
<linearGradient id="paint32_linear" x1="347.39" y1="285.529" x2="232.355" y2="400.544" gradientUnits="userSpaceOnUse">
<stop stop-color="#0E5DF8"/>
<stop offset="0.3103" stop-color="#0F4EE0"/>
<stop offset="0.9631" stop-color="#1026A3"/>
<stop offset="1" stop-color="#10249F"/>
</linearGradient>
<linearGradient id="paint33_linear" x1="449.536" y1="376.541" x2="318.524" y2="507.529" gradientUnits="userSpaceOnUse">
<stop stop-color="#50DBFF"/>
<stop offset="0.5244" stop-color="#2069FF"/>
<stop offset="0.7622" stop-color="#915DC0"/>
<stop offset="1" stop-color="#FF5183"/>
</linearGradient>
<linearGradient id="paint34_linear" x1="244.922" y1="194.146" x2="133.376" y2="305.672" gradientUnits="userSpaceOnUse">
<stop stop-color="#50DBFF"/>
<stop offset="0.5244" stop-color="#2069FF"/>
<stop offset="0.7622" stop-color="#915DC0"/>
<stop offset="1" stop-color="#FF5183"/>
</linearGradient>
<linearGradient id="paint35_linear" x1="698.057" y1="106.883" x2="166.733" y2="638.113" gradientUnits="userSpaceOnUse">
<stop stop-color="#50DBFF"/>
<stop offset="0.5244" stop-color="#2069FF"/>
<stop offset="0.7622" stop-color="#915DC0"/>
<stop offset="1" stop-color="#FF5183"/>
</linearGradient>
<linearGradient id="paint36_linear" x1="229.251" y1="230.913" x2="-22.8488" y2="482.968" gradientUnits="userSpaceOnUse">
<stop stop-color="#50DBFF"/>
<stop offset="0.5244" stop-color="#2069FF"/>
<stop offset="0.7622" stop-color="#915DC0"/>
<stop offset="1" stop-color="#FF5183"/>
</linearGradient>
<linearGradient id="paint37_linear" x1="561.24" y1="243.724" x2="29.9164" y2="774.954" gradientUnits="userSpaceOnUse">
<stop stop-color="#50DBFF"/>
<stop offset="0.5244" stop-color="#2069FF"/>
<stop offset="0.7622" stop-color="#915DC0"/>
<stop offset="1" stop-color="#FF5183"/>
</linearGradient>
<linearGradient id="paint38_linear" x1="525.658" y1="-65.5464" x2="-5.6659" y2="465.684" gradientUnits="userSpaceOnUse">
<stop stop-color="#50DBFF"/>
<stop offset="0.5244" stop-color="#2069FF"/>
<stop offset="0.7622" stop-color="#915DC0"/>
<stop offset="1" stop-color="#FF5183"/>
</linearGradient>
<linearGradient id="paint39_linear" x1="362.256" y1="358.171" x2="10.1234" y2="710.242" gradientUnits="userSpaceOnUse">
<stop stop-color="#50DBFF"/>
<stop offset="0.5244" stop-color="#2069FF"/>
<stop offset="0.7622" stop-color="#915DC0"/>
<stop offset="1" stop-color="#FF5183"/>
</linearGradient>
<linearGradient id="paint40_linear" x1="688.435" y1="-143.781" x2="-53.7181" y2="598.242" gradientUnits="userSpaceOnUse">
<stop stop-color="#50DBFF"/>
<stop offset="0.5244" stop-color="#2069FF"/>
<stop offset="0.7622" stop-color="#915DC0"/>
<stop offset="1" stop-color="#FF5183"/>
</linearGradient>
<linearGradient id="paint41_linear" x1="497.329" y1="47.3592" x2="-244.824" y2="789.382" gradientUnits="userSpaceOnUse">
<stop stop-color="#50DBFF"/>
<stop offset="0.5244" stop-color="#2069FF"/>
<stop offset="0.7622" stop-color="#915DC0"/>
<stop offset="1" stop-color="#FF5183"/>
</linearGradient>
<linearGradient id="paint42_linear" x1="553.361" y1="167.032" x2="201.229" y2="519.102" gradientUnits="userSpaceOnUse">
<stop stop-color="#50DBFF"/>
<stop offset="0.5244" stop-color="#2069FF"/>
<stop offset="0.7622" stop-color="#915DC0"/>
<stop offset="1" stop-color="#FF5183"/>
</linearGradient>
<linearGradient id="paint43_linear" x1="496.243" y1="327.442" x2="334.385" y2="489.272" gradientUnits="userSpaceOnUse">
<stop stop-color="#50DBFF"/>
<stop offset="0.5244" stop-color="#2069FF"/>
<stop offset="0.7622" stop-color="#915DC0"/>
<stop offset="1" stop-color="#FF5183"/>
</linearGradient>
<linearGradient id="paint44_linear" x1="212.628" y1="228.828" x2="124.771" y2="316.67" gradientUnits="userSpaceOnUse">
<stop stop-color="#0E5DF8"/>
<stop offset="0.3103" stop-color="#0F4EE0"/>
<stop offset="0.9631" stop-color="#1026A3"/>
<stop offset="1" stop-color="#10249F"/>
</linearGradient>
<linearGradient id="paint45_linear" x1="403.734" y1="419.968" x2="315.876" y2="507.81" gradientUnits="userSpaceOnUse">
<stop stop-color="#0E5DF8"/>
<stop offset="0.3103" stop-color="#0F4EE0"/>
<stop offset="0.9631" stop-color="#1026A3"/>
<stop offset="1" stop-color="#10249F"/>
</linearGradient>
<linearGradient id="paint46_linear" x1="321.282" y1="120.155" x2="131.177" y2="310.227" gradientUnits="userSpaceOnUse">
<stop stop-color="#50DBFF"/>
<stop offset="0.5244" stop-color="#2069FF"/>
<stop offset="0.7622" stop-color="#915DC0"/>
<stop offset="1" stop-color="#FF5183"/>
</linearGradient>
<linearGradient id="paint47_linear" x1="417.435" y1="351.966" x2="44.3327" y2="725.003" gradientUnits="userSpaceOnUse">
<stop stop-color="#50DBFF"/>
<stop offset="0.5244" stop-color="#2069FF"/>
<stop offset="0.7622" stop-color="#915DC0"/>
<stop offset="1" stop-color="#FF5183"/>
</linearGradient>
<linearGradient id="paint48_linear" x1="412.172" y1="83.5479" x2="239.742" y2="255.947" gradientUnits="userSpaceOnUse">
<stop stop-color="#0E5DF8"/>
<stop offset="0.3103" stop-color="#0F4EE0"/>
<stop offset="0.9631" stop-color="#1026A3"/>
<stop offset="1" stop-color="#10249F"/>
</linearGradient>
<linearGradient id="paint49_linear" x1="308.181" y1="324.398" x2="114.659" y2="517.886" gradientUnits="userSpaceOnUse">
<stop stop-color="#0E5DF8"/>
<stop offset="0.3103" stop-color="#0F4EE0"/>
<stop offset="0.9631" stop-color="#1026A3"/>
<stop offset="1" stop-color="#10249F"/>
</linearGradient>
<linearGradient id="paint50_linear" x1="547.511" y1="85.0256" x2="128.769" y2="503.694" gradientUnits="userSpaceOnUse">
<stop stop-color="#50DBFF"/>
<stop offset="0.5244" stop-color="#2069FF"/>
<stop offset="0.7622" stop-color="#915DC0"/>
<stop offset="1" stop-color="#FF5183"/>
</linearGradient>
<linearGradient id="paint51_linear" x1="280.618" y1="215.125" x2="-92.4839" y2="588.161" gradientUnits="userSpaceOnUse">
<stop stop-color="#50DBFF"/>
<stop offset="0.5244" stop-color="#2069FF"/>
<stop offset="0.7622" stop-color="#915DC0"/>
<stop offset="1" stop-color="#FF5183"/>
</linearGradient>
<linearGradient id="paint52_linear" x1="548.989" y1="220.389" x2="376.559" y2="392.788" gradientUnits="userSpaceOnUse">
<stop stop-color="#0E5DF8"/>
<stop offset="0.3103" stop-color="#0F4EE0"/>
<stop offset="0.9631" stop-color="#1026A3"/>
<stop offset="1" stop-color="#10249F"/>
</linearGradient>
<radialGradient id="paint53_radial" cx="0" cy="0" r="1" gradientUnits="userSpaceOnUse" gradientTransform="translate(307.501 324.491) rotate(134.995) scale(22.144 22.1956)">
<stop stop-color="#FF7A00"/>
<stop offset="1" stop-color="#FFDA00"/>
</radialGradient>
<clipPath id="clip0">
<rect width="30" height="30" fill="white" transform="translate(470 185) rotate(-136.332)"/>
</clipPath>
<clipPath id="clip1">
<rect width="30" height="30" fill="white" transform="translate(113 410) rotate(65.137)"/>
</clipPath>
<clipPath id="clip2">
<rect width="30" height="30" fill="white" transform="translate(452 485) rotate(-41.3725)"/>
</clipPath>
<clipPath id="clip3">
<rect width="30" height="30" fill="white" transform="translate(260 537) rotate(7.45709)"/>
</clipPath>
<clipPath id="clip4">
<rect width="30" height="30" fill="white" transform="translate(168 160) rotate(134.373)"/>
</clipPath>
<clipPath id="clip5">
<rect width="30" height="30" fill="white" transform="translate(494 435) rotate(-60)"/>
</clipPath>
<clipPath id="clip6">
<rect width="30" height="30" fill="white" transform="translate(229 130) rotate(152.635)"/>
</clipPath>
<clipPath id="clip7">
<rect width="30" height="30" fill="white" transform="translate(194 512) rotate(28.6546)"/>
</clipPath>
<clipPath id="clip8">
<rect width="30" height="30" fill="white" transform="translate(395 524) rotate(-23.5243)"/>
</clipPath>
<clipPath id="clip9">
<rect width="30" height="30" fill="white" transform="translate(99.7303 343) rotate(82.3113)"/>
</clipPath>
<clipPath id="clip10">
<rect width="130" height="30" fill="white" transform="translate(314 202) rotate(-81.3892)"/>
</clipPath>
<clipPath id="clip11">
<rect width="157" height="30" fill="white" transform="translate(414 293) rotate(-7.55469)"/>
</clipPath>
<clipPath id="clip12">
<rect width="157" height="30" fill="white" transform="translate(118 493) rotate(-45.183)"/>
</clipPath>
</defs>
</svg>
