<svg width="24" height="16" viewBox="0 0 24 16" fill="none" xmlns="http://www.w3.org/2000/svg">
<path d="M12.0001 5.7148C9.15398 5.7148 6.55062 7.16217 5.03655 9.58599C4.66994 10.1733 4.84848 10.9466 5.43575 11.3137C6.02252 11.6798 6.79636 11.5018 7.16347 10.914C8.21615 9.22841 10.0246 8.22237 12.0001 8.22237C13.9755 8.22237 15.7835 9.22841 16.8367 10.914C17.0744 11.2952 17.4831 11.5043 17.9009 11.5043C18.1281 11.5043 18.3573 11.4426 18.5639 11.3137C19.1512 10.9471 19.3297 10.1738 18.9631 9.58599C17.4495 7.16217 14.8467 5.7148 12.0001 5.7148Z" fill="#2343ED"/>
<path d="M23.8098 6.56687C21.2466 2.46097 16.8317 0.010067 12.0001 0.010067C7.16853 0.010067 2.75419 2.46097 0.19045 6.56687C-0.176158 7.15415 0.00238132 7.92749 0.589656 8.29409C1.17743 8.6602 1.95077 8.48216 2.31737 7.89489C4.41973 4.52771 8.03966 2.51764 12.0001 2.51764C15.9606 2.51764 19.5805 4.52771 21.6829 7.89489C21.9206 8.27554 22.3293 8.48467 22.7471 8.48467C22.9738 8.48467 23.2035 8.42348 23.4101 8.29409C23.9979 7.92698 24.1764 7.15415 23.8098 6.56687Z" fill="#2343ED"/>
<path d="M12.0001 15.99C13.1396 15.99 14.0634 15.0662 14.0634 13.9267C14.0634 12.7872 13.1396 11.8635 12.0001 11.8635C10.8606 11.8635 9.9369 12.7872 9.9369 13.9267C9.9369 15.0662 10.8606 15.99 12.0001 15.99Z" fill="#2343ED"/>
</svg>
