<svg width="80" height="31" viewBox="0 0 80 31" fill="none" xmlns="http://www.w3.org/2000/svg">
<rect x="58.7373" y="12.5883" width="18.6929" height="17.0179" fill="#D6AB05"/>
<path d="M76.331 12.5832V23.4469L59.745 28.8925L72.861 19.8742V0C72.861 0 63.4762 7.53889 60.5481 9.74232C57.0118 12.4101 56.8676 13.5039 56.8676 15.2273V28.444C56.8676 29.0381 57.1054 29.6126 57.5226 30.0336C57.9398 30.4546 58.5051 30.6946 59.0977 30.6946H79.9999V12.5832H76.331ZM66.8683 12.2094C67.6364 11.2887 68.7554 10.9581 69.3714 11.4815C69.9875 12.0008 69.8627 13.1734 69.0946 14.0941C68.3265 15.0148 67.2075 15.3414 66.5915 14.822C65.9794 14.2987 66.1002 13.1301 66.8683 12.2094Z" fill="#FFCC00"/>
<path fill-rule="evenodd" clip-rule="evenodd" d="M69.3717 11.4816C68.7557 10.9583 67.6367 11.2888 66.8686 12.2095C66.1005 13.1302 65.9797 14.2988 66.5918 14.8222C67.2078 15.3415 68.3268 15.015 69.0949 14.0942C69.863 13.1735 69.9878 12.001 69.3717 11.4816Z" fill="#4B4B5C"/>
<path d="M16.689 16.9156V28.6552H14.9111V23.3911H12.2339V28.6559H10.434V16.9163H12.2339V21.9008H14.9111V16.9156H16.689ZM25.9451 30.9615H24.3294V28.6559H19.3435V30.9615H17.7279V27.1648H18.4429C18.7048 26.5439 18.9125 25.857 19.0665 25.1035C19.2198 24.3507 19.3394 23.5743 19.424 22.7736C19.5085 21.9743 19.5622 21.1591 19.5862 20.3286C19.6089 19.4973 19.6206 18.6939 19.6206 17.9168V16.9156H25.0218V27.1648H25.9451V30.9615ZM23.2445 18.406H21.237V18.6155C21.237 19.2351 21.2246 19.9129 21.2012 20.6484C21.1774 21.3972 21.1274 22.1449 21.0513 22.8902C20.9749 23.6417 20.8671 24.3896 20.7282 25.1319C20.6011 25.8268 20.4077 26.5076 20.1507 27.1648H23.2445V18.406ZM33.7698 27.8635C33.3879 28.1656 32.959 28.4017 32.5006 28.5622C32.0235 28.7329 31.492 28.8189 30.9076 28.8189C29.7072 28.8189 28.7612 28.3492 28.0682 27.4098C27.3758 26.4703 27.03 25.0917 27.03 23.2745C27.03 22.3282 27.0946 21.4581 27.226 20.6658C27.3573 19.8734 27.5642 19.1865 27.8495 18.6044C28.1335 18.0216 28.4992 17.5678 28.9461 17.2417C29.3916 16.9156 29.9224 16.7526 30.5377 16.7526C31.0149 16.7526 31.4535 16.8497 31.8543 17.044C32.2538 17.2382 32.592 17.5525 32.8698 17.9876C33.1462 18.4219 33.3614 18.9846 33.5161 19.6757C33.6694 20.3667 33.7464 21.209 33.7464 22.2033V23.2045H28.8994C28.8994 24.5408 29.0802 25.5496 29.4425 26.233C29.8035 26.9164 30.3459 27.2578 31.0692 27.2578C31.5766 27.2578 32.0269 27.169 32.4195 26.99C32.8114 26.8117 33.1235 26.6368 33.3545 26.4662L33.7698 27.8635ZM30.5384 18.2436C29.9843 18.2436 29.5924 18.5579 29.3614 19.1872C29.1297 19.8158 28.9833 20.6581 28.9221 21.7141H31.9004C31.9004 21.2173 31.877 20.7553 31.831 20.3286C31.7949 19.9532 31.7215 19.5824 31.6116 19.2219C31.5113 18.9111 31.3731 18.6703 31.1964 18.4996C31.1088 18.4151 31.0055 18.3489 30.8925 18.3048C30.7795 18.2607 30.6596 18.2404 30.5384 18.2436ZM37.393 22.809V28.6559H35.5938V16.9163H37.3944V22.3427L40.1871 16.9156H42.0104L39.1256 22.4364L42.4263 28.6559H40.4648L37.393 22.809ZM46.6498 28.8182C45.4026 28.8182 44.4256 28.318 43.7182 27.3161C43.01 26.3142 42.656 24.8044 42.656 22.7854C42.656 21.8695 42.7453 21.039 42.922 20.2932C43.098 19.548 43.36 18.9152 43.7058 18.3949C44.0338 17.8917 44.4775 17.4761 44.999 17.1834C45.5147 16.8962 46.1108 16.7526 46.788 16.7526C47.3105 16.7526 47.7347 16.8108 48.0571 16.9274C48.3809 17.044 48.6725 17.1876 48.9351 17.3576L48.6807 19.0817C48.419 18.8481 48.1277 18.6508 47.8144 18.4948C47.489 18.3285 47.1293 18.2425 46.7646 18.2436C46.1183 18.2436 45.5876 18.6106 45.1723 19.344C44.7563 20.0781 44.5487 21.1938 44.5487 22.6917C44.5487 24.1751 44.7227 25.3186 45.0678 26.122C45.4143 26.9269 45.9567 27.3279 46.6958 27.3279C47.1413 27.3279 47.527 27.2516 47.8495 27.0989C48.1726 26.9477 48.4421 26.7749 48.6573 26.5827L49.0726 27.9336C48.7612 28.1997 48.4111 28.4157 48.0344 28.574C47.6494 28.7371 47.1874 28.8182 46.6498 28.8182Z" fill="white"/>
<path d="M4.87039 22.2721L2.05431 28.6553H0L3.09315 21.8301C2.36988 21.4575 1.7848 20.9101 1.33929 20.1878C0.892401 19.4655 0.669645 18.4838 0.669645 17.2411C0.669645 16.3717 0.796148 15.6071 1.05053 14.9466C1.30423 14.2875 1.65074 13.7394 2.08869 13.3043C2.52664 12.8693 3.03884 12.5439 3.62529 12.326C4.21631 12.1075 4.84118 11.9971 5.4706 11.9999H8.12443V28.6553H6.34787V22.2721H4.87039ZM6.34787 13.4917H5.40116C5.04709 13.4917 4.70058 13.5576 4.363 13.6901C4.02543 13.8226 3.72361 14.0328 3.46235 14.3215C3.20109 14.6094 2.98934 14.991 2.82777 15.4663C2.66552 15.9416 2.58576 16.5292 2.58576 17.2307C2.58576 17.9002 2.65795 18.4615 2.80439 18.9132C2.95084 19.3649 3.1509 19.7319 3.4046 20.0116C3.65898 20.2919 3.95874 20.4903 4.30525 20.6076C4.65878 20.7253 5.02889 20.7843 5.40116 20.7824H6.34787V13.4917Z" fill="#FF0000"/>
</svg>
