<svg width="16" height="12" viewBox="0 0 16 12" fill="none" xmlns="http://www.w3.org/2000/svg">
<path fill-rule="evenodd" clip-rule="evenodd" d="M13.869 1.07003C14.5115 1.24301 15.0181 1.7496 15.191 2.3921C15.5123 3.5659 15.4999 6.01235 15.4999 6.01235C15.4999 6.01235 15.4999 8.44644 15.191 9.62024C15.0181 10.2627 14.5115 10.7693 13.869 10.9423C12.6952 11.2512 7.99997 11.2512 7.99997 11.2512C7.99997 11.2512 3.31712 11.2512 2.13097 10.93C1.48846 10.757 0.981876 10.2504 0.808895 9.60788C0.5 8.44644 0.5 5.99999 0.5 5.99999C0.5 5.99999 0.5 3.5659 0.808895 2.3921C0.981876 1.7496 1.50082 1.23066 2.13097 1.05767C3.30477 0.748779 7.99997 0.748779 7.99997 0.748779C7.99997 0.748779 12.6952 0.748779 13.869 1.07003ZM10.4093 5.99973L6.50488 8.24849V3.75098L10.4093 5.99973Z" fill="white"/>
</svg>
